<mxfile host="app.diagrams.net" modified="2023-04-01T19:45:27.215Z" agent="Mozilla/5.0 (Windows NT 10.0; Win64; x64) AppleWebKit/537.36 (KHTML, like Gecko) Chrome/111.0.0.0 Safari/537.36 Edg/111.0.1661.62" etag="o2rU73gRxap69TGU__cY" version="21.1.2" type="device" pages="4">
  <diagram name="DFD NIVEL - DIAGRAMA DE CONTEXTO" id="bEv4E8w1ZN8cFLWdACM0">
    <mxGraphModel dx="656" dy="384" grid="1" gridSize="10" guides="1" tooltips="1" connect="1" arrows="1" fold="1" page="1" pageScale="1" pageWidth="827" pageHeight="1169" math="0" shadow="0">
      <root>
        <mxCell id="0" />
        <mxCell id="1" parent="0" />
        <mxCell id="mW0eqMzuEwa0X2ZjYvI0-1" value="Cliente" style="rounded=0;whiteSpace=wrap;html=1;" parent="1" vertex="1">
          <mxGeometry x="230" y="455" width="59" height="60" as="geometry" />
        </mxCell>
        <mxCell id="mW0eqMzuEwa0X2ZjYvI0-2" value="Médicos" style="rounded=0;whiteSpace=wrap;html=1;" parent="1" vertex="1">
          <mxGeometry x="609" y="455" width="61" height="60" as="geometry" />
        </mxCell>
        <mxCell id="mW0eqMzuEwa0X2ZjYvI0-5" value="" style="endArrow=classic;html=1;rounded=0;entryX=0.083;entryY=0.25;entryDx=0;entryDy=0;entryPerimeter=0;" parent="1" target="mW0eqMzuEwa0X2ZjYvI0-9" edge="1">
          <mxGeometry width="50" height="50" relative="1" as="geometry">
            <mxPoint x="289" y="465" as="sourcePoint" />
            <mxPoint x="397" y="465" as="targetPoint" />
          </mxGeometry>
        </mxCell>
        <mxCell id="mW0eqMzuEwa0X2ZjYvI0-6" value="" style="endArrow=classic;html=1;rounded=0;entryX=1.008;entryY=0.388;entryDx=0;entryDy=0;entryPerimeter=0;exitX=-0.02;exitY=0.369;exitDx=0;exitDy=0;exitPerimeter=0;" parent="1" source="mW0eqMzuEwa0X2ZjYvI0-2" target="mW0eqMzuEwa0X2ZjYvI0-9" edge="1">
          <mxGeometry width="50" height="50" relative="1" as="geometry">
            <mxPoint x="609" y="493" as="sourcePoint" />
            <mxPoint x="519" y="493" as="targetPoint" />
          </mxGeometry>
        </mxCell>
        <mxCell id="mW0eqMzuEwa0X2ZjYvI0-9" value="Nível 0&lt;br&gt;Sistema de controle" style="ellipse;whiteSpace=wrap;html=1;" parent="1" vertex="1">
          <mxGeometry x="389" y="445" width="120" height="80" as="geometry" />
        </mxCell>
        <mxCell id="mW0eqMzuEwa0X2ZjYvI0-10" value="" style="endArrow=classic;html=1;rounded=0;entryX=1.013;entryY=0.35;entryDx=0;entryDy=0;entryPerimeter=0;exitX=0;exitY=0.375;exitDx=0;exitDy=0;exitPerimeter=0;" parent="1" source="mW0eqMzuEwa0X2ZjYvI0-9" target="mW0eqMzuEwa0X2ZjYvI0-1" edge="1">
          <mxGeometry width="50" height="50" relative="1" as="geometry">
            <mxPoint x="391" y="495" as="sourcePoint" />
            <mxPoint x="299" y="495" as="targetPoint" />
          </mxGeometry>
        </mxCell>
        <mxCell id="mW0eqMzuEwa0X2ZjYvI0-11" value="" style="endArrow=classic;html=1;rounded=0;exitX=0.946;exitY=0.266;exitDx=0;exitDy=0;exitPerimeter=0;" parent="1" source="mW0eqMzuEwa0X2ZjYvI0-9" edge="1">
          <mxGeometry width="50" height="50" relative="1" as="geometry">
            <mxPoint x="509" y="465" as="sourcePoint" />
            <mxPoint x="609" y="466" as="targetPoint" />
          </mxGeometry>
        </mxCell>
        <mxCell id="mW0eqMzuEwa0X2ZjYvI0-13" value="Funcionário" style="rounded=0;whiteSpace=wrap;html=1;" parent="1" vertex="1">
          <mxGeometry x="570" y="585" width="61" height="60" as="geometry" />
        </mxCell>
        <mxCell id="mW0eqMzuEwa0X2ZjYvI0-14" value="Clinica" style="rounded=0;whiteSpace=wrap;html=1;" parent="1" vertex="1">
          <mxGeometry x="300" y="585" width="61" height="60" as="geometry" />
        </mxCell>
        <mxCell id="mW0eqMzuEwa0X2ZjYvI0-15" value="" style="endArrow=classic;html=1;rounded=0;entryX=0.253;entryY=0.942;entryDx=0;entryDy=0;entryPerimeter=0;exitX=0.5;exitY=0;exitDx=0;exitDy=0;" parent="1" source="S-GOhy86LZUjpKo3MG3e-1" target="mW0eqMzuEwa0X2ZjYvI0-9" edge="1">
          <mxGeometry width="50" height="50" relative="1" as="geometry">
            <mxPoint x="349" y="585" as="sourcePoint" />
            <mxPoint x="429" y="535" as="targetPoint" />
            <Array as="points">
              <mxPoint x="329" y="535" />
              <mxPoint x="419" y="535" />
            </Array>
          </mxGeometry>
        </mxCell>
        <mxCell id="mW0eqMzuEwa0X2ZjYvI0-16" value="" style="endArrow=classic;html=1;rounded=0;entryX=0.329;entryY=-0.005;entryDx=0;entryDy=0;exitX=0.207;exitY=0.914;exitDx=0;exitDy=0;exitPerimeter=0;entryPerimeter=0;" parent="1" source="mW0eqMzuEwa0X2ZjYvI0-9" target="S-GOhy86LZUjpKo3MG3e-1" edge="1">
          <mxGeometry width="50" height="50" relative="1" as="geometry">
            <mxPoint x="399" y="535" as="sourcePoint" />
            <mxPoint x="319" y="505" as="targetPoint" />
            <Array as="points">
              <mxPoint x="319" y="518" />
            </Array>
          </mxGeometry>
        </mxCell>
        <mxCell id="mW0eqMzuEwa0X2ZjYvI0-18" value="" style="endArrow=classic;html=1;rounded=0;exitX=0.358;exitY=-0.002;exitDx=0;exitDy=0;exitPerimeter=0;entryX=0.953;entryY=0.75;entryDx=0;entryDy=0;entryPerimeter=0;" parent="1" source="mW0eqMzuEwa0X2ZjYvI0-13" target="mW0eqMzuEwa0X2ZjYvI0-9" edge="1">
          <mxGeometry width="50" height="50" relative="1" as="geometry">
            <mxPoint x="569" y="585" as="sourcePoint" />
            <mxPoint x="619" y="535" as="targetPoint" />
            <Array as="points">
              <mxPoint x="592" y="505" />
            </Array>
          </mxGeometry>
        </mxCell>
        <mxCell id="mW0eqMzuEwa0X2ZjYvI0-19" value="" style="endArrow=classic;html=1;rounded=0;exitX=0.827;exitY=0.88;exitDx=0;exitDy=0;exitPerimeter=0;entryX=0.157;entryY=0.003;entryDx=0;entryDy=0;entryPerimeter=0;" parent="1" source="mW0eqMzuEwa0X2ZjYvI0-9" target="mW0eqMzuEwa0X2ZjYvI0-13" edge="1">
          <mxGeometry width="50" height="50" relative="1" as="geometry">
            <mxPoint x="499" y="535" as="sourcePoint" />
            <mxPoint x="580" y="580" as="targetPoint" />
            <Array as="points">
              <mxPoint x="579" y="515" />
            </Array>
          </mxGeometry>
        </mxCell>
        <mxCell id="mW0eqMzuEwa0X2ZjYvI0-20" value="DFD 0" style="text;html=1;align=center;verticalAlign=middle;resizable=0;points=[];autosize=1;strokeColor=none;fillColor=none;" parent="1" vertex="1">
          <mxGeometry x="99" y="270" width="60" height="30" as="geometry" />
        </mxCell>
        <mxCell id="mW0eqMzuEwa0X2ZjYvI0-21" value="Hospitais" style="rounded=0;whiteSpace=wrap;html=1;" parent="1" vertex="1">
          <mxGeometry x="579.5" y="300" width="59" height="60" as="geometry" />
        </mxCell>
        <mxCell id="mW0eqMzuEwa0X2ZjYvI0-22" value="Doenças" style="rounded=0;whiteSpace=wrap;html=1;" parent="1" vertex="1">
          <mxGeometry x="350" y="300" width="59" height="60" as="geometry" />
        </mxCell>
        <mxCell id="mW0eqMzuEwa0X2ZjYvI0-23" value="" style="endArrow=classic;html=1;rounded=0;exitX=0.25;exitY=1;exitDx=0;exitDy=0;" parent="1" source="mW0eqMzuEwa0X2ZjYvI0-22" edge="1">
          <mxGeometry width="50" height="50" relative="1" as="geometry">
            <mxPoint x="369" y="365" as="sourcePoint" />
            <mxPoint x="429" y="445" as="targetPoint" />
            <Array as="points">
              <mxPoint x="365" y="425" />
              <mxPoint x="429" y="425" />
            </Array>
          </mxGeometry>
        </mxCell>
        <mxCell id="mW0eqMzuEwa0X2ZjYvI0-24" value="" style="endArrow=classic;html=1;rounded=0;entryX=0.75;entryY=1;entryDx=0;entryDy=0;" parent="1" target="mW0eqMzuEwa0X2ZjYvI0-22" edge="1">
          <mxGeometry width="50" height="50" relative="1" as="geometry">
            <mxPoint x="439" y="445" as="sourcePoint" />
            <mxPoint x="379" y="365" as="targetPoint" />
            <Array as="points">
              <mxPoint x="439" y="415" />
              <mxPoint x="394" y="415" />
            </Array>
          </mxGeometry>
        </mxCell>
        <mxCell id="mW0eqMzuEwa0X2ZjYvI0-26" value="" style="endArrow=classic;html=1;rounded=0;entryX=0.832;entryY=0.124;entryDx=0;entryDy=0;entryPerimeter=0;" parent="1" target="mW0eqMzuEwa0X2ZjYvI0-9" edge="1">
          <mxGeometry width="50" height="50" relative="1" as="geometry">
            <mxPoint x="590" y="360" as="sourcePoint" />
            <mxPoint x="589" y="395" as="targetPoint" />
            <Array as="points">
              <mxPoint x="590" y="375" />
              <mxPoint x="489" y="375" />
            </Array>
          </mxGeometry>
        </mxCell>
        <mxCell id="mW0eqMzuEwa0X2ZjYvI0-27" value="" style="endArrow=classic;html=1;rounded=0;exitX=0.91;exitY=0.185;exitDx=0;exitDy=0;exitPerimeter=0;entryX=0.5;entryY=1;entryDx=0;entryDy=0;" parent="1" source="mW0eqMzuEwa0X2ZjYvI0-9" target="mW0eqMzuEwa0X2ZjYvI0-21" edge="1">
          <mxGeometry width="50" height="50" relative="1" as="geometry">
            <mxPoint x="519" y="445" as="sourcePoint" />
            <mxPoint x="569" y="395" as="targetPoint" />
            <Array as="points">
              <mxPoint x="499" y="385" />
              <mxPoint x="610" y="385" />
            </Array>
          </mxGeometry>
        </mxCell>
        <mxCell id="S-GOhy86LZUjpKo3MG3e-1" value="Clinica" style="rounded=0;whiteSpace=wrap;html=1;" parent="1" vertex="1">
          <mxGeometry x="300" y="585" width="61" height="60" as="geometry" />
        </mxCell>
        <mxCell id="S-GOhy86LZUjpKo3MG3e-2" value="Paciente" style="rounded=0;whiteSpace=wrap;html=1;" parent="1" vertex="1">
          <mxGeometry x="230" y="455" width="59" height="60" as="geometry" />
        </mxCell>
      </root>
    </mxGraphModel>
  </diagram>
  <diagram id="7qS5rRrxr6Y32bfDB2BV" name="DFD - Nível 1">
    <mxGraphModel dx="1377" dy="806" grid="1" gridSize="10" guides="1" tooltips="1" connect="1" arrows="1" fold="1" page="1" pageScale="1" pageWidth="850" pageHeight="1100" math="0" shadow="0">
      <root>
        <mxCell id="0" />
        <mxCell id="1" parent="0" />
        <mxCell id="ptNEkKENp7iOGep-rB65-1" value="Base de Dados Cliente" style="shape=partialRectangle;whiteSpace=wrap;html=1;left=0;right=0;fillColor=none;" parent="1" vertex="1">
          <mxGeometry x="631" y="95" width="120" height="60" as="geometry" />
        </mxCell>
        <mxCell id="ptNEkKENp7iOGep-rB65-2" value="DFD 1" style="text;html=1;align=center;verticalAlign=middle;resizable=0;points=[];autosize=1;strokeColor=none;fillColor=none;" parent="1" vertex="1">
          <mxGeometry x="71" y="20" width="60" height="30" as="geometry" />
        </mxCell>
        <mxCell id="ptNEkKENp7iOGep-rB65-3" value="Paciente" style="rounded=0;whiteSpace=wrap;html=1;" parent="1" vertex="1">
          <mxGeometry x="121" y="95" width="61" height="60" as="geometry" />
        </mxCell>
        <mxCell id="ptNEkKENp7iOGep-rB65-4" value="Nível 1.1&lt;br&gt;Cadastrar dados Cliente" style="ellipse;whiteSpace=wrap;html=1;" parent="1" vertex="1">
          <mxGeometry x="356" y="90" width="79" height="80" as="geometry" />
        </mxCell>
        <mxCell id="ptNEkKENp7iOGep-rB65-5" value="Nível 1.1&lt;br style=&quot;border-color: var(--border-color);&quot;&gt;Consultar dados Cliente" style="ellipse;whiteSpace=wrap;html=1;" parent="1" vertex="1">
          <mxGeometry x="356" y="185" width="79" height="80" as="geometry" />
        </mxCell>
        <mxCell id="ptNEkKENp7iOGep-rB65-6" value="Nível 1.1&lt;br style=&quot;border-color: var(--border-color);&quot;&gt;Alterar dados &lt;br&gt;Cliente" style="ellipse;whiteSpace=wrap;html=1;" parent="1" vertex="1">
          <mxGeometry x="356" y="275" width="79" height="80" as="geometry" />
        </mxCell>
        <mxCell id="ptNEkKENp7iOGep-rB65-7" value="Nível 1.1&lt;br style=&quot;border-color: var(--border-color);&quot;&gt;Excluir dados&lt;br&gt;&amp;nbsp;Cliente" style="ellipse;whiteSpace=wrap;html=1;" parent="1" vertex="1">
          <mxGeometry x="356" y="365" width="79" height="80" as="geometry" />
        </mxCell>
        <mxCell id="ptNEkKENp7iOGep-rB65-8" value="" style="endArrow=classic;html=1;rounded=0;exitX=1;exitY=0.5;exitDx=0;exitDy=0;entryX=0;entryY=0.438;entryDx=0;entryDy=0;entryPerimeter=0;" parent="1" source="ptNEkKENp7iOGep-rB65-3" target="ptNEkKENp7iOGep-rB65-4" edge="1">
          <mxGeometry width="50" height="50" relative="1" as="geometry">
            <mxPoint x="251" y="145" as="sourcePoint" />
            <mxPoint x="301" y="95" as="targetPoint" />
          </mxGeometry>
        </mxCell>
        <mxCell id="ptNEkKENp7iOGep-rB65-9" value="" style="endArrow=classic;html=1;rounded=0;entryX=1.017;entryY=0.672;entryDx=0;entryDy=0;entryPerimeter=0;exitX=0;exitY=0.557;exitDx=0;exitDy=0;exitPerimeter=0;" parent="1" target="ptNEkKENp7iOGep-rB65-3" edge="1" source="ptNEkKENp7iOGep-rB65-4">
          <mxGeometry width="50" height="50" relative="1" as="geometry">
            <mxPoint x="341" y="135" as="sourcePoint" />
            <mxPoint x="321" y="125" as="targetPoint" />
          </mxGeometry>
        </mxCell>
        <mxCell id="ptNEkKENp7iOGep-rB65-10" value="" style="endArrow=classic;html=1;rounded=0;exitX=0;exitY=0.5;exitDx=0;exitDy=0;entryX=0.941;entryY=1.024;entryDx=0;entryDy=0;entryPerimeter=0;" parent="1" source="ptNEkKENp7iOGep-rB65-5" target="ptNEkKENp7iOGep-rB65-3" edge="1">
          <mxGeometry width="50" height="50" relative="1" as="geometry">
            <mxPoint x="331" y="225" as="sourcePoint" />
            <mxPoint x="211" y="225" as="targetPoint" />
            <Array as="points">
              <mxPoint x="180" y="225" />
            </Array>
          </mxGeometry>
        </mxCell>
        <mxCell id="ptNEkKENp7iOGep-rB65-11" value="" style="endArrow=classic;html=1;rounded=0;exitX=0.84;exitY=1.027;exitDx=0;exitDy=0;exitPerimeter=0;entryX=0.006;entryY=0.617;entryDx=0;entryDy=0;entryPerimeter=0;" parent="1" source="ptNEkKENp7iOGep-rB65-3" target="ptNEkKENp7iOGep-rB65-5" edge="1">
          <mxGeometry width="50" height="50" relative="1" as="geometry">
            <mxPoint x="211" y="285" as="sourcePoint" />
            <mxPoint x="261" y="235" as="targetPoint" />
            <Array as="points">
              <mxPoint x="172" y="234" />
            </Array>
          </mxGeometry>
        </mxCell>
        <mxCell id="ptNEkKENp7iOGep-rB65-12" value="" style="endArrow=classic;html=1;rounded=0;exitX=0.5;exitY=1;exitDx=0;exitDy=0;entryX=0;entryY=0.5;entryDx=0;entryDy=0;" parent="1" source="ptNEkKENp7iOGep-rB65-3" target="ptNEkKENp7iOGep-rB65-6" edge="1">
          <mxGeometry width="50" height="50" relative="1" as="geometry">
            <mxPoint x="212" y="167" as="sourcePoint" />
            <mxPoint x="352" y="244" as="targetPoint" />
            <Array as="points">
              <mxPoint x="150" y="310" />
            </Array>
          </mxGeometry>
        </mxCell>
        <mxCell id="ptNEkKENp7iOGep-rB65-13" value="" style="endArrow=classic;html=1;rounded=0;entryX=0.603;entryY=0.985;entryDx=0;entryDy=0;exitX=0.01;exitY=0.385;exitDx=0;exitDy=0;exitPerimeter=0;entryPerimeter=0;" parent="1" source="ptNEkKENp7iOGep-rB65-6" target="ptNEkKENp7iOGep-rB65-3" edge="1">
          <mxGeometry width="50" height="50" relative="1" as="geometry">
            <mxPoint x="351" y="235" as="sourcePoint" />
            <mxPoint x="224" y="166" as="targetPoint" />
            <Array as="points">
              <mxPoint x="158" y="300" />
            </Array>
          </mxGeometry>
        </mxCell>
        <mxCell id="ptNEkKENp7iOGep-rB65-14" value="" style="endArrow=classic;html=1;rounded=0;entryX=0.25;entryY=1;entryDx=0;entryDy=0;exitX=0;exitY=0.375;exitDx=0;exitDy=0;exitPerimeter=0;" parent="1" source="ptNEkKENp7iOGep-rB65-7" target="ptNEkKENp7iOGep-rB65-3" edge="1">
          <mxGeometry width="50" height="50" relative="1" as="geometry">
            <mxPoint x="352" y="316" as="sourcePoint" />
            <mxPoint x="191" y="168" as="targetPoint" />
            <Array as="points">
              <mxPoint x="140" y="395" />
            </Array>
          </mxGeometry>
        </mxCell>
        <mxCell id="ptNEkKENp7iOGep-rB65-15" value="" style="endArrow=classic;html=1;rounded=0;entryX=0;entryY=0.5;entryDx=0;entryDy=0;exitX=0.127;exitY=1.001;exitDx=0;exitDy=0;exitPerimeter=0;" parent="1" source="ptNEkKENp7iOGep-rB65-3" target="ptNEkKENp7iOGep-rB65-7" edge="1">
          <mxGeometry width="50" height="50" relative="1" as="geometry">
            <mxPoint x="130" y="160" as="sourcePoint" />
            <mxPoint x="351" y="325" as="targetPoint" />
            <Array as="points">
              <mxPoint x="131" y="405" />
            </Array>
          </mxGeometry>
        </mxCell>
        <mxCell id="ptNEkKENp7iOGep-rB65-16" value="" style="endArrow=classic;html=1;rounded=0;entryX=0.994;entryY=0.425;entryDx=0;entryDy=0;entryPerimeter=0;exitX=0.002;exitY=0.478;exitDx=0;exitDy=0;exitPerimeter=0;" parent="1" source="ptNEkKENp7iOGep-rB65-1" target="ptNEkKENp7iOGep-rB65-4" edge="1">
          <mxGeometry width="50" height="50" relative="1" as="geometry">
            <mxPoint x="621" y="125" as="sourcePoint" />
            <mxPoint x="591" y="95" as="targetPoint" />
          </mxGeometry>
        </mxCell>
        <mxCell id="ptNEkKENp7iOGep-rB65-17" value="" style="endArrow=classic;html=1;rounded=0;exitX=1.005;exitY=0.564;exitDx=0;exitDy=0;exitPerimeter=0;entryX=0;entryY=0.667;entryDx=0;entryDy=0;entryPerimeter=0;" parent="1" source="ptNEkKENp7iOGep-rB65-4" target="ptNEkKENp7iOGep-rB65-1" edge="1">
          <mxGeometry width="50" height="50" relative="1" as="geometry">
            <mxPoint x="541" y="185" as="sourcePoint" />
            <mxPoint x="591" y="135" as="targetPoint" />
          </mxGeometry>
        </mxCell>
        <mxCell id="ptNEkKENp7iOGep-rB65-18" value="" style="endArrow=classic;html=1;rounded=0;exitX=0.076;exitY=1.001;exitDx=0;exitDy=0;exitPerimeter=0;entryX=1;entryY=0.5;entryDx=0;entryDy=0;" parent="1" source="ptNEkKENp7iOGep-rB65-1" target="ptNEkKENp7iOGep-rB65-5" edge="1">
          <mxGeometry width="50" height="50" relative="1" as="geometry">
            <mxPoint x="651" y="245" as="sourcePoint" />
            <mxPoint x="701" y="195" as="targetPoint" />
            <Array as="points">
              <mxPoint x="641" y="225" />
            </Array>
          </mxGeometry>
        </mxCell>
        <mxCell id="ptNEkKENp7iOGep-rB65-19" value="" style="endArrow=classic;html=1;rounded=0;entryX=0.159;entryY=0.989;entryDx=0;entryDy=0;entryPerimeter=0;" parent="1" target="ptNEkKENp7iOGep-rB65-1" edge="1">
          <mxGeometry width="50" height="50" relative="1" as="geometry">
            <mxPoint x="461" y="235" as="sourcePoint" />
            <mxPoint x="721" y="234" as="targetPoint" />
            <Array as="points">
              <mxPoint x="651" y="235" />
            </Array>
          </mxGeometry>
        </mxCell>
        <mxCell id="ptNEkKENp7iOGep-rB65-20" value="" style="endArrow=classic;html=1;rounded=0;exitX=0.302;exitY=1.048;exitDx=0;exitDy=0;exitPerimeter=0;entryX=0.977;entryY=0.375;entryDx=0;entryDy=0;entryPerimeter=0;" parent="1" source="ptNEkKENp7iOGep-rB65-1" target="ptNEkKENp7iOGep-rB65-6" edge="1">
          <mxGeometry width="50" height="50" relative="1" as="geometry">
            <mxPoint x="650" y="165" as="sourcePoint" />
            <mxPoint x="471" y="235" as="targetPoint" />
            <Array as="points">
              <mxPoint x="669" y="305" />
            </Array>
          </mxGeometry>
        </mxCell>
        <mxCell id="ptNEkKENp7iOGep-rB65-21" value="" style="endArrow=classic;html=1;rounded=0;entryX=0.397;entryY=1.003;entryDx=0;entryDy=0;exitX=1;exitY=0.5;exitDx=0;exitDy=0;entryPerimeter=0;" parent="1" source="ptNEkKENp7iOGep-rB65-6" target="ptNEkKENp7iOGep-rB65-1" edge="1">
          <mxGeometry width="50" height="50" relative="1" as="geometry">
            <mxPoint x="471" y="245" as="sourcePoint" />
            <mxPoint x="660" y="167" as="targetPoint" />
            <Array as="points">
              <mxPoint x="681" y="315" />
            </Array>
          </mxGeometry>
        </mxCell>
        <mxCell id="ptNEkKENp7iOGep-rB65-22" value="" style="endArrow=classic;html=1;rounded=0;entryX=0.75;entryY=1;entryDx=0;entryDy=0;exitX=1;exitY=0.5;exitDx=0;exitDy=0;" parent="1" source="ptNEkKENp7iOGep-rB65-7" target="ptNEkKENp7iOGep-rB65-1" edge="1">
          <mxGeometry width="50" height="50" relative="1" as="geometry">
            <mxPoint x="471" y="325" as="sourcePoint" />
            <mxPoint x="689" y="168" as="targetPoint" />
            <Array as="points">
              <mxPoint x="721" y="405" />
            </Array>
          </mxGeometry>
        </mxCell>
        <mxCell id="ptNEkKENp7iOGep-rB65-23" value="" style="endArrow=classic;html=1;rounded=0;exitX=0.65;exitY=1.05;exitDx=0;exitDy=0;exitPerimeter=0;entryX=0.98;entryY=0.366;entryDx=0;entryDy=0;entryPerimeter=0;" parent="1" source="ptNEkKENp7iOGep-rB65-1" target="ptNEkKENp7iOGep-rB65-7" edge="1">
          <mxGeometry width="50" height="50" relative="1" as="geometry">
            <mxPoint x="677" y="168" as="sourcePoint" />
            <mxPoint x="471" y="315" as="targetPoint" />
            <Array as="points">
              <mxPoint x="709" y="395" />
            </Array>
          </mxGeometry>
        </mxCell>
        <mxCell id="ptNEkKENp7iOGep-rB65-24" value="Dados Cliente" style="text;html=1;align=center;verticalAlign=middle;resizable=0;points=[];autosize=1;strokeColor=none;fillColor=none;" parent="1" vertex="1">
          <mxGeometry x="231" y="90" width="100" height="30" as="geometry" />
        </mxCell>
        <mxCell id="ptNEkKENp7iOGep-rB65-25" value="Dados Cliente" style="text;html=1;align=center;verticalAlign=middle;resizable=0;points=[];autosize=1;strokeColor=none;fillColor=none;" parent="1" vertex="1">
          <mxGeometry x="221" y="190" width="100" height="30" as="geometry" />
        </mxCell>
        <mxCell id="ptNEkKENp7iOGep-rB65-26" value="&lt;span style=&quot;color: rgb(0, 0, 0); font-family: Helvetica; font-size: 12px; font-style: normal; font-variant-ligatures: normal; font-variant-caps: normal; font-weight: 400; letter-spacing: normal; orphans: 2; text-align: center; text-indent: 0px; text-transform: none; widows: 2; word-spacing: 0px; -webkit-text-stroke-width: 0px; background-color: rgb(251, 251, 251); text-decoration-thickness: initial; text-decoration-style: initial; text-decoration-color: initial; float: none; display: inline !important;&quot;&gt;Dados Cliente&lt;/span&gt;" style="text;whiteSpace=wrap;html=1;" parent="1" vertex="1">
          <mxGeometry x="231" y="275" width="110" height="40" as="geometry" />
        </mxCell>
        <mxCell id="ptNEkKENp7iOGep-rB65-27" value="&lt;span style=&quot;color: rgb(0, 0, 0); font-family: Helvetica; font-size: 12px; font-style: normal; font-variant-ligatures: normal; font-variant-caps: normal; font-weight: 400; letter-spacing: normal; orphans: 2; text-align: center; text-indent: 0px; text-transform: none; widows: 2; word-spacing: 0px; -webkit-text-stroke-width: 0px; background-color: rgb(251, 251, 251); text-decoration-thickness: initial; text-decoration-style: initial; text-decoration-color: initial; float: none; display: inline !important;&quot;&gt;Dados Cliente&lt;/span&gt;" style="text;whiteSpace=wrap;html=1;" parent="1" vertex="1">
          <mxGeometry x="231" y="365" width="110" height="40" as="geometry" />
        </mxCell>
        <mxCell id="ptNEkKENp7iOGep-rB65-28" value="Dados Cliente" style="text;html=1;align=center;verticalAlign=middle;resizable=0;points=[];autosize=1;strokeColor=none;fillColor=none;" parent="1" vertex="1">
          <mxGeometry x="471" y="135" width="100" height="30" as="geometry" />
        </mxCell>
        <mxCell id="ptNEkKENp7iOGep-rB65-29" value="Dados Cliente" style="text;html=1;align=center;verticalAlign=middle;resizable=0;points=[];autosize=1;strokeColor=none;fillColor=none;" parent="1" vertex="1">
          <mxGeometry x="481" y="235" width="100" height="30" as="geometry" />
        </mxCell>
        <mxCell id="ptNEkKENp7iOGep-rB65-30" value="&lt;span style=&quot;color: rgb(0, 0, 0); font-family: Helvetica; font-size: 12px; font-style: normal; font-variant-ligatures: normal; font-variant-caps: normal; font-weight: 400; letter-spacing: normal; orphans: 2; text-align: center; text-indent: 0px; text-transform: none; widows: 2; word-spacing: 0px; -webkit-text-stroke-width: 0px; background-color: rgb(251, 251, 251); text-decoration-thickness: initial; text-decoration-style: initial; text-decoration-color: initial; float: none; display: inline !important;&quot;&gt;Dados Cliente&lt;/span&gt;" style="text;whiteSpace=wrap;html=1;" parent="1" vertex="1">
          <mxGeometry x="481" y="315" width="110" height="40" as="geometry" />
        </mxCell>
        <mxCell id="ptNEkKENp7iOGep-rB65-31" value="&lt;span style=&quot;color: rgb(0, 0, 0); font-family: Helvetica; font-size: 12px; font-style: normal; font-variant-ligatures: normal; font-variant-caps: normal; font-weight: 400; letter-spacing: normal; orphans: 2; text-align: center; text-indent: 0px; text-transform: none; widows: 2; word-spacing: 0px; -webkit-text-stroke-width: 0px; background-color: rgb(251, 251, 251); text-decoration-thickness: initial; text-decoration-style: initial; text-decoration-color: initial; float: none; display: inline !important;&quot;&gt;Dados Cliente&lt;/span&gt;" style="text;whiteSpace=wrap;html=1;" parent="1" vertex="1">
          <mxGeometry x="481" y="405" width="110" height="40" as="geometry" />
        </mxCell>
        <mxCell id="ptNEkKENp7iOGep-rB65-32" value="Status" style="text;html=1;align=center;verticalAlign=middle;resizable=0;points=[];autosize=1;strokeColor=none;fillColor=none;" parent="1" vertex="1">
          <mxGeometry x="251" y="130" width="60" height="30" as="geometry" />
        </mxCell>
        <mxCell id="ptNEkKENp7iOGep-rB65-33" value="Status" style="text;html=1;align=center;verticalAlign=middle;resizable=0;points=[];autosize=1;strokeColor=none;fillColor=none;" parent="1" vertex="1">
          <mxGeometry x="496" y="90" width="60" height="30" as="geometry" />
        </mxCell>
        <mxCell id="ptNEkKENp7iOGep-rB65-34" value="Status" style="text;html=1;align=center;verticalAlign=middle;resizable=0;points=[];autosize=1;strokeColor=none;fillColor=none;" parent="1" vertex="1">
          <mxGeometry x="496" y="190" width="60" height="30" as="geometry" />
        </mxCell>
        <mxCell id="ptNEkKENp7iOGep-rB65-35" value="Status" style="text;html=1;align=center;verticalAlign=middle;resizable=0;points=[];autosize=1;strokeColor=none;fillColor=none;" parent="1" vertex="1">
          <mxGeometry x="496" y="275" width="60" height="30" as="geometry" />
        </mxCell>
        <mxCell id="ptNEkKENp7iOGep-rB65-36" value="Status" style="text;html=1;align=center;verticalAlign=middle;resizable=0;points=[];autosize=1;strokeColor=none;fillColor=none;" parent="1" vertex="1">
          <mxGeometry x="491" y="365" width="60" height="30" as="geometry" />
        </mxCell>
        <mxCell id="ptNEkKENp7iOGep-rB65-37" value="Status" style="text;html=1;align=center;verticalAlign=middle;resizable=0;points=[];autosize=1;strokeColor=none;fillColor=none;" parent="1" vertex="1">
          <mxGeometry x="241" y="235" width="60" height="30" as="geometry" />
        </mxCell>
        <mxCell id="ptNEkKENp7iOGep-rB65-38" value="Status" style="text;html=1;align=center;verticalAlign=middle;resizable=0;points=[];autosize=1;strokeColor=none;fillColor=none;" parent="1" vertex="1">
          <mxGeometry x="241" y="315" width="60" height="30" as="geometry" />
        </mxCell>
        <mxCell id="ptNEkKENp7iOGep-rB65-39" value="Status" style="text;html=1;align=center;verticalAlign=middle;resizable=0;points=[];autosize=1;strokeColor=none;fillColor=none;" parent="1" vertex="1">
          <mxGeometry x="241" y="410" width="60" height="30" as="geometry" />
        </mxCell>
        <mxCell id="ptNEkKENp7iOGep-rB65-40" value="Clinicas" style="rounded=0;whiteSpace=wrap;html=1;" parent="1" vertex="1">
          <mxGeometry x="121" y="480" width="61" height="60" as="geometry" />
        </mxCell>
        <mxCell id="ptNEkKENp7iOGep-rB65-41" value="Nível 1.2&lt;br&gt;Cadastrar dados Clinicas" style="ellipse;whiteSpace=wrap;html=1;" parent="1" vertex="1">
          <mxGeometry x="361" y="485" width="79" height="80" as="geometry" />
        </mxCell>
        <mxCell id="ptNEkKENp7iOGep-rB65-42" value="Nível 1.2&lt;br style=&quot;border-color: var(--border-color);&quot;&gt;Consultar dados Clinicas" style="ellipse;whiteSpace=wrap;html=1;" parent="1" vertex="1">
          <mxGeometry x="361" y="580" width="79" height="80" as="geometry" />
        </mxCell>
        <mxCell id="ptNEkKENp7iOGep-rB65-43" value="Nível 1.2&lt;br style=&quot;border-color: var(--border-color);&quot;&gt;Alterar dados &lt;br&gt;Clinicas" style="ellipse;whiteSpace=wrap;html=1;" parent="1" vertex="1">
          <mxGeometry x="361" y="670" width="79" height="80" as="geometry" />
        </mxCell>
        <mxCell id="ptNEkKENp7iOGep-rB65-44" value="Nível 1.2&lt;br style=&quot;border-color: var(--border-color);&quot;&gt;Excluir dados &lt;br&gt;Clinicas" style="ellipse;whiteSpace=wrap;html=1;" parent="1" vertex="1">
          <mxGeometry x="361" y="760" width="79" height="80" as="geometry" />
        </mxCell>
        <mxCell id="ptNEkKENp7iOGep-rB65-45" value="" style="endArrow=classic;html=1;rounded=0;exitX=1;exitY=0.5;exitDx=0;exitDy=0;entryX=0.034;entryY=0.344;entryDx=0;entryDy=0;entryPerimeter=0;" parent="1" source="ptNEkKENp7iOGep-rB65-40" target="ptNEkKENp7iOGep-rB65-41" edge="1">
          <mxGeometry width="50" height="50" relative="1" as="geometry">
            <mxPoint x="261" y="540" as="sourcePoint" />
            <mxPoint x="311" y="490" as="targetPoint" />
          </mxGeometry>
        </mxCell>
        <mxCell id="ptNEkKENp7iOGep-rB65-46" value="" style="endArrow=classic;html=1;rounded=0;entryX=1;entryY=0.75;entryDx=0;entryDy=0;exitX=0;exitY=0.5;exitDx=0;exitDy=0;" parent="1" target="ptNEkKENp7iOGep-rB65-40" edge="1" source="ptNEkKENp7iOGep-rB65-41">
          <mxGeometry width="50" height="50" relative="1" as="geometry">
            <mxPoint x="351" y="530" as="sourcePoint" />
            <mxPoint x="331" y="520" as="targetPoint" />
          </mxGeometry>
        </mxCell>
        <mxCell id="ptNEkKENp7iOGep-rB65-47" value="" style="endArrow=classic;html=1;rounded=0;exitX=0;exitY=0.5;exitDx=0;exitDy=0;entryX=0.941;entryY=1.024;entryDx=0;entryDy=0;entryPerimeter=0;" parent="1" source="ptNEkKENp7iOGep-rB65-42" target="ptNEkKENp7iOGep-rB65-40" edge="1">
          <mxGeometry width="50" height="50" relative="1" as="geometry">
            <mxPoint x="341" y="620" as="sourcePoint" />
            <mxPoint x="221" y="620" as="targetPoint" />
            <Array as="points">
              <mxPoint x="190" y="620" />
            </Array>
          </mxGeometry>
        </mxCell>
        <mxCell id="ptNEkKENp7iOGep-rB65-48" value="" style="endArrow=classic;html=1;rounded=0;exitX=0.84;exitY=1.027;exitDx=0;exitDy=0;exitPerimeter=0;entryX=0.006;entryY=0.617;entryDx=0;entryDy=0;entryPerimeter=0;" parent="1" edge="1">
          <mxGeometry width="50" height="50" relative="1" as="geometry">
            <mxPoint x="173.24" y="541.62" as="sourcePoint" />
            <mxPoint x="362.47399999999993" y="629.3600000000001" as="targetPoint" />
            <Array as="points">
              <mxPoint x="181" y="629" />
            </Array>
          </mxGeometry>
        </mxCell>
        <mxCell id="ptNEkKENp7iOGep-rB65-49" value="" style="endArrow=classic;html=1;rounded=0;exitX=0.572;exitY=1.047;exitDx=0;exitDy=0;exitPerimeter=0;entryX=0;entryY=0.5;entryDx=0;entryDy=0;" parent="1" source="ptNEkKENp7iOGep-rB65-40" target="ptNEkKENp7iOGep-rB65-43" edge="1">
          <mxGeometry width="50" height="50" relative="1" as="geometry">
            <mxPoint x="222" y="562" as="sourcePoint" />
            <mxPoint x="362" y="639" as="targetPoint" />
            <Array as="points">
              <mxPoint x="160" y="710" />
            </Array>
          </mxGeometry>
        </mxCell>
        <mxCell id="ptNEkKENp7iOGep-rB65-50" value="" style="endArrow=classic;html=1;rounded=0;entryX=0.691;entryY=0.98;entryDx=0;entryDy=0;exitX=0.01;exitY=0.385;exitDx=0;exitDy=0;exitPerimeter=0;entryPerimeter=0;" parent="1" source="ptNEkKENp7iOGep-rB65-43" target="ptNEkKENp7iOGep-rB65-40" edge="1">
          <mxGeometry width="50" height="50" relative="1" as="geometry">
            <mxPoint x="361" y="630" as="sourcePoint" />
            <mxPoint x="234" y="561" as="targetPoint" />
            <Array as="points">
              <mxPoint x="170" y="700" />
            </Array>
          </mxGeometry>
        </mxCell>
        <mxCell id="ptNEkKENp7iOGep-rB65-51" value="" style="endArrow=classic;html=1;rounded=0;entryX=0.375;entryY=0.993;entryDx=0;entryDy=0;entryPerimeter=0;exitX=0;exitY=0.375;exitDx=0;exitDy=0;exitPerimeter=0;" parent="1" source="ptNEkKENp7iOGep-rB65-44" target="ptNEkKENp7iOGep-rB65-40" edge="1">
          <mxGeometry width="50" height="50" relative="1" as="geometry">
            <mxPoint x="362" y="711" as="sourcePoint" />
            <mxPoint x="201" y="563" as="targetPoint" />
            <Array as="points">
              <mxPoint x="150" y="790" />
            </Array>
          </mxGeometry>
        </mxCell>
        <mxCell id="ptNEkKENp7iOGep-rB65-52" value="" style="endArrow=classic;html=1;rounded=0;exitX=0.25;exitY=1;exitDx=0;exitDy=0;entryX=0;entryY=0.5;entryDx=0;entryDy=0;" parent="1" source="ptNEkKENp7iOGep-rB65-40" target="ptNEkKENp7iOGep-rB65-44" edge="1">
          <mxGeometry width="50" height="50" relative="1" as="geometry">
            <mxPoint x="190" y="563" as="sourcePoint" />
            <mxPoint x="361" y="720" as="targetPoint" />
            <Array as="points">
              <mxPoint x="141" y="800" />
            </Array>
          </mxGeometry>
        </mxCell>
        <mxCell id="ptNEkKENp7iOGep-rB65-53" value="" style="endArrow=classic;html=1;rounded=0;entryX=0.996;entryY=0.401;entryDx=0;entryDy=0;entryPerimeter=0;exitX=0.002;exitY=0.478;exitDx=0;exitDy=0;exitPerimeter=0;" parent="1" target="ptNEkKENp7iOGep-rB65-41" edge="1">
          <mxGeometry width="50" height="50" relative="1" as="geometry">
            <mxPoint x="641" y="519" as="sourcePoint" />
            <mxPoint x="601" y="490" as="targetPoint" />
          </mxGeometry>
        </mxCell>
        <mxCell id="ptNEkKENp7iOGep-rB65-54" value="" style="endArrow=classic;html=1;rounded=0;exitX=1.005;exitY=0.564;exitDx=0;exitDy=0;exitPerimeter=0;entryX=0;entryY=0.667;entryDx=0;entryDy=0;entryPerimeter=0;" parent="1" source="ptNEkKENp7iOGep-rB65-41" edge="1">
          <mxGeometry width="50" height="50" relative="1" as="geometry">
            <mxPoint x="551" y="580" as="sourcePoint" />
            <mxPoint x="641" y="530" as="targetPoint" />
          </mxGeometry>
        </mxCell>
        <mxCell id="ptNEkKENp7iOGep-rB65-55" value="" style="endArrow=classic;html=1;rounded=0;exitX=0.076;exitY=1.001;exitDx=0;exitDy=0;exitPerimeter=0;entryX=1;entryY=0.5;entryDx=0;entryDy=0;" parent="1" target="ptNEkKENp7iOGep-rB65-42" edge="1">
          <mxGeometry width="50" height="50" relative="1" as="geometry">
            <mxPoint x="650" y="550" as="sourcePoint" />
            <mxPoint x="711" y="590" as="targetPoint" />
            <Array as="points">
              <mxPoint x="651" y="620" />
            </Array>
          </mxGeometry>
        </mxCell>
        <mxCell id="ptNEkKENp7iOGep-rB65-56" value="" style="endArrow=classic;html=1;rounded=0;entryX=0.159;entryY=0.989;entryDx=0;entryDy=0;entryPerimeter=0;" parent="1" edge="1">
          <mxGeometry width="50" height="50" relative="1" as="geometry">
            <mxPoint x="471" y="630" as="sourcePoint" />
            <mxPoint x="660" y="549" as="targetPoint" />
            <Array as="points">
              <mxPoint x="661" y="630" />
            </Array>
          </mxGeometry>
        </mxCell>
        <mxCell id="ptNEkKENp7iOGep-rB65-57" value="" style="endArrow=classic;html=1;rounded=0;exitX=0.302;exitY=1.048;exitDx=0;exitDy=0;exitPerimeter=0;entryX=0.977;entryY=0.375;entryDx=0;entryDy=0;entryPerimeter=0;" parent="1" target="ptNEkKENp7iOGep-rB65-43" edge="1">
          <mxGeometry width="50" height="50" relative="1" as="geometry">
            <mxPoint x="677" y="553" as="sourcePoint" />
            <mxPoint x="481" y="630" as="targetPoint" />
            <Array as="points">
              <mxPoint x="679" y="700" />
            </Array>
          </mxGeometry>
        </mxCell>
        <mxCell id="ptNEkKENp7iOGep-rB65-58" value="" style="endArrow=classic;html=1;rounded=0;entryX=0.397;entryY=1.003;entryDx=0;entryDy=0;exitX=1;exitY=0.5;exitDx=0;exitDy=0;entryPerimeter=0;" parent="1" source="ptNEkKENp7iOGep-rB65-43" edge="1">
          <mxGeometry width="50" height="50" relative="1" as="geometry">
            <mxPoint x="481" y="640" as="sourcePoint" />
            <mxPoint x="689" y="550" as="targetPoint" />
            <Array as="points">
              <mxPoint x="691" y="710" />
            </Array>
          </mxGeometry>
        </mxCell>
        <mxCell id="ptNEkKENp7iOGep-rB65-59" value="" style="endArrow=classic;html=1;rounded=0;entryX=0.75;entryY=1;entryDx=0;entryDy=0;exitX=1;exitY=0.5;exitDx=0;exitDy=0;" parent="1" source="ptNEkKENp7iOGep-rB65-44" edge="1">
          <mxGeometry width="50" height="50" relative="1" as="geometry">
            <mxPoint x="481" y="720" as="sourcePoint" />
            <mxPoint x="731" y="550" as="targetPoint" />
            <Array as="points">
              <mxPoint x="731" y="800" />
            </Array>
          </mxGeometry>
        </mxCell>
        <mxCell id="ptNEkKENp7iOGep-rB65-60" value="" style="endArrow=classic;html=1;rounded=0;exitX=0.65;exitY=1.05;exitDx=0;exitDy=0;exitPerimeter=0;entryX=0.98;entryY=0.366;entryDx=0;entryDy=0;entryPerimeter=0;" parent="1" target="ptNEkKENp7iOGep-rB65-44" edge="1">
          <mxGeometry width="50" height="50" relative="1" as="geometry">
            <mxPoint x="719" y="553" as="sourcePoint" />
            <mxPoint x="481" y="710" as="targetPoint" />
            <Array as="points">
              <mxPoint x="719" y="790" />
            </Array>
          </mxGeometry>
        </mxCell>
        <mxCell id="ptNEkKENp7iOGep-rB65-61" value="Dados Clinicas" style="text;html=1;align=center;verticalAlign=middle;resizable=0;points=[];autosize=1;strokeColor=none;fillColor=none;" parent="1" vertex="1">
          <mxGeometry x="241" y="485" width="100" height="30" as="geometry" />
        </mxCell>
        <mxCell id="ptNEkKENp7iOGep-rB65-62" value="Dados Clinicas" style="text;html=1;align=center;verticalAlign=middle;resizable=0;points=[];autosize=1;strokeColor=none;fillColor=none;" parent="1" vertex="1">
          <mxGeometry x="231" y="585" width="100" height="30" as="geometry" />
        </mxCell>
        <mxCell id="ptNEkKENp7iOGep-rB65-63" value="&lt;span style=&quot;color: rgb(0, 0, 0); font-family: Helvetica; font-size: 12px; font-style: normal; font-variant-ligatures: normal; font-variant-caps: normal; font-weight: 400; letter-spacing: normal; orphans: 2; text-align: center; text-indent: 0px; text-transform: none; widows: 2; word-spacing: 0px; -webkit-text-stroke-width: 0px; background-color: rgb(251, 251, 251); text-decoration-thickness: initial; text-decoration-style: initial; text-decoration-color: initial; float: none; display: inline !important;&quot;&gt;Dados Clinicas&lt;/span&gt;" style="text;whiteSpace=wrap;html=1;" parent="1" vertex="1">
          <mxGeometry x="241" y="670" width="110" height="40" as="geometry" />
        </mxCell>
        <mxCell id="ptNEkKENp7iOGep-rB65-64" value="&lt;span style=&quot;color: rgb(0, 0, 0); font-family: Helvetica; font-size: 12px; font-style: normal; font-variant-ligatures: normal; font-variant-caps: normal; font-weight: 400; letter-spacing: normal; orphans: 2; text-align: center; text-indent: 0px; text-transform: none; widows: 2; word-spacing: 0px; -webkit-text-stroke-width: 0px; background-color: rgb(251, 251, 251); text-decoration-thickness: initial; text-decoration-style: initial; text-decoration-color: initial; float: none; display: inline !important;&quot;&gt;Dados Clinicas&lt;/span&gt;" style="text;whiteSpace=wrap;html=1;" parent="1" vertex="1">
          <mxGeometry x="241" y="760" width="110" height="40" as="geometry" />
        </mxCell>
        <mxCell id="ptNEkKENp7iOGep-rB65-65" value="Dados Clinicas" style="text;html=1;align=center;verticalAlign=middle;resizable=0;points=[];autosize=1;strokeColor=none;fillColor=none;" parent="1" vertex="1">
          <mxGeometry x="481" y="530" width="100" height="30" as="geometry" />
        </mxCell>
        <mxCell id="ptNEkKENp7iOGep-rB65-66" value="Dados Clinicas" style="text;html=1;align=center;verticalAlign=middle;resizable=0;points=[];autosize=1;strokeColor=none;fillColor=none;" parent="1" vertex="1">
          <mxGeometry x="491" y="630" width="100" height="30" as="geometry" />
        </mxCell>
        <mxCell id="ptNEkKENp7iOGep-rB65-67" value="&lt;span style=&quot;color: rgb(0, 0, 0); font-family: Helvetica; font-size: 12px; font-style: normal; font-variant-ligatures: normal; font-variant-caps: normal; font-weight: 400; letter-spacing: normal; orphans: 2; text-align: center; text-indent: 0px; text-transform: none; widows: 2; word-spacing: 0px; -webkit-text-stroke-width: 0px; background-color: rgb(251, 251, 251); text-decoration-thickness: initial; text-decoration-style: initial; text-decoration-color: initial; float: none; display: inline !important;&quot;&gt;Dados Clinicas&lt;/span&gt;" style="text;whiteSpace=wrap;html=1;" parent="1" vertex="1">
          <mxGeometry x="491" y="710" width="110" height="40" as="geometry" />
        </mxCell>
        <mxCell id="ptNEkKENp7iOGep-rB65-68" value="&lt;span style=&quot;color: rgb(0, 0, 0); font-family: Helvetica; font-size: 12px; font-style: normal; font-variant-ligatures: normal; font-variant-caps: normal; font-weight: 400; letter-spacing: normal; orphans: 2; text-align: center; text-indent: 0px; text-transform: none; widows: 2; word-spacing: 0px; -webkit-text-stroke-width: 0px; background-color: rgb(251, 251, 251); text-decoration-thickness: initial; text-decoration-style: initial; text-decoration-color: initial; float: none; display: inline !important;&quot;&gt;Dados Clinicas&lt;/span&gt;" style="text;whiteSpace=wrap;html=1;" parent="1" vertex="1">
          <mxGeometry x="491" y="800" width="110" height="40" as="geometry" />
        </mxCell>
        <mxCell id="ptNEkKENp7iOGep-rB65-69" value="Status" style="text;html=1;align=center;verticalAlign=middle;resizable=0;points=[];autosize=1;strokeColor=none;fillColor=none;" parent="1" vertex="1">
          <mxGeometry x="261" y="525" width="60" height="30" as="geometry" />
        </mxCell>
        <mxCell id="ptNEkKENp7iOGep-rB65-70" value="Status" style="text;html=1;align=center;verticalAlign=middle;resizable=0;points=[];autosize=1;strokeColor=none;fillColor=none;" parent="1" vertex="1">
          <mxGeometry x="506" y="485" width="60" height="30" as="geometry" />
        </mxCell>
        <mxCell id="ptNEkKENp7iOGep-rB65-71" value="Status" style="text;html=1;align=center;verticalAlign=middle;resizable=0;points=[];autosize=1;strokeColor=none;fillColor=none;" parent="1" vertex="1">
          <mxGeometry x="506" y="585" width="60" height="30" as="geometry" />
        </mxCell>
        <mxCell id="ptNEkKENp7iOGep-rB65-72" value="Status" style="text;html=1;align=center;verticalAlign=middle;resizable=0;points=[];autosize=1;strokeColor=none;fillColor=none;" parent="1" vertex="1">
          <mxGeometry x="506" y="670" width="60" height="30" as="geometry" />
        </mxCell>
        <mxCell id="ptNEkKENp7iOGep-rB65-73" value="Status" style="text;html=1;align=center;verticalAlign=middle;resizable=0;points=[];autosize=1;strokeColor=none;fillColor=none;" parent="1" vertex="1">
          <mxGeometry x="501" y="760" width="60" height="30" as="geometry" />
        </mxCell>
        <mxCell id="ptNEkKENp7iOGep-rB65-74" value="Status" style="text;html=1;align=center;verticalAlign=middle;resizable=0;points=[];autosize=1;strokeColor=none;fillColor=none;" parent="1" vertex="1">
          <mxGeometry x="251" y="630" width="60" height="30" as="geometry" />
        </mxCell>
        <mxCell id="ptNEkKENp7iOGep-rB65-75" value="Status" style="text;html=1;align=center;verticalAlign=middle;resizable=0;points=[];autosize=1;strokeColor=none;fillColor=none;" parent="1" vertex="1">
          <mxGeometry x="251" y="710" width="60" height="30" as="geometry" />
        </mxCell>
        <mxCell id="ptNEkKENp7iOGep-rB65-76" value="Status" style="text;html=1;align=center;verticalAlign=middle;resizable=0;points=[];autosize=1;strokeColor=none;fillColor=none;" parent="1" vertex="1">
          <mxGeometry x="251" y="805" width="60" height="30" as="geometry" />
        </mxCell>
        <mxCell id="ptNEkKENp7iOGep-rB65-77" value="Funcionários" style="rounded=0;whiteSpace=wrap;html=1;" parent="1" vertex="1">
          <mxGeometry x="130" y="885" width="61" height="60" as="geometry" />
        </mxCell>
        <mxCell id="ptNEkKENp7iOGep-rB65-78" value="Nível 1.3&lt;br&gt;Cadastrar dados Funcionários" style="ellipse;whiteSpace=wrap;html=1;" parent="1" vertex="1">
          <mxGeometry x="371" y="880" width="79" height="80" as="geometry" />
        </mxCell>
        <mxCell id="ptNEkKENp7iOGep-rB65-79" value="Nível 1.3&lt;br style=&quot;border-color: var(--border-color);&quot;&gt;Consultar dados Funcionários" style="ellipse;whiteSpace=wrap;html=1;" parent="1" vertex="1">
          <mxGeometry x="370" y="970" width="79" height="80" as="geometry" />
        </mxCell>
        <mxCell id="ptNEkKENp7iOGep-rB65-80" value="Nível 1.3&lt;br style=&quot;border-color: var(--border-color);&quot;&gt;Alterar dados &lt;br&gt;Funcionários" style="ellipse;whiteSpace=wrap;html=1;" parent="1" vertex="1">
          <mxGeometry x="376.5" y="1060" width="79" height="80" as="geometry" />
        </mxCell>
        <mxCell id="ptNEkKENp7iOGep-rB65-81" value="Nível 1.3&lt;br style=&quot;border-color: var(--border-color);&quot;&gt;Excluir dados Funcionários" style="ellipse;whiteSpace=wrap;html=1;" parent="1" vertex="1">
          <mxGeometry x="376.5" y="1150" width="79" height="80" as="geometry" />
        </mxCell>
        <mxCell id="ptNEkKENp7iOGep-rB65-82" value="" style="endArrow=classic;html=1;rounded=0;exitX=1.033;exitY=0.338;exitDx=0;exitDy=0;entryX=0.018;entryY=0.323;entryDx=0;entryDy=0;entryPerimeter=0;exitPerimeter=0;" parent="1" source="ptNEkKENp7iOGep-rB65-77" target="ptNEkKENp7iOGep-rB65-78" edge="1">
          <mxGeometry width="50" height="50" relative="1" as="geometry">
            <mxPoint x="271" y="930" as="sourcePoint" />
            <mxPoint x="321" y="880" as="targetPoint" />
          </mxGeometry>
        </mxCell>
        <mxCell id="ptNEkKENp7iOGep-rB65-83" value="" style="endArrow=classic;html=1;rounded=0;entryX=1.014;entryY=0.59;entryDx=0;entryDy=0;entryPerimeter=0;exitX=0;exitY=0.5;exitDx=0;exitDy=0;" parent="1" target="ptNEkKENp7iOGep-rB65-77" edge="1" source="ptNEkKENp7iOGep-rB65-78">
          <mxGeometry width="50" height="50" relative="1" as="geometry">
            <mxPoint x="361" y="920" as="sourcePoint" />
            <mxPoint x="341" y="910" as="targetPoint" />
          </mxGeometry>
        </mxCell>
        <mxCell id="ptNEkKENp7iOGep-rB65-84" value="" style="endArrow=classic;html=1;rounded=0;exitX=0;exitY=0.5;exitDx=0;exitDy=0;entryX=0.941;entryY=1.024;entryDx=0;entryDy=0;entryPerimeter=0;" parent="1" source="ptNEkKENp7iOGep-rB65-79" target="ptNEkKENp7iOGep-rB65-77" edge="1">
          <mxGeometry width="50" height="50" relative="1" as="geometry">
            <mxPoint x="351" y="1010" as="sourcePoint" />
            <mxPoint x="231" y="1010" as="targetPoint" />
            <Array as="points">
              <mxPoint x="200" y="1010" />
            </Array>
          </mxGeometry>
        </mxCell>
        <mxCell id="ptNEkKENp7iOGep-rB65-85" value="" style="endArrow=classic;html=1;rounded=0;exitX=0.84;exitY=1.027;exitDx=0;exitDy=0;exitPerimeter=0;entryX=0.006;entryY=0.617;entryDx=0;entryDy=0;entryPerimeter=0;" parent="1" source="ptNEkKENp7iOGep-rB65-77" target="ptNEkKENp7iOGep-rB65-79" edge="1">
          <mxGeometry width="50" height="50" relative="1" as="geometry">
            <mxPoint x="231" y="1070" as="sourcePoint" />
            <mxPoint x="281" y="1020" as="targetPoint" />
            <Array as="points">
              <mxPoint x="190" y="1019" />
            </Array>
          </mxGeometry>
        </mxCell>
        <mxCell id="ptNEkKENp7iOGep-rB65-86" value="" style="endArrow=classic;html=1;rounded=0;exitX=0.572;exitY=1.047;exitDx=0;exitDy=0;exitPerimeter=0;entryX=0;entryY=0.5;entryDx=0;entryDy=0;" parent="1" source="ptNEkKENp7iOGep-rB65-77" target="ptNEkKENp7iOGep-rB65-80" edge="1">
          <mxGeometry width="50" height="50" relative="1" as="geometry">
            <mxPoint x="232" y="952" as="sourcePoint" />
            <mxPoint x="372" y="1029" as="targetPoint" />
            <Array as="points">
              <mxPoint x="170" y="1100" />
            </Array>
          </mxGeometry>
        </mxCell>
        <mxCell id="ptNEkKENp7iOGep-rB65-87" value="" style="endArrow=classic;html=1;rounded=0;entryX=0.686;entryY=1.029;entryDx=0;entryDy=0;entryPerimeter=0;exitX=0.01;exitY=0.385;exitDx=0;exitDy=0;exitPerimeter=0;" parent="1" source="ptNEkKENp7iOGep-rB65-80" target="ptNEkKENp7iOGep-rB65-77" edge="1">
          <mxGeometry width="50" height="50" relative="1" as="geometry">
            <mxPoint x="371" y="1020" as="sourcePoint" />
            <mxPoint x="244" y="951" as="targetPoint" />
            <Array as="points">
              <mxPoint x="180" y="1090" />
            </Array>
          </mxGeometry>
        </mxCell>
        <mxCell id="ptNEkKENp7iOGep-rB65-88" value="" style="endArrow=classic;html=1;rounded=0;entryX=0.25;entryY=1;entryDx=0;entryDy=0;exitX=0;exitY=0.375;exitDx=0;exitDy=0;exitPerimeter=0;" parent="1" source="ptNEkKENp7iOGep-rB65-81" target="ptNEkKENp7iOGep-rB65-77" edge="1">
          <mxGeometry width="50" height="50" relative="1" as="geometry">
            <mxPoint x="372" y="1101" as="sourcePoint" />
            <mxPoint x="211" y="953" as="targetPoint" />
            <Array as="points">
              <mxPoint x="150" y="1180" />
            </Array>
          </mxGeometry>
        </mxCell>
        <mxCell id="ptNEkKENp7iOGep-rB65-89" value="" style="endArrow=classic;html=1;rounded=0;exitX=0.087;exitY=1.029;exitDx=0;exitDy=0;entryX=0;entryY=0.5;entryDx=0;entryDy=0;exitPerimeter=0;" parent="1" source="ptNEkKENp7iOGep-rB65-77" target="ptNEkKENp7iOGep-rB65-81" edge="1">
          <mxGeometry width="50" height="50" relative="1" as="geometry">
            <mxPoint x="200" y="953" as="sourcePoint" />
            <mxPoint x="371" y="1110" as="targetPoint" />
            <Array as="points">
              <mxPoint x="140" y="1190" />
            </Array>
          </mxGeometry>
        </mxCell>
        <mxCell id="ptNEkKENp7iOGep-rB65-90" value="" style="endArrow=classic;html=1;rounded=0;entryX=0.98;entryY=0.345;entryDx=0;entryDy=0;entryPerimeter=0;exitX=0.002;exitY=0.478;exitDx=0;exitDy=0;exitPerimeter=0;" parent="1" target="ptNEkKENp7iOGep-rB65-78" edge="1">
          <mxGeometry width="50" height="50" relative="1" as="geometry">
            <mxPoint x="651" y="909" as="sourcePoint" />
            <mxPoint x="611" y="880" as="targetPoint" />
          </mxGeometry>
        </mxCell>
        <mxCell id="ptNEkKENp7iOGep-rB65-91" value="" style="endArrow=classic;html=1;rounded=0;exitX=1;exitY=0.5;exitDx=0;exitDy=0;entryX=0;entryY=0.667;entryDx=0;entryDy=0;entryPerimeter=0;" parent="1" source="ptNEkKENp7iOGep-rB65-78" edge="1">
          <mxGeometry width="50" height="50" relative="1" as="geometry">
            <mxPoint x="561" y="970" as="sourcePoint" />
            <mxPoint x="651" y="920" as="targetPoint" />
          </mxGeometry>
        </mxCell>
        <mxCell id="ptNEkKENp7iOGep-rB65-92" value="" style="endArrow=classic;html=1;rounded=0;exitX=0.076;exitY=1.001;exitDx=0;exitDy=0;exitPerimeter=0;entryX=1;entryY=0.5;entryDx=0;entryDy=0;" parent="1" target="ptNEkKENp7iOGep-rB65-79" edge="1">
          <mxGeometry width="50" height="50" relative="1" as="geometry">
            <mxPoint x="660" y="940" as="sourcePoint" />
            <mxPoint x="721" y="980" as="targetPoint" />
            <Array as="points">
              <mxPoint x="661" y="1010" />
            </Array>
          </mxGeometry>
        </mxCell>
        <mxCell id="ptNEkKENp7iOGep-rB65-93" value="" style="endArrow=classic;html=1;rounded=0;entryX=0.159;entryY=0.989;entryDx=0;entryDy=0;entryPerimeter=0;" parent="1" edge="1">
          <mxGeometry width="50" height="50" relative="1" as="geometry">
            <mxPoint x="481" y="1020" as="sourcePoint" />
            <mxPoint x="670" y="939" as="targetPoint" />
            <Array as="points">
              <mxPoint x="671" y="1020" />
            </Array>
          </mxGeometry>
        </mxCell>
        <mxCell id="ptNEkKENp7iOGep-rB65-94" value="" style="endArrow=classic;html=1;rounded=0;exitX=0.302;exitY=1.048;exitDx=0;exitDy=0;exitPerimeter=0;entryX=0.977;entryY=0.375;entryDx=0;entryDy=0;entryPerimeter=0;" parent="1" target="ptNEkKENp7iOGep-rB65-80" edge="1">
          <mxGeometry width="50" height="50" relative="1" as="geometry">
            <mxPoint x="687" y="943" as="sourcePoint" />
            <mxPoint x="491" y="1020" as="targetPoint" />
            <Array as="points">
              <mxPoint x="689" y="1090" />
            </Array>
          </mxGeometry>
        </mxCell>
        <mxCell id="ptNEkKENp7iOGep-rB65-95" value="" style="endArrow=classic;html=1;rounded=0;entryX=0.397;entryY=1.003;entryDx=0;entryDy=0;exitX=1;exitY=0.5;exitDx=0;exitDy=0;entryPerimeter=0;" parent="1" source="ptNEkKENp7iOGep-rB65-80" edge="1">
          <mxGeometry width="50" height="50" relative="1" as="geometry">
            <mxPoint x="491" y="1030" as="sourcePoint" />
            <mxPoint x="699" y="940" as="targetPoint" />
            <Array as="points">
              <mxPoint x="701" y="1100" />
            </Array>
          </mxGeometry>
        </mxCell>
        <mxCell id="ptNEkKENp7iOGep-rB65-96" value="" style="endArrow=classic;html=1;rounded=0;entryX=0.75;entryY=1;entryDx=0;entryDy=0;exitX=1;exitY=0.5;exitDx=0;exitDy=0;" parent="1" source="ptNEkKENp7iOGep-rB65-81" edge="1">
          <mxGeometry width="50" height="50" relative="1" as="geometry">
            <mxPoint x="491" y="1110" as="sourcePoint" />
            <mxPoint x="741" y="940" as="targetPoint" />
            <Array as="points">
              <mxPoint x="741" y="1190" />
            </Array>
          </mxGeometry>
        </mxCell>
        <mxCell id="ptNEkKENp7iOGep-rB65-97" value="" style="endArrow=classic;html=1;rounded=0;exitX=0.65;exitY=1.05;exitDx=0;exitDy=0;exitPerimeter=0;entryX=0.98;entryY=0.366;entryDx=0;entryDy=0;entryPerimeter=0;" parent="1" target="ptNEkKENp7iOGep-rB65-81" edge="1">
          <mxGeometry width="50" height="50" relative="1" as="geometry">
            <mxPoint x="729" y="943" as="sourcePoint" />
            <mxPoint x="491" y="1100" as="targetPoint" />
            <Array as="points">
              <mxPoint x="729" y="1180" />
            </Array>
          </mxGeometry>
        </mxCell>
        <mxCell id="ptNEkKENp7iOGep-rB65-98" value="Dados Funcionários" style="text;html=1;align=center;verticalAlign=middle;resizable=0;points=[];autosize=1;strokeColor=none;fillColor=none;" parent="1" vertex="1">
          <mxGeometry x="236" y="875" width="130" height="30" as="geometry" />
        </mxCell>
        <mxCell id="ptNEkKENp7iOGep-rB65-99" value="Dados&amp;nbsp;Funcionários" style="text;html=1;align=center;verticalAlign=middle;resizable=0;points=[];autosize=1;strokeColor=none;fillColor=none;" parent="1" vertex="1">
          <mxGeometry x="226" y="975" width="130" height="30" as="geometry" />
        </mxCell>
        <mxCell id="ptNEkKENp7iOGep-rB65-100" value="&lt;span style=&quot;color: rgb(0, 0, 0); font-family: Helvetica; font-size: 12px; font-style: normal; font-variant-ligatures: normal; font-variant-caps: normal; font-weight: 400; letter-spacing: normal; orphans: 2; text-align: center; text-indent: 0px; text-transform: none; widows: 2; word-spacing: 0px; -webkit-text-stroke-width: 0px; background-color: rgb(251, 251, 251); text-decoration-thickness: initial; text-decoration-style: initial; text-decoration-color: initial; float: none; display: inline !important;&quot;&gt;Dados&amp;nbsp;&lt;/span&gt;Funcionários" style="text;whiteSpace=wrap;html=1;" parent="1" vertex="1">
          <mxGeometry x="251" y="1060" width="110" height="40" as="geometry" />
        </mxCell>
        <mxCell id="ptNEkKENp7iOGep-rB65-101" value="&lt;span style=&quot;color: rgb(0, 0, 0); font-family: Helvetica; font-size: 12px; font-style: normal; font-variant-ligatures: normal; font-variant-caps: normal; font-weight: 400; letter-spacing: normal; orphans: 2; text-align: center; text-indent: 0px; text-transform: none; widows: 2; word-spacing: 0px; -webkit-text-stroke-width: 0px; background-color: rgb(251, 251, 251); text-decoration-thickness: initial; text-decoration-style: initial; text-decoration-color: initial; float: none; display: inline !important;&quot;&gt;Dados &lt;/span&gt;Funcionários" style="text;whiteSpace=wrap;html=1;" parent="1" vertex="1">
          <mxGeometry x="251" y="1150" width="110" height="40" as="geometry" />
        </mxCell>
        <mxCell id="ptNEkKENp7iOGep-rB65-102" value="Dados&amp;nbsp;Funcionários" style="text;html=1;align=center;verticalAlign=middle;resizable=0;points=[];autosize=1;strokeColor=none;fillColor=none;" parent="1" vertex="1">
          <mxGeometry x="476" y="920" width="130" height="30" as="geometry" />
        </mxCell>
        <mxCell id="ptNEkKENp7iOGep-rB65-103" value="Dados&amp;nbsp;Funcionários" style="text;html=1;align=center;verticalAlign=middle;resizable=0;points=[];autosize=1;strokeColor=none;fillColor=none;" parent="1" vertex="1">
          <mxGeometry x="486" y="1020" width="130" height="30" as="geometry" />
        </mxCell>
        <mxCell id="ptNEkKENp7iOGep-rB65-104" value="&lt;span style=&quot;color: rgb(0, 0, 0); font-family: Helvetica; font-size: 12px; font-style: normal; font-variant-ligatures: normal; font-variant-caps: normal; font-weight: 400; letter-spacing: normal; orphans: 2; text-align: center; text-indent: 0px; text-transform: none; widows: 2; word-spacing: 0px; -webkit-text-stroke-width: 0px; background-color: rgb(251, 251, 251); text-decoration-thickness: initial; text-decoration-style: initial; text-decoration-color: initial; float: none; display: inline !important;&quot;&gt;Dados&amp;nbsp;&lt;/span&gt;Funcionários" style="text;whiteSpace=wrap;html=1;" parent="1" vertex="1">
          <mxGeometry x="501" y="1100" width="110" height="40" as="geometry" />
        </mxCell>
        <mxCell id="ptNEkKENp7iOGep-rB65-105" value="&lt;span style=&quot;color: rgb(0, 0, 0); font-family: Helvetica; font-size: 12px; font-style: normal; font-variant-ligatures: normal; font-variant-caps: normal; font-weight: 400; letter-spacing: normal; orphans: 2; text-align: center; text-indent: 0px; text-transform: none; widows: 2; word-spacing: 0px; -webkit-text-stroke-width: 0px; background-color: rgb(251, 251, 251); text-decoration-thickness: initial; text-decoration-style: initial; text-decoration-color: initial; float: none; display: inline !important;&quot;&gt;Dados&amp;nbsp;&lt;/span&gt;Funcionários" style="text;whiteSpace=wrap;html=1;" parent="1" vertex="1">
          <mxGeometry x="501" y="1190" width="110" height="40" as="geometry" />
        </mxCell>
        <mxCell id="ptNEkKENp7iOGep-rB65-106" value="Status" style="text;html=1;align=center;verticalAlign=middle;resizable=0;points=[];autosize=1;strokeColor=none;fillColor=none;" parent="1" vertex="1">
          <mxGeometry x="271" y="915" width="60" height="30" as="geometry" />
        </mxCell>
        <mxCell id="ptNEkKENp7iOGep-rB65-107" value="Status" style="text;html=1;align=center;verticalAlign=middle;resizable=0;points=[];autosize=1;strokeColor=none;fillColor=none;" parent="1" vertex="1">
          <mxGeometry x="516" y="875" width="60" height="30" as="geometry" />
        </mxCell>
        <mxCell id="ptNEkKENp7iOGep-rB65-108" value="Status" style="text;html=1;align=center;verticalAlign=middle;resizable=0;points=[];autosize=1;strokeColor=none;fillColor=none;" parent="1" vertex="1">
          <mxGeometry x="516" y="975" width="60" height="30" as="geometry" />
        </mxCell>
        <mxCell id="ptNEkKENp7iOGep-rB65-109" value="Status" style="text;html=1;align=center;verticalAlign=middle;resizable=0;points=[];autosize=1;strokeColor=none;fillColor=none;" parent="1" vertex="1">
          <mxGeometry x="516" y="1060" width="60" height="30" as="geometry" />
        </mxCell>
        <mxCell id="ptNEkKENp7iOGep-rB65-110" value="Status" style="text;html=1;align=center;verticalAlign=middle;resizable=0;points=[];autosize=1;strokeColor=none;fillColor=none;" parent="1" vertex="1">
          <mxGeometry x="511" y="1150" width="60" height="30" as="geometry" />
        </mxCell>
        <mxCell id="ptNEkKENp7iOGep-rB65-111" value="Status" style="text;html=1;align=center;verticalAlign=middle;resizable=0;points=[];autosize=1;strokeColor=none;fillColor=none;" parent="1" vertex="1">
          <mxGeometry x="261" y="1020" width="60" height="30" as="geometry" />
        </mxCell>
        <mxCell id="ptNEkKENp7iOGep-rB65-112" value="Status" style="text;html=1;align=center;verticalAlign=middle;resizable=0;points=[];autosize=1;strokeColor=none;fillColor=none;" parent="1" vertex="1">
          <mxGeometry x="261" y="1100" width="60" height="30" as="geometry" />
        </mxCell>
        <mxCell id="ptNEkKENp7iOGep-rB65-113" value="Status" style="text;html=1;align=center;verticalAlign=middle;resizable=0;points=[];autosize=1;strokeColor=none;fillColor=none;" parent="1" vertex="1">
          <mxGeometry x="261" y="1195" width="60" height="30" as="geometry" />
        </mxCell>
        <mxCell id="ptNEkKENp7iOGep-rB65-114" value="Base de Dados Clinicas" style="shape=partialRectangle;whiteSpace=wrap;html=1;left=0;right=0;fillColor=none;" parent="1" vertex="1">
          <mxGeometry x="641" y="490" width="120" height="60" as="geometry" />
        </mxCell>
        <mxCell id="ptNEkKENp7iOGep-rB65-115" value="Base de Dados Funcionários" style="shape=partialRectangle;whiteSpace=wrap;html=1;left=0;right=0;fillColor=none;" parent="1" vertex="1">
          <mxGeometry x="651" y="880" width="120" height="60" as="geometry" />
        </mxCell>
        <mxCell id="ptNEkKENp7iOGep-rB65-116" value="Médicos" style="rounded=0;whiteSpace=wrap;html=1;" parent="1" vertex="1">
          <mxGeometry x="140" y="1290" width="66" height="60" as="geometry" />
        </mxCell>
        <mxCell id="ptNEkKENp7iOGep-rB65-117" value="Nível 1.4&lt;br&gt;Cadastrar dados Médicos" style="ellipse;whiteSpace=wrap;html=1;" parent="1" vertex="1">
          <mxGeometry x="374" y="1285" width="84" height="80" as="geometry" />
        </mxCell>
        <mxCell id="ptNEkKENp7iOGep-rB65-118" value="Nível 1.4&lt;br style=&quot;border-color: var(--border-color);&quot;&gt;Consultar dados Médicos" style="ellipse;whiteSpace=wrap;html=1;" parent="1" vertex="1">
          <mxGeometry x="374" y="1380" width="84" height="80" as="geometry" />
        </mxCell>
        <mxCell id="ptNEkKENp7iOGep-rB65-119" value="Nível 1.4&lt;br style=&quot;border-color: var(--border-color);&quot;&gt;Alterar dados &lt;br&gt;Médicos" style="ellipse;whiteSpace=wrap;html=1;" parent="1" vertex="1">
          <mxGeometry x="376.5" y="1470" width="84" height="80" as="geometry" />
        </mxCell>
        <mxCell id="ptNEkKENp7iOGep-rB65-120" value="Nível 1.4&lt;br style=&quot;border-color: var(--border-color);&quot;&gt;Excluir dados Médicos" style="ellipse;whiteSpace=wrap;html=1;" parent="1" vertex="1">
          <mxGeometry x="383" y="1560" width="84" height="80" as="geometry" />
        </mxCell>
        <mxCell id="ptNEkKENp7iOGep-rB65-121" value="" style="endArrow=classic;html=1;rounded=0;exitX=1;exitY=0.5;exitDx=0;exitDy=0;entryX=0;entryY=0.438;entryDx=0;entryDy=0;entryPerimeter=0;" parent="1" source="ptNEkKENp7iOGep-rB65-116" target="ptNEkKENp7iOGep-rB65-117" edge="1">
          <mxGeometry width="50" height="50" relative="1" as="geometry">
            <mxPoint x="266" y="1340" as="sourcePoint" />
            <mxPoint x="316" y="1290" as="targetPoint" />
          </mxGeometry>
        </mxCell>
        <mxCell id="ptNEkKENp7iOGep-rB65-122" value="" style="endArrow=classic;html=1;rounded=0;entryX=1.017;entryY=0.672;entryDx=0;entryDy=0;entryPerimeter=0;" parent="1" target="ptNEkKENp7iOGep-rB65-116" edge="1">
          <mxGeometry width="50" height="50" relative="1" as="geometry">
            <mxPoint x="356" y="1330" as="sourcePoint" />
            <mxPoint x="336" y="1320" as="targetPoint" />
          </mxGeometry>
        </mxCell>
        <mxCell id="ptNEkKENp7iOGep-rB65-123" value="" style="endArrow=classic;html=1;rounded=0;exitX=0;exitY=0.5;exitDx=0;exitDy=0;entryX=0.855;entryY=1.012;entryDx=0;entryDy=0;entryPerimeter=0;" parent="1" source="ptNEkKENp7iOGep-rB65-118" target="ptNEkKENp7iOGep-rB65-116" edge="1">
          <mxGeometry width="50" height="50" relative="1" as="geometry">
            <mxPoint x="346" y="1420" as="sourcePoint" />
            <mxPoint x="226" y="1420" as="targetPoint" />
            <Array as="points">
              <mxPoint x="200" y="1420" />
            </Array>
          </mxGeometry>
        </mxCell>
        <mxCell id="ptNEkKENp7iOGep-rB65-124" value="" style="endArrow=classic;html=1;rounded=0;exitX=0.69;exitY=1.021;exitDx=0;exitDy=0;exitPerimeter=0;entryX=0.006;entryY=0.617;entryDx=0;entryDy=0;entryPerimeter=0;" parent="1" source="ptNEkKENp7iOGep-rB65-116" target="ptNEkKENp7iOGep-rB65-118" edge="1">
          <mxGeometry width="50" height="50" relative="1" as="geometry">
            <mxPoint x="226" y="1480" as="sourcePoint" />
            <mxPoint x="276" y="1430" as="targetPoint" />
            <Array as="points">
              <mxPoint x="190" y="1429" />
            </Array>
          </mxGeometry>
        </mxCell>
        <mxCell id="ptNEkKENp7iOGep-rB65-125" value="" style="endArrow=classic;html=1;rounded=0;exitX=0.413;exitY=0.983;exitDx=0;exitDy=0;exitPerimeter=0;entryX=0;entryY=0.5;entryDx=0;entryDy=0;" parent="1" source="ptNEkKENp7iOGep-rB65-116" target="ptNEkKENp7iOGep-rB65-119" edge="1">
          <mxGeometry width="50" height="50" relative="1" as="geometry">
            <mxPoint x="227" y="1362" as="sourcePoint" />
            <mxPoint x="367" y="1439" as="targetPoint" />
            <Array as="points">
              <mxPoint x="170" y="1510" />
            </Array>
          </mxGeometry>
        </mxCell>
        <mxCell id="ptNEkKENp7iOGep-rB65-126" value="" style="endArrow=classic;html=1;rounded=0;entryX=0.5;entryY=1;entryDx=0;entryDy=0;exitX=0.01;exitY=0.385;exitDx=0;exitDy=0;exitPerimeter=0;" parent="1" source="ptNEkKENp7iOGep-rB65-119" target="ptNEkKENp7iOGep-rB65-116" edge="1">
          <mxGeometry width="50" height="50" relative="1" as="geometry">
            <mxPoint x="366" y="1430" as="sourcePoint" />
            <mxPoint x="239" y="1361" as="targetPoint" />
            <Array as="points">
              <mxPoint x="180" y="1500" />
            </Array>
          </mxGeometry>
        </mxCell>
        <mxCell id="ptNEkKENp7iOGep-rB65-127" value="" style="endArrow=classic;html=1;rounded=0;entryX=0.197;entryY=1.031;entryDx=0;entryDy=0;entryPerimeter=0;exitX=0;exitY=0.375;exitDx=0;exitDy=0;exitPerimeter=0;" parent="1" source="ptNEkKENp7iOGep-rB65-120" target="ptNEkKENp7iOGep-rB65-116" edge="1">
          <mxGeometry width="50" height="50" relative="1" as="geometry">
            <mxPoint x="367" y="1511" as="sourcePoint" />
            <mxPoint x="206" y="1363" as="targetPoint" />
            <Array as="points">
              <mxPoint x="155" y="1590" />
            </Array>
          </mxGeometry>
        </mxCell>
        <mxCell id="ptNEkKENp7iOGep-rB65-128" value="" style="endArrow=classic;html=1;rounded=0;entryX=0;entryY=0.5;entryDx=0;entryDy=0;exitX=0.084;exitY=1.021;exitDx=0;exitDy=0;exitPerimeter=0;" parent="1" source="ptNEkKENp7iOGep-rB65-116" target="ptNEkKENp7iOGep-rB65-120" edge="1">
          <mxGeometry width="50" height="50" relative="1" as="geometry">
            <mxPoint x="157" y="1350" as="sourcePoint" />
            <mxPoint x="366" y="1520" as="targetPoint" />
            <Array as="points">
              <mxPoint x="146" y="1600" />
            </Array>
          </mxGeometry>
        </mxCell>
        <mxCell id="ptNEkKENp7iOGep-rB65-129" value="" style="endArrow=classic;html=1;rounded=0;entryX=0.994;entryY=0.425;entryDx=0;entryDy=0;entryPerimeter=0;exitX=0.002;exitY=0.478;exitDx=0;exitDy=0;exitPerimeter=0;" parent="1" target="ptNEkKENp7iOGep-rB65-117" edge="1">
          <mxGeometry width="50" height="50" relative="1" as="geometry">
            <mxPoint x="646" y="1319" as="sourcePoint" />
            <mxPoint x="606" y="1290" as="targetPoint" />
          </mxGeometry>
        </mxCell>
        <mxCell id="ptNEkKENp7iOGep-rB65-130" value="" style="endArrow=classic;html=1;rounded=0;exitX=1.005;exitY=0.564;exitDx=0;exitDy=0;exitPerimeter=0;entryX=0;entryY=0.667;entryDx=0;entryDy=0;entryPerimeter=0;" parent="1" source="ptNEkKENp7iOGep-rB65-117" edge="1">
          <mxGeometry width="50" height="50" relative="1" as="geometry">
            <mxPoint x="556" y="1380" as="sourcePoint" />
            <mxPoint x="646" y="1330" as="targetPoint" />
          </mxGeometry>
        </mxCell>
        <mxCell id="ptNEkKENp7iOGep-rB65-131" value="" style="endArrow=classic;html=1;rounded=0;exitX=0.076;exitY=1.001;exitDx=0;exitDy=0;exitPerimeter=0;entryX=1;entryY=0.5;entryDx=0;entryDy=0;" parent="1" target="ptNEkKENp7iOGep-rB65-118" edge="1">
          <mxGeometry width="50" height="50" relative="1" as="geometry">
            <mxPoint x="655" y="1350" as="sourcePoint" />
            <mxPoint x="716" y="1390" as="targetPoint" />
            <Array as="points">
              <mxPoint x="656" y="1420" />
            </Array>
          </mxGeometry>
        </mxCell>
        <mxCell id="ptNEkKENp7iOGep-rB65-132" value="" style="endArrow=classic;html=1;rounded=0;entryX=0.159;entryY=0.989;entryDx=0;entryDy=0;entryPerimeter=0;" parent="1" edge="1">
          <mxGeometry width="50" height="50" relative="1" as="geometry">
            <mxPoint x="476" y="1430" as="sourcePoint" />
            <mxPoint x="665" y="1349" as="targetPoint" />
            <Array as="points">
              <mxPoint x="666" y="1430" />
            </Array>
          </mxGeometry>
        </mxCell>
        <mxCell id="ptNEkKENp7iOGep-rB65-133" value="" style="endArrow=classic;html=1;rounded=0;exitX=0.302;exitY=1.048;exitDx=0;exitDy=0;exitPerimeter=0;entryX=0.977;entryY=0.375;entryDx=0;entryDy=0;entryPerimeter=0;" parent="1" target="ptNEkKENp7iOGep-rB65-119" edge="1">
          <mxGeometry width="50" height="50" relative="1" as="geometry">
            <mxPoint x="682" y="1353" as="sourcePoint" />
            <mxPoint x="486" y="1430" as="targetPoint" />
            <Array as="points">
              <mxPoint x="684" y="1500" />
            </Array>
          </mxGeometry>
        </mxCell>
        <mxCell id="ptNEkKENp7iOGep-rB65-134" value="" style="endArrow=classic;html=1;rounded=0;entryX=0.397;entryY=1.003;entryDx=0;entryDy=0;exitX=1;exitY=0.5;exitDx=0;exitDy=0;entryPerimeter=0;" parent="1" source="ptNEkKENp7iOGep-rB65-119" edge="1">
          <mxGeometry width="50" height="50" relative="1" as="geometry">
            <mxPoint x="486" y="1440" as="sourcePoint" />
            <mxPoint x="694" y="1350" as="targetPoint" />
            <Array as="points">
              <mxPoint x="696" y="1510" />
            </Array>
          </mxGeometry>
        </mxCell>
        <mxCell id="ptNEkKENp7iOGep-rB65-135" value="" style="endArrow=classic;html=1;rounded=0;entryX=0.75;entryY=1;entryDx=0;entryDy=0;exitX=1;exitY=0.5;exitDx=0;exitDy=0;" parent="1" source="ptNEkKENp7iOGep-rB65-120" edge="1">
          <mxGeometry width="50" height="50" relative="1" as="geometry">
            <mxPoint x="486" y="1520" as="sourcePoint" />
            <mxPoint x="736" y="1350" as="targetPoint" />
            <Array as="points">
              <mxPoint x="736" y="1600" />
            </Array>
          </mxGeometry>
        </mxCell>
        <mxCell id="ptNEkKENp7iOGep-rB65-136" value="" style="endArrow=classic;html=1;rounded=0;exitX=0.65;exitY=1.05;exitDx=0;exitDy=0;exitPerimeter=0;entryX=0.98;entryY=0.366;entryDx=0;entryDy=0;entryPerimeter=0;" parent="1" target="ptNEkKENp7iOGep-rB65-120" edge="1">
          <mxGeometry width="50" height="50" relative="1" as="geometry">
            <mxPoint x="724" y="1353" as="sourcePoint" />
            <mxPoint x="486" y="1510" as="targetPoint" />
            <Array as="points">
              <mxPoint x="724" y="1590" />
            </Array>
          </mxGeometry>
        </mxCell>
        <mxCell id="ptNEkKENp7iOGep-rB65-137" value="Dados&amp;nbsp;Médicos" style="text;html=1;align=center;verticalAlign=middle;resizable=0;points=[];autosize=1;strokeColor=none;fillColor=none;" parent="1" vertex="1">
          <mxGeometry x="241" y="1285" width="110" height="30" as="geometry" />
        </mxCell>
        <mxCell id="ptNEkKENp7iOGep-rB65-138" value="Dados&amp;nbsp;Médicos" style="text;html=1;align=center;verticalAlign=middle;resizable=0;points=[];autosize=1;strokeColor=none;fillColor=none;" parent="1" vertex="1">
          <mxGeometry x="231" y="1385" width="110" height="30" as="geometry" />
        </mxCell>
        <mxCell id="ptNEkKENp7iOGep-rB65-139" value="&lt;span style=&quot;color: rgb(0, 0, 0); font-family: Helvetica; font-size: 12px; font-style: normal; font-variant-ligatures: normal; font-variant-caps: normal; font-weight: 400; letter-spacing: normal; orphans: 2; text-align: center; text-indent: 0px; text-transform: none; widows: 2; word-spacing: 0px; -webkit-text-stroke-width: 0px; background-color: rgb(251, 251, 251); text-decoration-thickness: initial; text-decoration-style: initial; text-decoration-color: initial; float: none; display: inline !important;&quot;&gt;Dados&amp;nbsp;&lt;/span&gt;Médicos" style="text;whiteSpace=wrap;html=1;" parent="1" vertex="1">
          <mxGeometry x="246" y="1560" width="110" height="40" as="geometry" />
        </mxCell>
        <mxCell id="ptNEkKENp7iOGep-rB65-140" value="Dados&amp;nbsp;Médicos" style="text;html=1;align=center;verticalAlign=middle;resizable=0;points=[];autosize=1;strokeColor=none;fillColor=none;" parent="1" vertex="1">
          <mxGeometry x="481" y="1330" width="110" height="30" as="geometry" />
        </mxCell>
        <mxCell id="ptNEkKENp7iOGep-rB65-141" value="Dados&amp;nbsp;Médicos" style="text;html=1;align=center;verticalAlign=middle;resizable=0;points=[];autosize=1;strokeColor=none;fillColor=none;" parent="1" vertex="1">
          <mxGeometry x="491" y="1430" width="110" height="30" as="geometry" />
        </mxCell>
        <mxCell id="ptNEkKENp7iOGep-rB65-142" value="&lt;span style=&quot;color: rgb(0, 0, 0); font-family: Helvetica; font-size: 12px; font-style: normal; font-variant-ligatures: normal; font-variant-caps: normal; font-weight: 400; letter-spacing: normal; orphans: 2; text-align: center; text-indent: 0px; text-transform: none; widows: 2; word-spacing: 0px; -webkit-text-stroke-width: 0px; background-color: rgb(251, 251, 251); text-decoration-thickness: initial; text-decoration-style: initial; text-decoration-color: initial; float: none; display: inline !important;&quot;&gt;Dados&amp;nbsp;&lt;/span&gt;Médicos" style="text;whiteSpace=wrap;html=1;" parent="1" vertex="1">
          <mxGeometry x="496" y="1510" width="110" height="40" as="geometry" />
        </mxCell>
        <mxCell id="ptNEkKENp7iOGep-rB65-143" value="&lt;span style=&quot;color: rgb(0, 0, 0); font-family: Helvetica; font-size: 12px; font-style: normal; font-variant-ligatures: normal; font-variant-caps: normal; font-weight: 400; letter-spacing: normal; orphans: 2; text-align: center; text-indent: 0px; text-transform: none; widows: 2; word-spacing: 0px; -webkit-text-stroke-width: 0px; background-color: rgb(251, 251, 251); text-decoration-thickness: initial; text-decoration-style: initial; text-decoration-color: initial; float: none; display: inline !important;&quot;&gt;Dados&amp;nbsp;&lt;/span&gt;Médicos" style="text;whiteSpace=wrap;html=1;" parent="1" vertex="1">
          <mxGeometry x="496" y="1600" width="110" height="40" as="geometry" />
        </mxCell>
        <mxCell id="ptNEkKENp7iOGep-rB65-144" value="Status" style="text;html=1;align=center;verticalAlign=middle;resizable=0;points=[];autosize=1;strokeColor=none;fillColor=none;" parent="1" vertex="1">
          <mxGeometry x="266" y="1325" width="60" height="30" as="geometry" />
        </mxCell>
        <mxCell id="ptNEkKENp7iOGep-rB65-145" value="Status" style="text;html=1;align=center;verticalAlign=middle;resizable=0;points=[];autosize=1;strokeColor=none;fillColor=none;" parent="1" vertex="1">
          <mxGeometry x="511" y="1285" width="60" height="30" as="geometry" />
        </mxCell>
        <mxCell id="ptNEkKENp7iOGep-rB65-146" value="Status" style="text;html=1;align=center;verticalAlign=middle;resizable=0;points=[];autosize=1;strokeColor=none;fillColor=none;" parent="1" vertex="1">
          <mxGeometry x="511" y="1385" width="60" height="30" as="geometry" />
        </mxCell>
        <mxCell id="ptNEkKENp7iOGep-rB65-147" value="Status" style="text;html=1;align=center;verticalAlign=middle;resizable=0;points=[];autosize=1;strokeColor=none;fillColor=none;" parent="1" vertex="1">
          <mxGeometry x="511" y="1470" width="60" height="30" as="geometry" />
        </mxCell>
        <mxCell id="ptNEkKENp7iOGep-rB65-148" value="Status" style="text;html=1;align=center;verticalAlign=middle;resizable=0;points=[];autosize=1;strokeColor=none;fillColor=none;" parent="1" vertex="1">
          <mxGeometry x="506" y="1560" width="60" height="30" as="geometry" />
        </mxCell>
        <mxCell id="ptNEkKENp7iOGep-rB65-149" value="Status" style="text;html=1;align=center;verticalAlign=middle;resizable=0;points=[];autosize=1;strokeColor=none;fillColor=none;" parent="1" vertex="1">
          <mxGeometry x="256" y="1430" width="60" height="30" as="geometry" />
        </mxCell>
        <mxCell id="ptNEkKENp7iOGep-rB65-150" value="Status" style="text;html=1;align=center;verticalAlign=middle;resizable=0;points=[];autosize=1;strokeColor=none;fillColor=none;" parent="1" vertex="1">
          <mxGeometry x="256" y="1510" width="60" height="30" as="geometry" />
        </mxCell>
        <mxCell id="ptNEkKENp7iOGep-rB65-151" value="Status" style="text;html=1;align=center;verticalAlign=middle;resizable=0;points=[];autosize=1;strokeColor=none;fillColor=none;" parent="1" vertex="1">
          <mxGeometry x="256" y="1605" width="60" height="30" as="geometry" />
        </mxCell>
        <mxCell id="ptNEkKENp7iOGep-rB65-152" value="Base de Dados Médicos" style="shape=partialRectangle;whiteSpace=wrap;html=1;left=0;right=0;fillColor=none;" parent="1" vertex="1">
          <mxGeometry x="646" y="1290" width="120" height="60" as="geometry" />
        </mxCell>
        <mxCell id="ptNEkKENp7iOGep-rB65-153" value="Hospitais" style="rounded=0;whiteSpace=wrap;html=1;" parent="1" vertex="1">
          <mxGeometry x="130" y="1685" width="60" height="60" as="geometry" />
        </mxCell>
        <mxCell id="ptNEkKENp7iOGep-rB65-154" value="Nível 1.5&lt;br&gt;Cadastrar dados Hospitais" style="ellipse;whiteSpace=wrap;html=1;" parent="1" vertex="1">
          <mxGeometry x="370" y="1675" width="80" height="80" as="geometry" />
        </mxCell>
        <mxCell id="ptNEkKENp7iOGep-rB65-155" value="Nível 1.5&lt;br style=&quot;border-color: var(--border-color);&quot;&gt;Consultar dados Hospitais" style="ellipse;whiteSpace=wrap;html=1;" parent="1" vertex="1">
          <mxGeometry x="370" y="1770" width="80" height="80" as="geometry" />
        </mxCell>
        <mxCell id="ptNEkKENp7iOGep-rB65-156" value="Nível 1.5&lt;br style=&quot;border-color: var(--border-color);&quot;&gt;Alterar dados &lt;br&gt;Hospitais" style="ellipse;whiteSpace=wrap;html=1;" parent="1" vertex="1">
          <mxGeometry x="370" y="1860" width="80" height="80" as="geometry" />
        </mxCell>
        <mxCell id="ptNEkKENp7iOGep-rB65-157" value="Nível 1.5&lt;br style=&quot;border-color: var(--border-color);&quot;&gt;Excluir dados Hospitais" style="ellipse;whiteSpace=wrap;html=1;" parent="1" vertex="1">
          <mxGeometry x="370" y="1950" width="80" height="80" as="geometry" />
        </mxCell>
        <mxCell id="ptNEkKENp7iOGep-rB65-158" value="" style="endArrow=classic;html=1;rounded=0;exitX=1.031;exitY=0.386;exitDx=0;exitDy=0;entryX=0;entryY=0.438;entryDx=0;entryDy=0;entryPerimeter=0;exitPerimeter=0;" parent="1" source="ptNEkKENp7iOGep-rB65-153" target="ptNEkKENp7iOGep-rB65-154" edge="1">
          <mxGeometry width="50" height="50" relative="1" as="geometry">
            <mxPoint x="280" y="1730" as="sourcePoint" />
            <mxPoint x="330" y="1680" as="targetPoint" />
          </mxGeometry>
        </mxCell>
        <mxCell id="ptNEkKENp7iOGep-rB65-159" value="" style="endArrow=classic;html=1;rounded=0;entryX=1.012;entryY=0.586;entryDx=0;entryDy=0;entryPerimeter=0;" parent="1" target="ptNEkKENp7iOGep-rB65-153" edge="1">
          <mxGeometry width="50" height="50" relative="1" as="geometry">
            <mxPoint x="370" y="1720" as="sourcePoint" />
            <mxPoint x="350" y="1710" as="targetPoint" />
          </mxGeometry>
        </mxCell>
        <mxCell id="ptNEkKENp7iOGep-rB65-160" value="" style="endArrow=classic;html=1;rounded=0;exitX=0;exitY=0.5;exitDx=0;exitDy=0;entryX=0.917;entryY=0.986;entryDx=0;entryDy=0;entryPerimeter=0;" parent="1" source="ptNEkKENp7iOGep-rB65-155" target="ptNEkKENp7iOGep-rB65-153" edge="1">
          <mxGeometry width="50" height="50" relative="1" as="geometry">
            <mxPoint x="360" y="1810" as="sourcePoint" />
            <mxPoint x="240" y="1810" as="targetPoint" />
            <Array as="points">
              <mxPoint x="186" y="1810" />
            </Array>
          </mxGeometry>
        </mxCell>
        <mxCell id="ptNEkKENp7iOGep-rB65-161" value="" style="endArrow=classic;html=1;rounded=0;exitX=0.75;exitY=1;exitDx=0;exitDy=0;entryX=0.006;entryY=0.617;entryDx=0;entryDy=0;entryPerimeter=0;" parent="1" source="ptNEkKENp7iOGep-rB65-153" target="ptNEkKENp7iOGep-rB65-155" edge="1">
          <mxGeometry width="50" height="50" relative="1" as="geometry">
            <mxPoint x="240" y="1870" as="sourcePoint" />
            <mxPoint x="290" y="1820" as="targetPoint" />
            <Array as="points">
              <mxPoint x="175" y="1820" />
            </Array>
          </mxGeometry>
        </mxCell>
        <mxCell id="ptNEkKENp7iOGep-rB65-162" value="" style="endArrow=classic;html=1;rounded=0;exitX=0.431;exitY=0.986;exitDx=0;exitDy=0;exitPerimeter=0;entryX=0;entryY=0.5;entryDx=0;entryDy=0;" parent="1" source="ptNEkKENp7iOGep-rB65-153" target="ptNEkKENp7iOGep-rB65-156" edge="1">
          <mxGeometry width="50" height="50" relative="1" as="geometry">
            <mxPoint x="241" y="1752" as="sourcePoint" />
            <mxPoint x="381" y="1829" as="targetPoint" />
            <Array as="points">
              <mxPoint x="160" y="1900" />
            </Array>
          </mxGeometry>
        </mxCell>
        <mxCell id="ptNEkKENp7iOGep-rB65-163" value="" style="endArrow=classic;html=1;rounded=0;entryX=0.602;entryY=1.005;entryDx=0;entryDy=0;entryPerimeter=0;exitX=0.01;exitY=0.385;exitDx=0;exitDy=0;exitPerimeter=0;" parent="1" source="ptNEkKENp7iOGep-rB65-156" target="ptNEkKENp7iOGep-rB65-153" edge="1">
          <mxGeometry width="50" height="50" relative="1" as="geometry">
            <mxPoint x="380" y="1820" as="sourcePoint" />
            <mxPoint x="253" y="1751" as="targetPoint" />
            <Array as="points">
              <mxPoint x="170" y="1890" />
            </Array>
          </mxGeometry>
        </mxCell>
        <mxCell id="ptNEkKENp7iOGep-rB65-164" value="" style="endArrow=classic;html=1;rounded=0;entryX=0.25;entryY=1;entryDx=0;entryDy=0;exitX=0;exitY=0.375;exitDx=0;exitDy=0;exitPerimeter=0;" parent="1" source="ptNEkKENp7iOGep-rB65-157" target="ptNEkKENp7iOGep-rB65-153" edge="1">
          <mxGeometry width="50" height="50" relative="1" as="geometry">
            <mxPoint x="381" y="1901" as="sourcePoint" />
            <mxPoint x="220" y="1753" as="targetPoint" />
            <Array as="points">
              <mxPoint x="150" y="1980" />
            </Array>
          </mxGeometry>
        </mxCell>
        <mxCell id="ptNEkKENp7iOGep-rB65-165" value="" style="endArrow=classic;html=1;rounded=0;exitX=0.107;exitY=0.995;exitDx=0;exitDy=0;entryX=0;entryY=0.5;entryDx=0;entryDy=0;exitPerimeter=0;" parent="1" source="ptNEkKENp7iOGep-rB65-153" target="ptNEkKENp7iOGep-rB65-157" edge="1">
          <mxGeometry width="50" height="50" relative="1" as="geometry">
            <mxPoint x="209" y="1753" as="sourcePoint" />
            <mxPoint x="380" y="1910" as="targetPoint" />
            <Array as="points">
              <mxPoint x="140" y="1990" />
            </Array>
          </mxGeometry>
        </mxCell>
        <mxCell id="ptNEkKENp7iOGep-rB65-166" value="" style="endArrow=classic;html=1;rounded=0;entryX=0.994;entryY=0.425;entryDx=0;entryDy=0;entryPerimeter=0;exitX=0.002;exitY=0.478;exitDx=0;exitDy=0;exitPerimeter=0;" parent="1" target="ptNEkKENp7iOGep-rB65-154" edge="1">
          <mxGeometry width="50" height="50" relative="1" as="geometry">
            <mxPoint x="660" y="1709" as="sourcePoint" />
            <mxPoint x="620" y="1680" as="targetPoint" />
          </mxGeometry>
        </mxCell>
        <mxCell id="ptNEkKENp7iOGep-rB65-167" value="" style="endArrow=classic;html=1;rounded=0;exitX=1.005;exitY=0.564;exitDx=0;exitDy=0;exitPerimeter=0;entryX=0;entryY=0.667;entryDx=0;entryDy=0;entryPerimeter=0;" parent="1" source="ptNEkKENp7iOGep-rB65-154" edge="1">
          <mxGeometry width="50" height="50" relative="1" as="geometry">
            <mxPoint x="570" y="1770" as="sourcePoint" />
            <mxPoint x="660" y="1720" as="targetPoint" />
          </mxGeometry>
        </mxCell>
        <mxCell id="ptNEkKENp7iOGep-rB65-168" value="" style="endArrow=classic;html=1;rounded=0;exitX=0.076;exitY=1.001;exitDx=0;exitDy=0;exitPerimeter=0;entryX=1;entryY=0.5;entryDx=0;entryDy=0;" parent="1" target="ptNEkKENp7iOGep-rB65-155" edge="1">
          <mxGeometry width="50" height="50" relative="1" as="geometry">
            <mxPoint x="669" y="1740" as="sourcePoint" />
            <mxPoint x="730" y="1780" as="targetPoint" />
            <Array as="points">
              <mxPoint x="670" y="1810" />
            </Array>
          </mxGeometry>
        </mxCell>
        <mxCell id="ptNEkKENp7iOGep-rB65-169" value="" style="endArrow=classic;html=1;rounded=0;entryX=0.159;entryY=0.989;entryDx=0;entryDy=0;entryPerimeter=0;exitX=1.002;exitY=0.634;exitDx=0;exitDy=0;exitPerimeter=0;" parent="1" source="ptNEkKENp7iOGep-rB65-155" edge="1">
          <mxGeometry width="50" height="50" relative="1" as="geometry">
            <mxPoint x="490" y="1820" as="sourcePoint" />
            <mxPoint x="679" y="1739" as="targetPoint" />
            <Array as="points">
              <mxPoint x="680" y="1820" />
            </Array>
          </mxGeometry>
        </mxCell>
        <mxCell id="ptNEkKENp7iOGep-rB65-170" value="" style="endArrow=classic;html=1;rounded=0;exitX=0.302;exitY=1.048;exitDx=0;exitDy=0;exitPerimeter=0;entryX=0.977;entryY=0.375;entryDx=0;entryDy=0;entryPerimeter=0;" parent="1" target="ptNEkKENp7iOGep-rB65-156" edge="1">
          <mxGeometry width="50" height="50" relative="1" as="geometry">
            <mxPoint x="696" y="1743" as="sourcePoint" />
            <mxPoint x="500" y="1820" as="targetPoint" />
            <Array as="points">
              <mxPoint x="698" y="1890" />
            </Array>
          </mxGeometry>
        </mxCell>
        <mxCell id="ptNEkKENp7iOGep-rB65-171" value="" style="endArrow=classic;html=1;rounded=0;entryX=0.397;entryY=1.003;entryDx=0;entryDy=0;exitX=1;exitY=0.5;exitDx=0;exitDy=0;entryPerimeter=0;" parent="1" source="ptNEkKENp7iOGep-rB65-156" edge="1">
          <mxGeometry width="50" height="50" relative="1" as="geometry">
            <mxPoint x="500" y="1830" as="sourcePoint" />
            <mxPoint x="708" y="1740" as="targetPoint" />
            <Array as="points">
              <mxPoint x="710" y="1900" />
            </Array>
          </mxGeometry>
        </mxCell>
        <mxCell id="ptNEkKENp7iOGep-rB65-172" value="" style="endArrow=classic;html=1;rounded=0;entryX=0.75;entryY=1;entryDx=0;entryDy=0;exitX=1;exitY=0.5;exitDx=0;exitDy=0;" parent="1" source="ptNEkKENp7iOGep-rB65-157" edge="1">
          <mxGeometry width="50" height="50" relative="1" as="geometry">
            <mxPoint x="500" y="1910" as="sourcePoint" />
            <mxPoint x="750" y="1740" as="targetPoint" />
            <Array as="points">
              <mxPoint x="750" y="1990" />
            </Array>
          </mxGeometry>
        </mxCell>
        <mxCell id="ptNEkKENp7iOGep-rB65-173" value="" style="endArrow=classic;html=1;rounded=0;exitX=0.65;exitY=1.05;exitDx=0;exitDy=0;exitPerimeter=0;entryX=0.98;entryY=0.366;entryDx=0;entryDy=0;entryPerimeter=0;" parent="1" target="ptNEkKENp7iOGep-rB65-157" edge="1">
          <mxGeometry width="50" height="50" relative="1" as="geometry">
            <mxPoint x="738" y="1743" as="sourcePoint" />
            <mxPoint x="500" y="1900" as="targetPoint" />
            <Array as="points">
              <mxPoint x="738" y="1980" />
            </Array>
          </mxGeometry>
        </mxCell>
        <mxCell id="ptNEkKENp7iOGep-rB65-174" value="Dados&amp;nbsp;Hospitais" style="text;html=1;align=center;verticalAlign=middle;resizable=0;points=[];autosize=1;strokeColor=none;fillColor=none;" parent="1" vertex="1">
          <mxGeometry x="255" y="1675" width="110" height="30" as="geometry" />
        </mxCell>
        <mxCell id="ptNEkKENp7iOGep-rB65-175" value="Dados&amp;nbsp;Hospitais" style="text;html=1;align=center;verticalAlign=middle;resizable=0;points=[];autosize=1;strokeColor=none;fillColor=none;" parent="1" vertex="1">
          <mxGeometry x="245" y="1775" width="110" height="30" as="geometry" />
        </mxCell>
        <mxCell id="ptNEkKENp7iOGep-rB65-176" value="&lt;span style=&quot;color: rgb(0, 0, 0); font-family: Helvetica; font-size: 12px; font-style: normal; font-variant-ligatures: normal; font-variant-caps: normal; font-weight: 400; letter-spacing: normal; orphans: 2; text-align: center; text-indent: 0px; text-transform: none; widows: 2; word-spacing: 0px; -webkit-text-stroke-width: 0px; background-color: rgb(251, 251, 251); text-decoration-thickness: initial; text-decoration-style: initial; text-decoration-color: initial; float: none; display: inline !important;&quot;&gt;Dados&amp;nbsp;&lt;/span&gt;Hospitais" style="text;whiteSpace=wrap;html=1;" parent="1" vertex="1">
          <mxGeometry x="260" y="1860" width="110" height="40" as="geometry" />
        </mxCell>
        <mxCell id="ptNEkKENp7iOGep-rB65-177" value="&lt;span style=&quot;color: rgb(0, 0, 0); font-family: Helvetica; font-size: 12px; font-style: normal; font-variant-ligatures: normal; font-variant-caps: normal; font-weight: 400; letter-spacing: normal; orphans: 2; text-align: center; text-indent: 0px; text-transform: none; widows: 2; word-spacing: 0px; -webkit-text-stroke-width: 0px; background-color: rgb(251, 251, 251); text-decoration-thickness: initial; text-decoration-style: initial; text-decoration-color: initial; float: none; display: inline !important;&quot;&gt;Dados&amp;nbsp;&lt;/span&gt;Hospitais" style="text;whiteSpace=wrap;html=1;" parent="1" vertex="1">
          <mxGeometry x="260" y="1950" width="110" height="40" as="geometry" />
        </mxCell>
        <mxCell id="ptNEkKENp7iOGep-rB65-178" value="Dados&amp;nbsp;Hospitais" style="text;html=1;align=center;verticalAlign=middle;resizable=0;points=[];autosize=1;strokeColor=none;fillColor=none;" parent="1" vertex="1">
          <mxGeometry x="495" y="1720" width="110" height="30" as="geometry" />
        </mxCell>
        <mxCell id="ptNEkKENp7iOGep-rB65-179" value="Dados&amp;nbsp;Hospitais" style="text;html=1;align=center;verticalAlign=middle;resizable=0;points=[];autosize=1;strokeColor=none;fillColor=none;" parent="1" vertex="1">
          <mxGeometry x="506" y="1830" width="110" height="30" as="geometry" />
        </mxCell>
        <mxCell id="ptNEkKENp7iOGep-rB65-180" value="&lt;span style=&quot;color: rgb(0, 0, 0); font-family: Helvetica; font-size: 12px; font-style: normal; font-variant-ligatures: normal; font-variant-caps: normal; font-weight: 400; letter-spacing: normal; orphans: 2; text-align: center; text-indent: 0px; text-transform: none; widows: 2; word-spacing: 0px; -webkit-text-stroke-width: 0px; background-color: rgb(251, 251, 251); text-decoration-thickness: initial; text-decoration-style: initial; text-decoration-color: initial; float: none; display: inline !important;&quot;&gt;Dados&amp;nbsp;&lt;/span&gt;Hospitais" style="text;whiteSpace=wrap;html=1;" parent="1" vertex="1">
          <mxGeometry x="510" y="1900" width="110" height="40" as="geometry" />
        </mxCell>
        <mxCell id="ptNEkKENp7iOGep-rB65-181" value="&lt;span style=&quot;color: rgb(0, 0, 0); font-family: Helvetica; font-size: 12px; font-style: normal; font-variant-ligatures: normal; font-variant-caps: normal; font-weight: 400; letter-spacing: normal; orphans: 2; text-align: center; text-indent: 0px; text-transform: none; widows: 2; word-spacing: 0px; -webkit-text-stroke-width: 0px; background-color: rgb(251, 251, 251); text-decoration-thickness: initial; text-decoration-style: initial; text-decoration-color: initial; float: none; display: inline !important;&quot;&gt;Dados&amp;nbsp;&lt;/span&gt;Hospitais" style="text;whiteSpace=wrap;html=1;" parent="1" vertex="1">
          <mxGeometry x="510" y="1990" width="110" height="40" as="geometry" />
        </mxCell>
        <mxCell id="ptNEkKENp7iOGep-rB65-182" value="Status" style="text;html=1;align=center;verticalAlign=middle;resizable=0;points=[];autosize=1;strokeColor=none;fillColor=none;" parent="1" vertex="1">
          <mxGeometry x="280" y="1715" width="60" height="30" as="geometry" />
        </mxCell>
        <mxCell id="ptNEkKENp7iOGep-rB65-183" value="Status" style="text;html=1;align=center;verticalAlign=middle;resizable=0;points=[];autosize=1;strokeColor=none;fillColor=none;" parent="1" vertex="1">
          <mxGeometry x="525" y="1675" width="60" height="30" as="geometry" />
        </mxCell>
        <mxCell id="ptNEkKENp7iOGep-rB65-184" value="Status" style="text;html=1;align=center;verticalAlign=middle;resizable=0;points=[];autosize=1;strokeColor=none;fillColor=none;" parent="1" vertex="1">
          <mxGeometry x="525" y="1775" width="60" height="30" as="geometry" />
        </mxCell>
        <mxCell id="ptNEkKENp7iOGep-rB65-185" value="Status" style="text;html=1;align=center;verticalAlign=middle;resizable=0;points=[];autosize=1;strokeColor=none;fillColor=none;" parent="1" vertex="1">
          <mxGeometry x="525" y="1860" width="60" height="30" as="geometry" />
        </mxCell>
        <mxCell id="ptNEkKENp7iOGep-rB65-186" value="Status" style="text;html=1;align=center;verticalAlign=middle;resizable=0;points=[];autosize=1;strokeColor=none;fillColor=none;" parent="1" vertex="1">
          <mxGeometry x="520" y="1950" width="60" height="30" as="geometry" />
        </mxCell>
        <mxCell id="ptNEkKENp7iOGep-rB65-187" value="Status" style="text;html=1;align=center;verticalAlign=middle;resizable=0;points=[];autosize=1;strokeColor=none;fillColor=none;" parent="1" vertex="1">
          <mxGeometry x="270" y="1820" width="60" height="30" as="geometry" />
        </mxCell>
        <mxCell id="ptNEkKENp7iOGep-rB65-188" value="Status" style="text;html=1;align=center;verticalAlign=middle;resizable=0;points=[];autosize=1;strokeColor=none;fillColor=none;" parent="1" vertex="1">
          <mxGeometry x="270" y="1900" width="60" height="30" as="geometry" />
        </mxCell>
        <mxCell id="ptNEkKENp7iOGep-rB65-189" value="Status" style="text;html=1;align=center;verticalAlign=middle;resizable=0;points=[];autosize=1;strokeColor=none;fillColor=none;" parent="1" vertex="1">
          <mxGeometry x="270" y="1995" width="60" height="30" as="geometry" />
        </mxCell>
        <mxCell id="ptNEkKENp7iOGep-rB65-190" value="Base de Dados Hospitais" style="shape=partialRectangle;whiteSpace=wrap;html=1;left=0;right=0;fillColor=none;" parent="1" vertex="1">
          <mxGeometry x="660" y="1680" width="120" height="60" as="geometry" />
        </mxCell>
        <mxCell id="ptNEkKENp7iOGep-rB65-191" value="Doenças" style="rounded=0;whiteSpace=wrap;html=1;" parent="1" vertex="1">
          <mxGeometry x="121" y="2080" width="61" height="60" as="geometry" />
        </mxCell>
        <mxCell id="ptNEkKENp7iOGep-rB65-192" value="Nível 1.6&lt;br&gt;Cadastrar dados Doenças" style="ellipse;whiteSpace=wrap;html=1;" parent="1" vertex="1">
          <mxGeometry x="381.5" y="2075" width="79" height="80" as="geometry" />
        </mxCell>
        <mxCell id="ptNEkKENp7iOGep-rB65-193" value="Nível 1.6&lt;br style=&quot;border-color: var(--border-color);&quot;&gt;Consultar dados Doenças" style="ellipse;whiteSpace=wrap;html=1;" parent="1" vertex="1">
          <mxGeometry x="379" y="2170" width="79" height="80" as="geometry" />
        </mxCell>
        <mxCell id="ptNEkKENp7iOGep-rB65-194" value="Nível 1.6&lt;br style=&quot;border-color: var(--border-color);&quot;&gt;Alterar dados &lt;br&gt;Doenças" style="ellipse;whiteSpace=wrap;html=1;" parent="1" vertex="1">
          <mxGeometry x="386" y="2260" width="79" height="80" as="geometry" />
        </mxCell>
        <mxCell id="ptNEkKENp7iOGep-rB65-195" value="Nível 1.6&lt;br style=&quot;border-color: var(--border-color);&quot;&gt;Excluir dados&lt;br&gt;&amp;nbsp;Doenças" style="ellipse;whiteSpace=wrap;html=1;" parent="1" vertex="1">
          <mxGeometry x="386" y="2350" width="79" height="80" as="geometry" />
        </mxCell>
        <mxCell id="ptNEkKENp7iOGep-rB65-196" value="" style="endArrow=classic;html=1;rounded=0;exitX=1;exitY=0.5;exitDx=0;exitDy=0;entryX=0;entryY=0.438;entryDx=0;entryDy=0;entryPerimeter=0;" parent="1" source="ptNEkKENp7iOGep-rB65-191" target="ptNEkKENp7iOGep-rB65-192" edge="1">
          <mxGeometry width="50" height="50" relative="1" as="geometry">
            <mxPoint x="271" y="2130" as="sourcePoint" />
            <mxPoint x="321" y="2080" as="targetPoint" />
          </mxGeometry>
        </mxCell>
        <mxCell id="ptNEkKENp7iOGep-rB65-197" value="" style="endArrow=classic;html=1;rounded=0;entryX=1.017;entryY=0.672;entryDx=0;entryDy=0;entryPerimeter=0;exitX=0.015;exitY=0.571;exitDx=0;exitDy=0;exitPerimeter=0;" parent="1" target="ptNEkKENp7iOGep-rB65-191" edge="1" source="ptNEkKENp7iOGep-rB65-192">
          <mxGeometry width="50" height="50" relative="1" as="geometry">
            <mxPoint x="361" y="2120" as="sourcePoint" />
            <mxPoint x="341" y="2110" as="targetPoint" />
          </mxGeometry>
        </mxCell>
        <mxCell id="ptNEkKENp7iOGep-rB65-198" value="" style="endArrow=classic;html=1;rounded=0;exitX=0;exitY=0.5;exitDx=0;exitDy=0;entryX=0.941;entryY=1.024;entryDx=0;entryDy=0;entryPerimeter=0;" parent="1" source="ptNEkKENp7iOGep-rB65-193" target="ptNEkKENp7iOGep-rB65-191" edge="1">
          <mxGeometry width="50" height="50" relative="1" as="geometry">
            <mxPoint x="351" y="2210" as="sourcePoint" />
            <mxPoint x="231" y="2210" as="targetPoint" />
            <Array as="points">
              <mxPoint x="190" y="2210" />
            </Array>
          </mxGeometry>
        </mxCell>
        <mxCell id="ptNEkKENp7iOGep-rB65-199" value="" style="endArrow=classic;html=1;rounded=0;exitX=0.84;exitY=1.027;exitDx=0;exitDy=0;exitPerimeter=0;entryX=0.006;entryY=0.617;entryDx=0;entryDy=0;entryPerimeter=0;" parent="1" source="ptNEkKENp7iOGep-rB65-191" target="ptNEkKENp7iOGep-rB65-193" edge="1">
          <mxGeometry width="50" height="50" relative="1" as="geometry">
            <mxPoint x="231" y="2270" as="sourcePoint" />
            <mxPoint x="281" y="2220" as="targetPoint" />
            <Array as="points">
              <mxPoint x="180" y="2220" />
            </Array>
          </mxGeometry>
        </mxCell>
        <mxCell id="ptNEkKENp7iOGep-rB65-200" value="" style="endArrow=classic;html=1;rounded=0;exitX=0.375;exitY=0.993;exitDx=0;exitDy=0;exitPerimeter=0;entryX=0;entryY=0.5;entryDx=0;entryDy=0;" parent="1" source="ptNEkKENp7iOGep-rB65-191" target="ptNEkKENp7iOGep-rB65-194" edge="1">
          <mxGeometry width="50" height="50" relative="1" as="geometry">
            <mxPoint x="232" y="2152" as="sourcePoint" />
            <mxPoint x="372" y="2229" as="targetPoint" />
            <Array as="points">
              <mxPoint x="150" y="2300" />
            </Array>
          </mxGeometry>
        </mxCell>
        <mxCell id="ptNEkKENp7iOGep-rB65-201" value="" style="endArrow=classic;html=1;rounded=0;entryX=0.666;entryY=1.048;entryDx=0;entryDy=0;entryPerimeter=0;exitX=0.01;exitY=0.385;exitDx=0;exitDy=0;exitPerimeter=0;" parent="1" source="ptNEkKENp7iOGep-rB65-194" target="ptNEkKENp7iOGep-rB65-191" edge="1">
          <mxGeometry width="50" height="50" relative="1" as="geometry">
            <mxPoint x="371" y="2220" as="sourcePoint" />
            <mxPoint x="244" y="2151" as="targetPoint" />
            <Array as="points">
              <mxPoint x="170" y="2290" />
            </Array>
          </mxGeometry>
        </mxCell>
        <mxCell id="ptNEkKENp7iOGep-rB65-202" value="" style="endArrow=classic;html=1;rounded=0;entryX=0.197;entryY=1.021;entryDx=0;entryDy=0;exitX=0;exitY=0.375;exitDx=0;exitDy=0;exitPerimeter=0;entryPerimeter=0;" parent="1" source="ptNEkKENp7iOGep-rB65-195" target="ptNEkKENp7iOGep-rB65-191" edge="1">
          <mxGeometry width="50" height="50" relative="1" as="geometry">
            <mxPoint x="372" y="2301" as="sourcePoint" />
            <mxPoint x="211" y="2153" as="targetPoint" />
            <Array as="points">
              <mxPoint x="140" y="2380" />
            </Array>
          </mxGeometry>
        </mxCell>
        <mxCell id="ptNEkKENp7iOGep-rB65-203" value="" style="endArrow=classic;html=1;rounded=0;exitX=0.084;exitY=1.021;exitDx=0;exitDy=0;entryX=0;entryY=0.5;entryDx=0;entryDy=0;exitPerimeter=0;" parent="1" source="ptNEkKENp7iOGep-rB65-191" target="ptNEkKENp7iOGep-rB65-195" edge="1">
          <mxGeometry width="50" height="50" relative="1" as="geometry">
            <mxPoint x="200" y="2153" as="sourcePoint" />
            <mxPoint x="371" y="2310" as="targetPoint" />
            <Array as="points">
              <mxPoint x="130" y="2390" />
            </Array>
          </mxGeometry>
        </mxCell>
        <mxCell id="ptNEkKENp7iOGep-rB65-204" value="" style="endArrow=classic;html=1;rounded=0;entryX=0.994;entryY=0.425;entryDx=0;entryDy=0;entryPerimeter=0;exitX=0.002;exitY=0.478;exitDx=0;exitDy=0;exitPerimeter=0;" parent="1" target="ptNEkKENp7iOGep-rB65-192" edge="1">
          <mxGeometry width="50" height="50" relative="1" as="geometry">
            <mxPoint x="651" y="2109" as="sourcePoint" />
            <mxPoint x="611" y="2080" as="targetPoint" />
          </mxGeometry>
        </mxCell>
        <mxCell id="ptNEkKENp7iOGep-rB65-205" value="" style="endArrow=classic;html=1;rounded=0;exitX=1.005;exitY=0.564;exitDx=0;exitDy=0;exitPerimeter=0;entryX=0;entryY=0.667;entryDx=0;entryDy=0;entryPerimeter=0;" parent="1" source="ptNEkKENp7iOGep-rB65-192" edge="1">
          <mxGeometry width="50" height="50" relative="1" as="geometry">
            <mxPoint x="561" y="2170" as="sourcePoint" />
            <mxPoint x="651" y="2120" as="targetPoint" />
          </mxGeometry>
        </mxCell>
        <mxCell id="ptNEkKENp7iOGep-rB65-206" value="" style="endArrow=classic;html=1;rounded=0;exitX=0.076;exitY=1.001;exitDx=0;exitDy=0;exitPerimeter=0;entryX=1;entryY=0.5;entryDx=0;entryDy=0;" parent="1" target="ptNEkKENp7iOGep-rB65-193" edge="1">
          <mxGeometry width="50" height="50" relative="1" as="geometry">
            <mxPoint x="660" y="2140" as="sourcePoint" />
            <mxPoint x="721" y="2180" as="targetPoint" />
            <Array as="points">
              <mxPoint x="661" y="2210" />
            </Array>
          </mxGeometry>
        </mxCell>
        <mxCell id="ptNEkKENp7iOGep-rB65-207" value="" style="endArrow=classic;html=1;rounded=0;entryX=0.159;entryY=0.989;entryDx=0;entryDy=0;entryPerimeter=0;" parent="1" edge="1">
          <mxGeometry width="50" height="50" relative="1" as="geometry">
            <mxPoint x="481" y="2220" as="sourcePoint" />
            <mxPoint x="670" y="2139" as="targetPoint" />
            <Array as="points">
              <mxPoint x="671" y="2220" />
            </Array>
          </mxGeometry>
        </mxCell>
        <mxCell id="ptNEkKENp7iOGep-rB65-208" value="" style="endArrow=classic;html=1;rounded=0;exitX=0.302;exitY=1.048;exitDx=0;exitDy=0;exitPerimeter=0;entryX=0.977;entryY=0.375;entryDx=0;entryDy=0;entryPerimeter=0;" parent="1" target="ptNEkKENp7iOGep-rB65-194" edge="1">
          <mxGeometry width="50" height="50" relative="1" as="geometry">
            <mxPoint x="687" y="2143" as="sourcePoint" />
            <mxPoint x="491" y="2220" as="targetPoint" />
            <Array as="points">
              <mxPoint x="689" y="2290" />
            </Array>
          </mxGeometry>
        </mxCell>
        <mxCell id="ptNEkKENp7iOGep-rB65-209" value="" style="endArrow=classic;html=1;rounded=0;entryX=0.397;entryY=1.003;entryDx=0;entryDy=0;exitX=1;exitY=0.5;exitDx=0;exitDy=0;entryPerimeter=0;" parent="1" source="ptNEkKENp7iOGep-rB65-194" edge="1">
          <mxGeometry width="50" height="50" relative="1" as="geometry">
            <mxPoint x="491" y="2230" as="sourcePoint" />
            <mxPoint x="699" y="2140" as="targetPoint" />
            <Array as="points">
              <mxPoint x="701" y="2300" />
            </Array>
          </mxGeometry>
        </mxCell>
        <mxCell id="ptNEkKENp7iOGep-rB65-210" value="" style="endArrow=classic;html=1;rounded=0;entryX=0.75;entryY=1;entryDx=0;entryDy=0;exitX=1;exitY=0.5;exitDx=0;exitDy=0;" parent="1" source="ptNEkKENp7iOGep-rB65-195" edge="1">
          <mxGeometry width="50" height="50" relative="1" as="geometry">
            <mxPoint x="491" y="2310" as="sourcePoint" />
            <mxPoint x="741" y="2140" as="targetPoint" />
            <Array as="points">
              <mxPoint x="741" y="2390" />
            </Array>
          </mxGeometry>
        </mxCell>
        <mxCell id="ptNEkKENp7iOGep-rB65-211" value="" style="endArrow=classic;html=1;rounded=0;exitX=0.65;exitY=1.05;exitDx=0;exitDy=0;exitPerimeter=0;entryX=0.98;entryY=0.366;entryDx=0;entryDy=0;entryPerimeter=0;" parent="1" target="ptNEkKENp7iOGep-rB65-195" edge="1">
          <mxGeometry width="50" height="50" relative="1" as="geometry">
            <mxPoint x="729" y="2143" as="sourcePoint" />
            <mxPoint x="491" y="2300" as="targetPoint" />
            <Array as="points">
              <mxPoint x="729" y="2380" />
            </Array>
          </mxGeometry>
        </mxCell>
        <mxCell id="ptNEkKENp7iOGep-rB65-212" value="Dados&amp;nbsp;Doenças" style="text;html=1;align=center;verticalAlign=middle;resizable=0;points=[];autosize=1;strokeColor=none;fillColor=none;" parent="1" vertex="1">
          <mxGeometry x="246" y="2075" width="110" height="30" as="geometry" />
        </mxCell>
        <mxCell id="ptNEkKENp7iOGep-rB65-213" value="Dados&amp;nbsp;Doenças" style="text;html=1;align=center;verticalAlign=middle;resizable=0;points=[];autosize=1;strokeColor=none;fillColor=none;" parent="1" vertex="1">
          <mxGeometry x="236" y="2175" width="110" height="30" as="geometry" />
        </mxCell>
        <mxCell id="ptNEkKENp7iOGep-rB65-214" value="&lt;span style=&quot;color: rgb(0, 0, 0); font-family: Helvetica; font-size: 12px; font-style: normal; font-variant-ligatures: normal; font-variant-caps: normal; font-weight: 400; letter-spacing: normal; orphans: 2; text-align: center; text-indent: 0px; text-transform: none; widows: 2; word-spacing: 0px; -webkit-text-stroke-width: 0px; background-color: rgb(251, 251, 251); text-decoration-thickness: initial; text-decoration-style: initial; text-decoration-color: initial; float: none; display: inline !important;&quot;&gt;Dados&amp;nbsp;&lt;/span&gt;Doenças" style="text;whiteSpace=wrap;html=1;" parent="1" vertex="1">
          <mxGeometry x="251" y="2260" width="110" height="40" as="geometry" />
        </mxCell>
        <mxCell id="ptNEkKENp7iOGep-rB65-215" value="&lt;span style=&quot;color: rgb(0, 0, 0); font-family: Helvetica; font-size: 12px; font-style: normal; font-variant-ligatures: normal; font-variant-caps: normal; font-weight: 400; letter-spacing: normal; orphans: 2; text-align: center; text-indent: 0px; text-transform: none; widows: 2; word-spacing: 0px; -webkit-text-stroke-width: 0px; background-color: rgb(251, 251, 251); text-decoration-thickness: initial; text-decoration-style: initial; text-decoration-color: initial; float: none; display: inline !important;&quot;&gt;Dados&amp;nbsp;&lt;/span&gt;Doenças" style="text;whiteSpace=wrap;html=1;" parent="1" vertex="1">
          <mxGeometry x="251" y="2350" width="110" height="40" as="geometry" />
        </mxCell>
        <mxCell id="ptNEkKENp7iOGep-rB65-216" value="Dados&amp;nbsp;Doenças" style="text;html=1;align=center;verticalAlign=middle;resizable=0;points=[];autosize=1;strokeColor=none;fillColor=none;" parent="1" vertex="1">
          <mxGeometry x="486" y="2120" width="110" height="30" as="geometry" />
        </mxCell>
        <mxCell id="ptNEkKENp7iOGep-rB65-217" value="Dados&amp;nbsp;Doenças" style="text;html=1;align=center;verticalAlign=middle;resizable=0;points=[];autosize=1;strokeColor=none;fillColor=none;" parent="1" vertex="1">
          <mxGeometry x="496" y="2220" width="110" height="30" as="geometry" />
        </mxCell>
        <mxCell id="ptNEkKENp7iOGep-rB65-218" value="&lt;span style=&quot;color: rgb(0, 0, 0); font-family: Helvetica; font-size: 12px; font-style: normal; font-variant-ligatures: normal; font-variant-caps: normal; font-weight: 400; letter-spacing: normal; orphans: 2; text-align: center; text-indent: 0px; text-transform: none; widows: 2; word-spacing: 0px; -webkit-text-stroke-width: 0px; background-color: rgb(251, 251, 251); text-decoration-thickness: initial; text-decoration-style: initial; text-decoration-color: initial; float: none; display: inline !important;&quot;&gt;Dados&amp;nbsp;&lt;/span&gt;Doenças" style="text;whiteSpace=wrap;html=1;" parent="1" vertex="1">
          <mxGeometry x="501" y="2300" width="110" height="40" as="geometry" />
        </mxCell>
        <mxCell id="ptNEkKENp7iOGep-rB65-219" value="&lt;span style=&quot;color: rgb(0, 0, 0); font-family: Helvetica; font-size: 12px; font-style: normal; font-variant-ligatures: normal; font-variant-caps: normal; font-weight: 400; letter-spacing: normal; orphans: 2; text-align: center; text-indent: 0px; text-transform: none; widows: 2; word-spacing: 0px; -webkit-text-stroke-width: 0px; background-color: rgb(251, 251, 251); text-decoration-thickness: initial; text-decoration-style: initial; text-decoration-color: initial; float: none; display: inline !important;&quot;&gt;Dados&amp;nbsp;&lt;/span&gt;Doenças" style="text;whiteSpace=wrap;html=1;" parent="1" vertex="1">
          <mxGeometry x="501" y="2390" width="110" height="40" as="geometry" />
        </mxCell>
        <mxCell id="ptNEkKENp7iOGep-rB65-220" value="Status" style="text;html=1;align=center;verticalAlign=middle;resizable=0;points=[];autosize=1;strokeColor=none;fillColor=none;" parent="1" vertex="1">
          <mxGeometry x="271" y="2115" width="60" height="30" as="geometry" />
        </mxCell>
        <mxCell id="ptNEkKENp7iOGep-rB65-221" value="Status" style="text;html=1;align=center;verticalAlign=middle;resizable=0;points=[];autosize=1;strokeColor=none;fillColor=none;" parent="1" vertex="1">
          <mxGeometry x="516" y="2075" width="60" height="30" as="geometry" />
        </mxCell>
        <mxCell id="ptNEkKENp7iOGep-rB65-222" value="Status" style="text;html=1;align=center;verticalAlign=middle;resizable=0;points=[];autosize=1;strokeColor=none;fillColor=none;" parent="1" vertex="1">
          <mxGeometry x="516" y="2175" width="60" height="30" as="geometry" />
        </mxCell>
        <mxCell id="ptNEkKENp7iOGep-rB65-223" value="Status" style="text;html=1;align=center;verticalAlign=middle;resizable=0;points=[];autosize=1;strokeColor=none;fillColor=none;" parent="1" vertex="1">
          <mxGeometry x="516" y="2260" width="60" height="30" as="geometry" />
        </mxCell>
        <mxCell id="ptNEkKENp7iOGep-rB65-224" value="Status" style="text;html=1;align=center;verticalAlign=middle;resizable=0;points=[];autosize=1;strokeColor=none;fillColor=none;" parent="1" vertex="1">
          <mxGeometry x="511" y="2350" width="60" height="30" as="geometry" />
        </mxCell>
        <mxCell id="ptNEkKENp7iOGep-rB65-225" value="Status" style="text;html=1;align=center;verticalAlign=middle;resizable=0;points=[];autosize=1;strokeColor=none;fillColor=none;" parent="1" vertex="1">
          <mxGeometry x="261" y="2220" width="60" height="30" as="geometry" />
        </mxCell>
        <mxCell id="ptNEkKENp7iOGep-rB65-226" value="Status" style="text;html=1;align=center;verticalAlign=middle;resizable=0;points=[];autosize=1;strokeColor=none;fillColor=none;" parent="1" vertex="1">
          <mxGeometry x="261" y="2300" width="60" height="30" as="geometry" />
        </mxCell>
        <mxCell id="ptNEkKENp7iOGep-rB65-227" value="Status" style="text;html=1;align=center;verticalAlign=middle;resizable=0;points=[];autosize=1;strokeColor=none;fillColor=none;" parent="1" vertex="1">
          <mxGeometry x="261" y="2395" width="60" height="30" as="geometry" />
        </mxCell>
        <mxCell id="ptNEkKENp7iOGep-rB65-228" value="Base de Dados Doenças" style="shape=partialRectangle;whiteSpace=wrap;html=1;left=0;right=0;fillColor=none;" parent="1" vertex="1">
          <mxGeometry x="651" y="2080" width="120" height="60" as="geometry" />
        </mxCell>
        <mxCell id="ptNEkKENp7iOGep-rB65-229" value="Dados&amp;nbsp;Médicos" style="text;html=1;align=center;verticalAlign=middle;resizable=0;points=[];autosize=1;strokeColor=none;fillColor=none;" parent="1" vertex="1">
          <mxGeometry x="231" y="1470" width="110" height="30" as="geometry" />
        </mxCell>
      </root>
    </mxGraphModel>
  </diagram>
  <diagram id="yAAflQMXMo9H7mzT8niK" name="DFD - Nível 2">
    <mxGraphModel dx="1377" dy="1906" grid="1" gridSize="10" guides="1" tooltips="1" connect="1" arrows="1" fold="1" page="1" pageScale="1" pageWidth="850" pageHeight="1100" math="0" shadow="0">
      <root>
        <mxCell id="0" />
        <mxCell id="1" parent="0" />
        <mxCell id="F6jIhz8H1fu90_4huICA-2" style="edgeStyle=orthogonalEdgeStyle;rounded=0;orthogonalLoop=1;jettySize=auto;html=1;exitX=0.75;exitY=0;exitDx=0;exitDy=0;entryX=0;entryY=0;entryDx=0;entryDy=0;" parent="1" source="1prr6rJeyVTzZAUWS2b7-6" target="1prr6rJeyVTzZAUWS2b7-7" edge="1">
          <mxGeometry relative="1" as="geometry" />
        </mxCell>
        <mxCell id="F6jIhz8H1fu90_4huICA-7" style="edgeStyle=orthogonalEdgeStyle;rounded=0;orthogonalLoop=1;jettySize=auto;html=1;exitX=0.5;exitY=1;exitDx=0;exitDy=0;entryX=0;entryY=1;entryDx=0;entryDy=0;" parent="1" source="1prr6rJeyVTzZAUWS2b7-6" target="rnIOwlIA6ATGhBKRF9MK-1" edge="1">
          <mxGeometry relative="1" as="geometry" />
        </mxCell>
        <mxCell id="1prr6rJeyVTzZAUWS2b7-6" value="Paciente" style="rounded=0;whiteSpace=wrap;html=1;" parent="1" vertex="1">
          <mxGeometry x="80" y="20" width="59" height="60" as="geometry" />
        </mxCell>
        <mxCell id="F6jIhz8H1fu90_4huICA-3" style="edgeStyle=orthogonalEdgeStyle;rounded=0;orthogonalLoop=1;jettySize=auto;html=1;exitX=0.5;exitY=0;exitDx=0;exitDy=0;entryX=0.25;entryY=0;entryDx=0;entryDy=0;" parent="1" source="1prr6rJeyVTzZAUWS2b7-7" target="1prr6rJeyVTzZAUWS2b7-6" edge="1">
          <mxGeometry relative="1" as="geometry" />
        </mxCell>
        <mxCell id="F6jIhz8H1fu90_4huICA-4" style="edgeStyle=orthogonalEdgeStyle;rounded=0;orthogonalLoop=1;jettySize=auto;html=1;exitX=1;exitY=0.5;exitDx=0;exitDy=0;entryX=0.5;entryY=0;entryDx=0;entryDy=0;" parent="1" source="1prr6rJeyVTzZAUWS2b7-7" target="F6jIhz8H1fu90_4huICA-1" edge="1">
          <mxGeometry relative="1" as="geometry" />
        </mxCell>
        <mxCell id="1prr6rJeyVTzZAUWS2b7-7" value="Nível 2.1&lt;br&gt;Consultar por Nome/CPF" style="ellipse;whiteSpace=wrap;html=1;aspect=fixed;" parent="1" vertex="1">
          <mxGeometry x="220" y="-60" width="80" height="80" as="geometry" />
        </mxCell>
        <mxCell id="F6jIhz8H1fu90_4huICA-8" style="edgeStyle=orthogonalEdgeStyle;rounded=0;orthogonalLoop=1;jettySize=auto;html=1;exitX=0;exitY=0.5;exitDx=0;exitDy=0;entryX=0.75;entryY=1;entryDx=0;entryDy=0;" parent="1" source="rnIOwlIA6ATGhBKRF9MK-1" target="1prr6rJeyVTzZAUWS2b7-6" edge="1">
          <mxGeometry relative="1" as="geometry" />
        </mxCell>
        <mxCell id="F6jIhz8H1fu90_4huICA-9" style="edgeStyle=orthogonalEdgeStyle;rounded=0;orthogonalLoop=1;jettySize=auto;html=1;exitX=1;exitY=0;exitDx=0;exitDy=0;entryX=0;entryY=0.5;entryDx=0;entryDy=0;" parent="1" source="rnIOwlIA6ATGhBKRF9MK-1" target="F6jIhz8H1fu90_4huICA-1" edge="1">
          <mxGeometry relative="1" as="geometry" />
        </mxCell>
        <mxCell id="rnIOwlIA6ATGhBKRF9MK-1" value="Nível 2.1&lt;br style=&quot;border-color: var(--border-color);&quot;&gt;Listar dados" style="ellipse;whiteSpace=wrap;html=1;aspect=fixed;" parent="1" vertex="1">
          <mxGeometry x="220" y="80" width="80" height="80" as="geometry" />
        </mxCell>
        <mxCell id="F6jIhz8H1fu90_4huICA-6" style="edgeStyle=orthogonalEdgeStyle;rounded=0;orthogonalLoop=1;jettySize=auto;html=1;exitX=0.75;exitY=0;exitDx=0;exitDy=0;entryX=1;entryY=0;entryDx=0;entryDy=0;" parent="1" source="F6jIhz8H1fu90_4huICA-1" target="1prr6rJeyVTzZAUWS2b7-7" edge="1">
          <mxGeometry relative="1" as="geometry">
            <Array as="points">
              <mxPoint x="500" y="-60" />
              <mxPoint x="288" y="-60" />
            </Array>
          </mxGeometry>
        </mxCell>
        <mxCell id="F6jIhz8H1fu90_4huICA-10" style="edgeStyle=orthogonalEdgeStyle;rounded=0;orthogonalLoop=1;jettySize=auto;html=1;exitX=0.5;exitY=1;exitDx=0;exitDy=0;entryX=1;entryY=0.5;entryDx=0;entryDy=0;" parent="1" source="F6jIhz8H1fu90_4huICA-1" target="rnIOwlIA6ATGhBKRF9MK-1" edge="1">
          <mxGeometry relative="1" as="geometry" />
        </mxCell>
        <mxCell id="F6jIhz8H1fu90_4huICA-1" value="Base de Dados Paciente" style="shape=partialRectangle;whiteSpace=wrap;html=1;left=0;right=0;fillColor=none;" parent="1" vertex="1">
          <mxGeometry x="410" y="30" width="120" height="60" as="geometry" />
        </mxCell>
        <mxCell id="F6jIhz8H1fu90_4huICA-11" style="edgeStyle=orthogonalEdgeStyle;rounded=0;orthogonalLoop=1;jettySize=auto;html=1;exitX=0.75;exitY=0;exitDx=0;exitDy=0;entryX=0;entryY=0;entryDx=0;entryDy=0;" parent="1" source="F6jIhz8H1fu90_4huICA-13" target="F6jIhz8H1fu90_4huICA-16" edge="1">
          <mxGeometry relative="1" as="geometry" />
        </mxCell>
        <mxCell id="F6jIhz8H1fu90_4huICA-12" style="edgeStyle=orthogonalEdgeStyle;rounded=0;orthogonalLoop=1;jettySize=auto;html=1;exitX=0.5;exitY=1;exitDx=0;exitDy=0;entryX=0;entryY=1;entryDx=0;entryDy=0;" parent="1" source="F6jIhz8H1fu90_4huICA-13" target="F6jIhz8H1fu90_4huICA-19" edge="1">
          <mxGeometry relative="1" as="geometry" />
        </mxCell>
        <mxCell id="F6jIhz8H1fu90_4huICA-13" value="Doenças" style="rounded=0;whiteSpace=wrap;html=1;" parent="1" vertex="1">
          <mxGeometry x="80" y="385" width="59" height="60" as="geometry" />
        </mxCell>
        <mxCell id="F6jIhz8H1fu90_4huICA-14" style="edgeStyle=orthogonalEdgeStyle;rounded=0;orthogonalLoop=1;jettySize=auto;html=1;exitX=0.5;exitY=0;exitDx=0;exitDy=0;entryX=0.25;entryY=0;entryDx=0;entryDy=0;" parent="1" source="F6jIhz8H1fu90_4huICA-16" target="F6jIhz8H1fu90_4huICA-13" edge="1">
          <mxGeometry relative="1" as="geometry" />
        </mxCell>
        <mxCell id="F6jIhz8H1fu90_4huICA-15" style="edgeStyle=orthogonalEdgeStyle;rounded=0;orthogonalLoop=1;jettySize=auto;html=1;exitX=1;exitY=0.5;exitDx=0;exitDy=0;entryX=0.5;entryY=0;entryDx=0;entryDy=0;" parent="1" source="F6jIhz8H1fu90_4huICA-16" target="F6jIhz8H1fu90_4huICA-22" edge="1">
          <mxGeometry relative="1" as="geometry" />
        </mxCell>
        <mxCell id="F6jIhz8H1fu90_4huICA-16" value="Nível 2.2&lt;br&gt;Consultar por Nome/Num de registro" style="ellipse;whiteSpace=wrap;html=1;aspect=fixed;" parent="1" vertex="1">
          <mxGeometry x="220" y="305" width="80" height="80" as="geometry" />
        </mxCell>
        <mxCell id="F6jIhz8H1fu90_4huICA-17" style="edgeStyle=orthogonalEdgeStyle;rounded=0;orthogonalLoop=1;jettySize=auto;html=1;exitX=0;exitY=0.5;exitDx=0;exitDy=0;entryX=0.75;entryY=1;entryDx=0;entryDy=0;" parent="1" source="F6jIhz8H1fu90_4huICA-19" target="F6jIhz8H1fu90_4huICA-13" edge="1">
          <mxGeometry relative="1" as="geometry" />
        </mxCell>
        <mxCell id="F6jIhz8H1fu90_4huICA-18" style="edgeStyle=orthogonalEdgeStyle;rounded=0;orthogonalLoop=1;jettySize=auto;html=1;exitX=1;exitY=0;exitDx=0;exitDy=0;entryX=0;entryY=0.5;entryDx=0;entryDy=0;" parent="1" source="F6jIhz8H1fu90_4huICA-19" target="F6jIhz8H1fu90_4huICA-22" edge="1">
          <mxGeometry relative="1" as="geometry" />
        </mxCell>
        <mxCell id="F6jIhz8H1fu90_4huICA-19" value="Nível 2.2&lt;br style=&quot;border-color: var(--border-color);&quot;&gt;Listar dados" style="ellipse;whiteSpace=wrap;html=1;aspect=fixed;" parent="1" vertex="1">
          <mxGeometry x="220" y="445" width="80" height="80" as="geometry" />
        </mxCell>
        <mxCell id="F6jIhz8H1fu90_4huICA-20" style="edgeStyle=orthogonalEdgeStyle;rounded=0;orthogonalLoop=1;jettySize=auto;html=1;exitX=0.75;exitY=0;exitDx=0;exitDy=0;entryX=1;entryY=0;entryDx=0;entryDy=0;" parent="1" source="F6jIhz8H1fu90_4huICA-22" target="F6jIhz8H1fu90_4huICA-16" edge="1">
          <mxGeometry relative="1" as="geometry">
            <Array as="points">
              <mxPoint x="500" y="305" />
              <mxPoint x="288" y="305" />
            </Array>
          </mxGeometry>
        </mxCell>
        <mxCell id="F6jIhz8H1fu90_4huICA-21" style="edgeStyle=orthogonalEdgeStyle;rounded=0;orthogonalLoop=1;jettySize=auto;html=1;exitX=0.5;exitY=1;exitDx=0;exitDy=0;entryX=1;entryY=0.5;entryDx=0;entryDy=0;" parent="1" source="F6jIhz8H1fu90_4huICA-22" target="F6jIhz8H1fu90_4huICA-19" edge="1">
          <mxGeometry relative="1" as="geometry" />
        </mxCell>
        <mxCell id="F6jIhz8H1fu90_4huICA-22" value="Base de Dados Doenças" style="shape=partialRectangle;whiteSpace=wrap;html=1;left=0;right=0;fillColor=none;" parent="1" vertex="1">
          <mxGeometry x="410" y="395" width="120" height="60" as="geometry" />
        </mxCell>
        <mxCell id="XROKUrudzi6xczMZ0rNl-1" style="edgeStyle=orthogonalEdgeStyle;rounded=0;orthogonalLoop=1;jettySize=auto;html=1;exitX=0.75;exitY=0;exitDx=0;exitDy=0;entryX=0;entryY=0;entryDx=0;entryDy=0;" parent="1" source="XROKUrudzi6xczMZ0rNl-3" target="XROKUrudzi6xczMZ0rNl-6" edge="1">
          <mxGeometry relative="1" as="geometry" />
        </mxCell>
        <mxCell id="XROKUrudzi6xczMZ0rNl-2" style="edgeStyle=orthogonalEdgeStyle;rounded=0;orthogonalLoop=1;jettySize=auto;html=1;exitX=0.5;exitY=1;exitDx=0;exitDy=0;entryX=0;entryY=1;entryDx=0;entryDy=0;" parent="1" source="XROKUrudzi6xczMZ0rNl-3" target="XROKUrudzi6xczMZ0rNl-9" edge="1">
          <mxGeometry relative="1" as="geometry" />
        </mxCell>
        <mxCell id="XROKUrudzi6xczMZ0rNl-3" value="Médicos" style="rounded=0;whiteSpace=wrap;html=1;" parent="1" vertex="1">
          <mxGeometry x="80" y="685" width="59" height="60" as="geometry" />
        </mxCell>
        <mxCell id="XROKUrudzi6xczMZ0rNl-4" style="edgeStyle=orthogonalEdgeStyle;rounded=0;orthogonalLoop=1;jettySize=auto;html=1;exitX=0.5;exitY=0;exitDx=0;exitDy=0;entryX=0.25;entryY=0;entryDx=0;entryDy=0;" parent="1" source="XROKUrudzi6xczMZ0rNl-6" target="XROKUrudzi6xczMZ0rNl-3" edge="1">
          <mxGeometry relative="1" as="geometry" />
        </mxCell>
        <mxCell id="XROKUrudzi6xczMZ0rNl-5" style="edgeStyle=orthogonalEdgeStyle;rounded=0;orthogonalLoop=1;jettySize=auto;html=1;exitX=1;exitY=0.5;exitDx=0;exitDy=0;entryX=0.5;entryY=0;entryDx=0;entryDy=0;" parent="1" source="XROKUrudzi6xczMZ0rNl-6" target="XROKUrudzi6xczMZ0rNl-12" edge="1">
          <mxGeometry relative="1" as="geometry" />
        </mxCell>
        <mxCell id="XROKUrudzi6xczMZ0rNl-6" value="Nível 2.3&lt;br&gt;Consultar por Nome/CPF" style="ellipse;whiteSpace=wrap;html=1;aspect=fixed;" parent="1" vertex="1">
          <mxGeometry x="220" y="605" width="80" height="80" as="geometry" />
        </mxCell>
        <mxCell id="XROKUrudzi6xczMZ0rNl-7" style="edgeStyle=orthogonalEdgeStyle;rounded=0;orthogonalLoop=1;jettySize=auto;html=1;exitX=0;exitY=0.5;exitDx=0;exitDy=0;entryX=0.75;entryY=1;entryDx=0;entryDy=0;" parent="1" source="XROKUrudzi6xczMZ0rNl-9" target="XROKUrudzi6xczMZ0rNl-3" edge="1">
          <mxGeometry relative="1" as="geometry" />
        </mxCell>
        <mxCell id="XROKUrudzi6xczMZ0rNl-8" style="edgeStyle=orthogonalEdgeStyle;rounded=0;orthogonalLoop=1;jettySize=auto;html=1;exitX=1;exitY=0;exitDx=0;exitDy=0;entryX=0;entryY=0.5;entryDx=0;entryDy=0;" parent="1" source="XROKUrudzi6xczMZ0rNl-9" target="XROKUrudzi6xczMZ0rNl-12" edge="1">
          <mxGeometry relative="1" as="geometry" />
        </mxCell>
        <mxCell id="XROKUrudzi6xczMZ0rNl-9" value="Nível 2.3&lt;br style=&quot;border-color: var(--border-color);&quot;&gt;Listar dados" style="ellipse;whiteSpace=wrap;html=1;aspect=fixed;" parent="1" vertex="1">
          <mxGeometry x="220" y="745" width="80" height="80" as="geometry" />
        </mxCell>
        <mxCell id="XROKUrudzi6xczMZ0rNl-10" style="edgeStyle=orthogonalEdgeStyle;rounded=0;orthogonalLoop=1;jettySize=auto;html=1;exitX=0.75;exitY=0;exitDx=0;exitDy=0;entryX=1;entryY=0;entryDx=0;entryDy=0;" parent="1" source="XROKUrudzi6xczMZ0rNl-12" target="XROKUrudzi6xczMZ0rNl-6" edge="1">
          <mxGeometry relative="1" as="geometry">
            <Array as="points">
              <mxPoint x="500" y="605" />
              <mxPoint x="288" y="605" />
            </Array>
          </mxGeometry>
        </mxCell>
        <mxCell id="XROKUrudzi6xczMZ0rNl-11" style="edgeStyle=orthogonalEdgeStyle;rounded=0;orthogonalLoop=1;jettySize=auto;html=1;exitX=0.5;exitY=1;exitDx=0;exitDy=0;entryX=1;entryY=0.5;entryDx=0;entryDy=0;" parent="1" source="XROKUrudzi6xczMZ0rNl-12" target="XROKUrudzi6xczMZ0rNl-9" edge="1">
          <mxGeometry relative="1" as="geometry" />
        </mxCell>
        <mxCell id="XROKUrudzi6xczMZ0rNl-12" value="Base de Dados médicos" style="shape=partialRectangle;whiteSpace=wrap;html=1;left=0;right=0;fillColor=none;" parent="1" vertex="1">
          <mxGeometry x="410" y="695" width="120" height="60" as="geometry" />
        </mxCell>
        <mxCell id="XROKUrudzi6xczMZ0rNl-13" style="edgeStyle=orthogonalEdgeStyle;rounded=0;orthogonalLoop=1;jettySize=auto;html=1;exitX=0.75;exitY=0;exitDx=0;exitDy=0;entryX=0;entryY=0;entryDx=0;entryDy=0;" parent="1" source="XROKUrudzi6xczMZ0rNl-15" target="XROKUrudzi6xczMZ0rNl-18" edge="1">
          <mxGeometry relative="1" as="geometry" />
        </mxCell>
        <mxCell id="XROKUrudzi6xczMZ0rNl-14" style="edgeStyle=orthogonalEdgeStyle;rounded=0;orthogonalLoop=1;jettySize=auto;html=1;exitX=0.5;exitY=1;exitDx=0;exitDy=0;entryX=0;entryY=1;entryDx=0;entryDy=0;" parent="1" source="XROKUrudzi6xczMZ0rNl-15" target="XROKUrudzi6xczMZ0rNl-21" edge="1">
          <mxGeometry relative="1" as="geometry" />
        </mxCell>
        <mxCell id="XROKUrudzi6xczMZ0rNl-15" value="Funcionário" style="rounded=0;whiteSpace=wrap;html=1;" parent="1" vertex="1">
          <mxGeometry x="80" y="1010" width="59" height="60" as="geometry" />
        </mxCell>
        <mxCell id="XROKUrudzi6xczMZ0rNl-16" style="edgeStyle=orthogonalEdgeStyle;rounded=0;orthogonalLoop=1;jettySize=auto;html=1;exitX=0.5;exitY=0;exitDx=0;exitDy=0;entryX=0.25;entryY=0;entryDx=0;entryDy=0;" parent="1" source="XROKUrudzi6xczMZ0rNl-18" target="XROKUrudzi6xczMZ0rNl-15" edge="1">
          <mxGeometry relative="1" as="geometry" />
        </mxCell>
        <mxCell id="XROKUrudzi6xczMZ0rNl-17" style="edgeStyle=orthogonalEdgeStyle;rounded=0;orthogonalLoop=1;jettySize=auto;html=1;exitX=1;exitY=0.5;exitDx=0;exitDy=0;entryX=0.5;entryY=0;entryDx=0;entryDy=0;" parent="1" source="XROKUrudzi6xczMZ0rNl-18" target="XROKUrudzi6xczMZ0rNl-24" edge="1">
          <mxGeometry relative="1" as="geometry" />
        </mxCell>
        <mxCell id="XROKUrudzi6xczMZ0rNl-18" value="Nível 2.4&lt;br&gt;Consultar por Nome/CPF" style="ellipse;whiteSpace=wrap;html=1;aspect=fixed;" parent="1" vertex="1">
          <mxGeometry x="220" y="930" width="80" height="80" as="geometry" />
        </mxCell>
        <mxCell id="XROKUrudzi6xczMZ0rNl-19" style="edgeStyle=orthogonalEdgeStyle;rounded=0;orthogonalLoop=1;jettySize=auto;html=1;exitX=0;exitY=0.5;exitDx=0;exitDy=0;entryX=0.75;entryY=1;entryDx=0;entryDy=0;" parent="1" source="XROKUrudzi6xczMZ0rNl-21" target="XROKUrudzi6xczMZ0rNl-15" edge="1">
          <mxGeometry relative="1" as="geometry" />
        </mxCell>
        <mxCell id="XROKUrudzi6xczMZ0rNl-20" style="edgeStyle=orthogonalEdgeStyle;rounded=0;orthogonalLoop=1;jettySize=auto;html=1;exitX=1;exitY=0;exitDx=0;exitDy=0;entryX=0;entryY=0.5;entryDx=0;entryDy=0;" parent="1" source="XROKUrudzi6xczMZ0rNl-21" target="XROKUrudzi6xczMZ0rNl-24" edge="1">
          <mxGeometry relative="1" as="geometry" />
        </mxCell>
        <mxCell id="XROKUrudzi6xczMZ0rNl-21" value="Nível 2.4&lt;br style=&quot;border-color: var(--border-color);&quot;&gt;Listar dados" style="ellipse;whiteSpace=wrap;html=1;aspect=fixed;" parent="1" vertex="1">
          <mxGeometry x="220" y="1070" width="80" height="80" as="geometry" />
        </mxCell>
        <mxCell id="XROKUrudzi6xczMZ0rNl-22" style="edgeStyle=orthogonalEdgeStyle;rounded=0;orthogonalLoop=1;jettySize=auto;html=1;exitX=0.75;exitY=0;exitDx=0;exitDy=0;entryX=1;entryY=0;entryDx=0;entryDy=0;" parent="1" source="XROKUrudzi6xczMZ0rNl-24" target="XROKUrudzi6xczMZ0rNl-18" edge="1">
          <mxGeometry relative="1" as="geometry">
            <Array as="points">
              <mxPoint x="500" y="930" />
              <mxPoint x="288" y="930" />
            </Array>
          </mxGeometry>
        </mxCell>
        <mxCell id="XROKUrudzi6xczMZ0rNl-23" style="edgeStyle=orthogonalEdgeStyle;rounded=0;orthogonalLoop=1;jettySize=auto;html=1;exitX=0.5;exitY=1;exitDx=0;exitDy=0;entryX=1;entryY=0.5;entryDx=0;entryDy=0;" parent="1" source="XROKUrudzi6xczMZ0rNl-24" target="XROKUrudzi6xczMZ0rNl-21" edge="1">
          <mxGeometry relative="1" as="geometry" />
        </mxCell>
        <mxCell id="XROKUrudzi6xczMZ0rNl-24" value="Base de Dados funcionario" style="shape=partialRectangle;whiteSpace=wrap;html=1;left=0;right=0;fillColor=none;" parent="1" vertex="1">
          <mxGeometry x="410" y="1020" width="120" height="60" as="geometry" />
        </mxCell>
        <mxCell id="XROKUrudzi6xczMZ0rNl-25" style="edgeStyle=orthogonalEdgeStyle;rounded=0;orthogonalLoop=1;jettySize=auto;html=1;exitX=0.75;exitY=0;exitDx=0;exitDy=0;entryX=0;entryY=0;entryDx=0;entryDy=0;" parent="1" source="XROKUrudzi6xczMZ0rNl-27" target="XROKUrudzi6xczMZ0rNl-30" edge="1">
          <mxGeometry relative="1" as="geometry" />
        </mxCell>
        <mxCell id="XROKUrudzi6xczMZ0rNl-26" style="edgeStyle=orthogonalEdgeStyle;rounded=0;orthogonalLoop=1;jettySize=auto;html=1;exitX=0.5;exitY=1;exitDx=0;exitDy=0;entryX=0;entryY=1;entryDx=0;entryDy=0;" parent="1" source="XROKUrudzi6xczMZ0rNl-27" target="XROKUrudzi6xczMZ0rNl-33" edge="1">
          <mxGeometry relative="1" as="geometry" />
        </mxCell>
        <mxCell id="XROKUrudzi6xczMZ0rNl-27" value="Clinica" style="rounded=0;whiteSpace=wrap;html=1;" parent="1" vertex="1">
          <mxGeometry x="80" y="1320" width="59" height="60" as="geometry" />
        </mxCell>
        <mxCell id="XROKUrudzi6xczMZ0rNl-28" style="edgeStyle=orthogonalEdgeStyle;rounded=0;orthogonalLoop=1;jettySize=auto;html=1;exitX=0.5;exitY=0;exitDx=0;exitDy=0;entryX=0.25;entryY=0;entryDx=0;entryDy=0;" parent="1" source="XROKUrudzi6xczMZ0rNl-30" target="XROKUrudzi6xczMZ0rNl-27" edge="1">
          <mxGeometry relative="1" as="geometry" />
        </mxCell>
        <mxCell id="XROKUrudzi6xczMZ0rNl-29" style="edgeStyle=orthogonalEdgeStyle;rounded=0;orthogonalLoop=1;jettySize=auto;html=1;exitX=1;exitY=0.5;exitDx=0;exitDy=0;entryX=0.5;entryY=0;entryDx=0;entryDy=0;" parent="1" source="XROKUrudzi6xczMZ0rNl-30" target="XROKUrudzi6xczMZ0rNl-36" edge="1">
          <mxGeometry relative="1" as="geometry" />
        </mxCell>
        <mxCell id="XROKUrudzi6xczMZ0rNl-30" value="Nível 2.5&lt;br&gt;Consultar por Área do hospital" style="ellipse;whiteSpace=wrap;html=1;aspect=fixed;" parent="1" vertex="1">
          <mxGeometry x="220" y="1240" width="80" height="80" as="geometry" />
        </mxCell>
        <mxCell id="XROKUrudzi6xczMZ0rNl-31" style="edgeStyle=orthogonalEdgeStyle;rounded=0;orthogonalLoop=1;jettySize=auto;html=1;exitX=0;exitY=0.5;exitDx=0;exitDy=0;entryX=0.75;entryY=1;entryDx=0;entryDy=0;" parent="1" source="XROKUrudzi6xczMZ0rNl-33" target="XROKUrudzi6xczMZ0rNl-27" edge="1">
          <mxGeometry relative="1" as="geometry" />
        </mxCell>
        <mxCell id="XROKUrudzi6xczMZ0rNl-32" style="edgeStyle=orthogonalEdgeStyle;rounded=0;orthogonalLoop=1;jettySize=auto;html=1;exitX=1;exitY=0;exitDx=0;exitDy=0;entryX=0;entryY=0.5;entryDx=0;entryDy=0;" parent="1" source="XROKUrudzi6xczMZ0rNl-33" target="XROKUrudzi6xczMZ0rNl-36" edge="1">
          <mxGeometry relative="1" as="geometry" />
        </mxCell>
        <mxCell id="XROKUrudzi6xczMZ0rNl-33" value="Nível 2.5&lt;br style=&quot;border-color: var(--border-color);&quot;&gt;Listar dados" style="ellipse;whiteSpace=wrap;html=1;aspect=fixed;" parent="1" vertex="1">
          <mxGeometry x="220" y="1380" width="80" height="80" as="geometry" />
        </mxCell>
        <mxCell id="XROKUrudzi6xczMZ0rNl-34" style="edgeStyle=orthogonalEdgeStyle;rounded=0;orthogonalLoop=1;jettySize=auto;html=1;exitX=0.75;exitY=0;exitDx=0;exitDy=0;entryX=1;entryY=0;entryDx=0;entryDy=0;" parent="1" source="XROKUrudzi6xczMZ0rNl-36" target="XROKUrudzi6xczMZ0rNl-30" edge="1">
          <mxGeometry relative="1" as="geometry">
            <Array as="points">
              <mxPoint x="500" y="1240" />
              <mxPoint x="288" y="1240" />
            </Array>
          </mxGeometry>
        </mxCell>
        <mxCell id="XROKUrudzi6xczMZ0rNl-35" style="edgeStyle=orthogonalEdgeStyle;rounded=0;orthogonalLoop=1;jettySize=auto;html=1;exitX=0.5;exitY=1;exitDx=0;exitDy=0;entryX=1;entryY=0.5;entryDx=0;entryDy=0;" parent="1" source="XROKUrudzi6xczMZ0rNl-36" target="XROKUrudzi6xczMZ0rNl-33" edge="1">
          <mxGeometry relative="1" as="geometry" />
        </mxCell>
        <mxCell id="XROKUrudzi6xczMZ0rNl-36" value="Base de Dados funcionario" style="shape=partialRectangle;whiteSpace=wrap;html=1;left=0;right=0;fillColor=none;" parent="1" vertex="1">
          <mxGeometry x="410" y="1330" width="120" height="60" as="geometry" />
        </mxCell>
        <mxCell id="XROKUrudzi6xczMZ0rNl-37" style="edgeStyle=orthogonalEdgeStyle;rounded=0;orthogonalLoop=1;jettySize=auto;html=1;exitX=0.75;exitY=0;exitDx=0;exitDy=0;entryX=0;entryY=0;entryDx=0;entryDy=0;" parent="1" source="XROKUrudzi6xczMZ0rNl-39" target="XROKUrudzi6xczMZ0rNl-42" edge="1">
          <mxGeometry relative="1" as="geometry" />
        </mxCell>
        <mxCell id="XROKUrudzi6xczMZ0rNl-38" style="edgeStyle=orthogonalEdgeStyle;rounded=0;orthogonalLoop=1;jettySize=auto;html=1;exitX=0.5;exitY=1;exitDx=0;exitDy=0;entryX=0;entryY=1;entryDx=0;entryDy=0;" parent="1" source="XROKUrudzi6xczMZ0rNl-39" target="XROKUrudzi6xczMZ0rNl-45" edge="1">
          <mxGeometry relative="1" as="geometry" />
        </mxCell>
        <mxCell id="XROKUrudzi6xczMZ0rNl-39" value="Hospital" style="rounded=0;whiteSpace=wrap;html=1;" parent="1" vertex="1">
          <mxGeometry x="80" y="1610" width="59" height="60" as="geometry" />
        </mxCell>
        <mxCell id="XROKUrudzi6xczMZ0rNl-40" style="edgeStyle=orthogonalEdgeStyle;rounded=0;orthogonalLoop=1;jettySize=auto;html=1;exitX=0.5;exitY=0;exitDx=0;exitDy=0;entryX=0.25;entryY=0;entryDx=0;entryDy=0;" parent="1" source="XROKUrudzi6xczMZ0rNl-42" target="XROKUrudzi6xczMZ0rNl-39" edge="1">
          <mxGeometry relative="1" as="geometry" />
        </mxCell>
        <mxCell id="XROKUrudzi6xczMZ0rNl-41" style="edgeStyle=orthogonalEdgeStyle;rounded=0;orthogonalLoop=1;jettySize=auto;html=1;exitX=1;exitY=0.5;exitDx=0;exitDy=0;entryX=0.5;entryY=0;entryDx=0;entryDy=0;" parent="1" source="XROKUrudzi6xczMZ0rNl-42" target="XROKUrudzi6xczMZ0rNl-48" edge="1">
          <mxGeometry relative="1" as="geometry" />
        </mxCell>
        <mxCell id="XROKUrudzi6xczMZ0rNl-42" value="Nível 2.6&lt;br&gt;Consultar por Área do hospital" style="ellipse;whiteSpace=wrap;html=1;aspect=fixed;" parent="1" vertex="1">
          <mxGeometry x="220" y="1530" width="80" height="80" as="geometry" />
        </mxCell>
        <mxCell id="XROKUrudzi6xczMZ0rNl-43" style="edgeStyle=orthogonalEdgeStyle;rounded=0;orthogonalLoop=1;jettySize=auto;html=1;exitX=0;exitY=0.5;exitDx=0;exitDy=0;entryX=0.75;entryY=1;entryDx=0;entryDy=0;" parent="1" source="XROKUrudzi6xczMZ0rNl-45" target="XROKUrudzi6xczMZ0rNl-39" edge="1">
          <mxGeometry relative="1" as="geometry" />
        </mxCell>
        <mxCell id="XROKUrudzi6xczMZ0rNl-44" style="edgeStyle=orthogonalEdgeStyle;rounded=0;orthogonalLoop=1;jettySize=auto;html=1;exitX=1;exitY=0;exitDx=0;exitDy=0;entryX=0;entryY=0.5;entryDx=0;entryDy=0;" parent="1" source="XROKUrudzi6xczMZ0rNl-45" target="XROKUrudzi6xczMZ0rNl-48" edge="1">
          <mxGeometry relative="1" as="geometry" />
        </mxCell>
        <mxCell id="XROKUrudzi6xczMZ0rNl-45" value="Nível 2.6&lt;br style=&quot;border-color: var(--border-color);&quot;&gt;Listar dados" style="ellipse;whiteSpace=wrap;html=1;aspect=fixed;" parent="1" vertex="1">
          <mxGeometry x="220" y="1670" width="80" height="80" as="geometry" />
        </mxCell>
        <mxCell id="XROKUrudzi6xczMZ0rNl-46" style="edgeStyle=orthogonalEdgeStyle;rounded=0;orthogonalLoop=1;jettySize=auto;html=1;exitX=0.75;exitY=0;exitDx=0;exitDy=0;entryX=1;entryY=0;entryDx=0;entryDy=0;" parent="1" source="XROKUrudzi6xczMZ0rNl-48" target="XROKUrudzi6xczMZ0rNl-42" edge="1">
          <mxGeometry relative="1" as="geometry">
            <Array as="points">
              <mxPoint x="500" y="1530" />
              <mxPoint x="288" y="1530" />
            </Array>
          </mxGeometry>
        </mxCell>
        <mxCell id="XROKUrudzi6xczMZ0rNl-47" style="edgeStyle=orthogonalEdgeStyle;rounded=0;orthogonalLoop=1;jettySize=auto;html=1;exitX=0.5;exitY=1;exitDx=0;exitDy=0;entryX=1;entryY=0.5;entryDx=0;entryDy=0;" parent="1" source="XROKUrudzi6xczMZ0rNl-48" target="XROKUrudzi6xczMZ0rNl-45" edge="1">
          <mxGeometry relative="1" as="geometry" />
        </mxCell>
        <mxCell id="XROKUrudzi6xczMZ0rNl-48" value="Base de Dados funcionario" style="shape=partialRectangle;whiteSpace=wrap;html=1;left=0;right=0;fillColor=none;" parent="1" vertex="1">
          <mxGeometry x="410" y="1620" width="120" height="60" as="geometry" />
        </mxCell>
        <mxCell id="s3zrW84gsYrKu4Ib1TNt-1" value="Dados do Paciente" style="text;html=1;strokeColor=none;fillColor=none;align=center;verticalAlign=middle;whiteSpace=wrap;rounded=0;" parent="1" vertex="1">
          <mxGeometry x="140" y="-120" width="60" height="30" as="geometry" />
        </mxCell>
        <mxCell id="s3zrW84gsYrKu4Ib1TNt-2" value="Status" style="text;html=1;strokeColor=none;fillColor=none;align=center;verticalAlign=middle;whiteSpace=wrap;rounded=0;" parent="1" vertex="1">
          <mxGeometry x="140" y="-50" width="60" height="30" as="geometry" />
        </mxCell>
        <mxCell id="oyDMESe23TMKteWDyrZ0-1" value="Dados do Paciente" style="text;html=1;strokeColor=none;fillColor=none;align=center;verticalAlign=middle;whiteSpace=wrap;rounded=0;" parent="1" vertex="1">
          <mxGeometry x="370" y="-100" width="60" height="30" as="geometry" />
        </mxCell>
        <mxCell id="-iSg1mEzFKsi8Gn09YAG-1" value="Status" style="text;html=1;strokeColor=none;fillColor=none;align=center;verticalAlign=middle;whiteSpace=wrap;rounded=0;" parent="1" vertex="1">
          <mxGeometry x="360" y="-20" width="60" height="30" as="geometry" />
        </mxCell>
        <mxCell id="-iSg1mEzFKsi8Gn09YAG-2" value="Dados do Paciente" style="text;html=1;strokeColor=none;fillColor=none;align=center;verticalAlign=middle;whiteSpace=wrap;rounded=0;" parent="1" vertex="1">
          <mxGeometry x="139" y="160" width="60" height="30" as="geometry" />
        </mxCell>
        <mxCell id="-iSg1mEzFKsi8Gn09YAG-3" value="Status" style="text;html=1;strokeColor=none;fillColor=none;align=center;verticalAlign=middle;whiteSpace=wrap;rounded=0;" parent="1" vertex="1">
          <mxGeometry x="139" y="90" width="60" height="30" as="geometry" />
        </mxCell>
        <mxCell id="-iSg1mEzFKsi8Gn09YAG-4" value="Dados do Paciente" style="text;html=1;strokeColor=none;fillColor=none;align=center;verticalAlign=middle;whiteSpace=wrap;rounded=0;" parent="1" vertex="1">
          <mxGeometry x="290" y="60" width="60" height="30" as="geometry" />
        </mxCell>
        <mxCell id="-iSg1mEzFKsi8Gn09YAG-5" value="Status" style="text;html=1;strokeColor=none;fillColor=none;align=center;verticalAlign=middle;whiteSpace=wrap;rounded=0;" parent="1" vertex="1">
          <mxGeometry x="365" y="120" width="60" height="30" as="geometry" />
        </mxCell>
        <mxCell id="-iSg1mEzFKsi8Gn09YAG-6" value="Dados do doença" style="text;html=1;strokeColor=none;fillColor=none;align=center;verticalAlign=middle;whiteSpace=wrap;rounded=0;" parent="1" vertex="1">
          <mxGeometry x="139" y="330" width="60" height="30" as="geometry" />
        </mxCell>
        <mxCell id="-iSg1mEzFKsi8Gn09YAG-7" value="Dados do doença" style="text;html=1;strokeColor=none;fillColor=none;align=center;verticalAlign=middle;whiteSpace=wrap;rounded=0;" parent="1" vertex="1">
          <mxGeometry x="140" y="520" width="60" height="30" as="geometry" />
        </mxCell>
        <mxCell id="-iSg1mEzFKsi8Gn09YAG-8" value="Dados do doença" style="text;html=1;strokeColor=none;fillColor=none;align=center;verticalAlign=middle;whiteSpace=wrap;rounded=0;" parent="1" vertex="1">
          <mxGeometry x="290" y="425" width="60" height="30" as="geometry" />
        </mxCell>
        <mxCell id="-iSg1mEzFKsi8Gn09YAG-9" value="Dados do doença" style="text;html=1;strokeColor=none;fillColor=none;align=center;verticalAlign=middle;whiteSpace=wrap;rounded=0;" parent="1" vertex="1">
          <mxGeometry x="330" y="350" width="60" height="30" as="geometry" />
        </mxCell>
        <mxCell id="-iSg1mEzFKsi8Gn09YAG-10" value="Status" style="text;html=1;strokeColor=none;fillColor=none;align=center;verticalAlign=middle;whiteSpace=wrap;rounded=0;" parent="1" vertex="1">
          <mxGeometry x="140" y="260" width="60" height="30" as="geometry" />
        </mxCell>
        <mxCell id="-iSg1mEzFKsi8Gn09YAG-11" value="Status" style="text;html=1;strokeColor=none;fillColor=none;align=center;verticalAlign=middle;whiteSpace=wrap;rounded=0;" parent="1" vertex="1">
          <mxGeometry x="350" y="275" width="60" height="30" as="geometry" />
        </mxCell>
        <mxCell id="-iSg1mEzFKsi8Gn09YAG-12" value="Status" style="text;html=1;strokeColor=none;fillColor=none;align=center;verticalAlign=middle;whiteSpace=wrap;rounded=0;" parent="1" vertex="1">
          <mxGeometry x="350" y="490" width="60" height="30" as="geometry" />
        </mxCell>
        <mxCell id="-iSg1mEzFKsi8Gn09YAG-13" value="Status" style="text;html=1;strokeColor=none;fillColor=none;align=center;verticalAlign=middle;whiteSpace=wrap;rounded=0;" parent="1" vertex="1">
          <mxGeometry x="140" y="455" width="60" height="30" as="geometry" />
        </mxCell>
        <mxCell id="-iSg1mEzFKsi8Gn09YAG-14" value="Dados do médico" style="text;html=1;strokeColor=none;fillColor=none;align=center;verticalAlign=middle;whiteSpace=wrap;rounded=0;" parent="1" vertex="1">
          <mxGeometry x="140" y="630" width="60" height="30" as="geometry" />
        </mxCell>
        <mxCell id="-iSg1mEzFKsi8Gn09YAG-15" value="Dados do médico" style="text;html=1;strokeColor=none;fillColor=none;align=center;verticalAlign=middle;whiteSpace=wrap;rounded=0;" parent="1" vertex="1">
          <mxGeometry x="140" y="825" width="60" height="30" as="geometry" />
        </mxCell>
        <mxCell id="-iSg1mEzFKsi8Gn09YAG-16" value="Dados do médico" style="text;html=1;strokeColor=none;fillColor=none;align=center;verticalAlign=middle;whiteSpace=wrap;rounded=0;" parent="1" vertex="1">
          <mxGeometry x="290" y="725" width="60" height="30" as="geometry" />
        </mxCell>
        <mxCell id="-iSg1mEzFKsi8Gn09YAG-17" value="Dados do médico" style="text;html=1;strokeColor=none;fillColor=none;align=center;verticalAlign=middle;whiteSpace=wrap;rounded=0;" parent="1" vertex="1">
          <mxGeometry x="320" y="650" width="60" height="30" as="geometry" />
        </mxCell>
        <mxCell id="-iSg1mEzFKsi8Gn09YAG-18" value="Status" style="text;html=1;strokeColor=none;fillColor=none;align=center;verticalAlign=middle;whiteSpace=wrap;rounded=0;" parent="1" vertex="1">
          <mxGeometry x="140" y="560" width="60" height="30" as="geometry" />
        </mxCell>
        <mxCell id="-iSg1mEzFKsi8Gn09YAG-19" value="Status" style="text;html=1;strokeColor=none;fillColor=none;align=center;verticalAlign=middle;whiteSpace=wrap;rounded=0;" parent="1" vertex="1">
          <mxGeometry x="370" y="575" width="60" height="30" as="geometry" />
        </mxCell>
        <mxCell id="-iSg1mEzFKsi8Gn09YAG-20" value="Status" style="text;html=1;strokeColor=none;fillColor=none;align=center;verticalAlign=middle;whiteSpace=wrap;rounded=0;" parent="1" vertex="1">
          <mxGeometry x="370" y="790" width="60" height="30" as="geometry" />
        </mxCell>
        <mxCell id="-iSg1mEzFKsi8Gn09YAG-21" value="Status" style="text;html=1;strokeColor=none;fillColor=none;align=center;verticalAlign=middle;whiteSpace=wrap;rounded=0;" parent="1" vertex="1">
          <mxGeometry x="140" y="760" width="60" height="30" as="geometry" />
        </mxCell>
        <mxCell id="-iSg1mEzFKsi8Gn09YAG-22" value="Dados do funcionario" style="text;html=1;strokeColor=none;fillColor=none;align=center;verticalAlign=middle;whiteSpace=wrap;rounded=0;" parent="1" vertex="1">
          <mxGeometry x="350" y="980" width="60" height="30" as="geometry" />
        </mxCell>
        <mxCell id="-iSg1mEzFKsi8Gn09YAG-23" value="Dados do funcionario" style="text;html=1;strokeColor=none;fillColor=none;align=center;verticalAlign=middle;whiteSpace=wrap;rounded=0;" parent="1" vertex="1">
          <mxGeometry x="140" y="955" width="60" height="30" as="geometry" />
        </mxCell>
        <mxCell id="-iSg1mEzFKsi8Gn09YAG-24" value="Dados do funcionario" style="text;html=1;strokeColor=none;fillColor=none;align=center;verticalAlign=middle;whiteSpace=wrap;rounded=0;" parent="1" vertex="1">
          <mxGeometry x="140" y="1150" width="60" height="30" as="geometry" />
        </mxCell>
        <mxCell id="-iSg1mEzFKsi8Gn09YAG-25" value="Dados do funcionario" style="text;html=1;strokeColor=none;fillColor=none;align=center;verticalAlign=middle;whiteSpace=wrap;rounded=0;" parent="1" vertex="1">
          <mxGeometry x="290" y="1050" width="60" height="30" as="geometry" />
        </mxCell>
        <mxCell id="-iSg1mEzFKsi8Gn09YAG-26" value="Status" style="text;html=1;strokeColor=none;fillColor=none;align=center;verticalAlign=middle;whiteSpace=wrap;rounded=0;" parent="1" vertex="1">
          <mxGeometry x="140" y="880" width="60" height="30" as="geometry" />
        </mxCell>
        <mxCell id="-iSg1mEzFKsi8Gn09YAG-27" value="Status" style="text;html=1;strokeColor=none;fillColor=none;align=center;verticalAlign=middle;whiteSpace=wrap;rounded=0;" parent="1" vertex="1">
          <mxGeometry x="365" y="900" width="60" height="30" as="geometry" />
        </mxCell>
        <mxCell id="-iSg1mEzFKsi8Gn09YAG-28" value="Status" style="text;html=1;strokeColor=none;fillColor=none;align=center;verticalAlign=middle;whiteSpace=wrap;rounded=0;" parent="1" vertex="1">
          <mxGeometry x="140" y="1080" width="60" height="30" as="geometry" />
        </mxCell>
        <mxCell id="-iSg1mEzFKsi8Gn09YAG-29" value="Status" style="text;html=1;strokeColor=none;fillColor=none;align=center;verticalAlign=middle;whiteSpace=wrap;rounded=0;" parent="1" vertex="1">
          <mxGeometry x="365" y="1120" width="60" height="30" as="geometry" />
        </mxCell>
        <mxCell id="-iSg1mEzFKsi8Gn09YAG-30" value="Dados do clinica" style="text;html=1;strokeColor=none;fillColor=none;align=center;verticalAlign=middle;whiteSpace=wrap;rounded=0;" parent="1" vertex="1">
          <mxGeometry x="350" y="1290" width="60" height="30" as="geometry" />
        </mxCell>
        <mxCell id="-iSg1mEzFKsi8Gn09YAG-31" value="Dados do clinica" style="text;html=1;strokeColor=none;fillColor=none;align=center;verticalAlign=middle;whiteSpace=wrap;rounded=0;" parent="1" vertex="1">
          <mxGeometry x="140" y="1260" width="60" height="30" as="geometry" />
        </mxCell>
        <mxCell id="-iSg1mEzFKsi8Gn09YAG-32" value="Dados do clinica" style="text;html=1;strokeColor=none;fillColor=none;align=center;verticalAlign=middle;whiteSpace=wrap;rounded=0;" parent="1" vertex="1">
          <mxGeometry x="140" y="1450" width="60" height="30" as="geometry" />
        </mxCell>
        <mxCell id="-iSg1mEzFKsi8Gn09YAG-33" value="Dados do clinica" style="text;html=1;strokeColor=none;fillColor=none;align=center;verticalAlign=middle;whiteSpace=wrap;rounded=0;" parent="1" vertex="1">
          <mxGeometry x="300" y="1360" width="60" height="30" as="geometry" />
        </mxCell>
        <mxCell id="-iSg1mEzFKsi8Gn09YAG-34" value="Status" style="text;html=1;strokeColor=none;fillColor=none;align=center;verticalAlign=middle;whiteSpace=wrap;rounded=0;" parent="1" vertex="1">
          <mxGeometry x="139" y="1190" width="60" height="30" as="geometry" />
        </mxCell>
        <mxCell id="-iSg1mEzFKsi8Gn09YAG-35" value="Status" style="text;html=1;strokeColor=none;fillColor=none;align=center;verticalAlign=middle;whiteSpace=wrap;rounded=0;" parent="1" vertex="1">
          <mxGeometry x="365" y="1210" width="60" height="30" as="geometry" />
        </mxCell>
        <mxCell id="-iSg1mEzFKsi8Gn09YAG-36" value="Status" style="text;html=1;strokeColor=none;fillColor=none;align=center;verticalAlign=middle;whiteSpace=wrap;rounded=0;" parent="1" vertex="1">
          <mxGeometry x="350" y="1430" width="60" height="30" as="geometry" />
        </mxCell>
        <mxCell id="-iSg1mEzFKsi8Gn09YAG-37" value="Status" style="text;html=1;strokeColor=none;fillColor=none;align=center;verticalAlign=middle;whiteSpace=wrap;rounded=0;" parent="1" vertex="1">
          <mxGeometry x="140" y="1390" width="60" height="30" as="geometry" />
        </mxCell>
        <mxCell id="-iSg1mEzFKsi8Gn09YAG-38" value="Dados do hospital" style="text;html=1;strokeColor=none;fillColor=none;align=center;verticalAlign=middle;whiteSpace=wrap;rounded=0;" parent="1" vertex="1">
          <mxGeometry x="340" y="1580" width="60" height="30" as="geometry" />
        </mxCell>
        <mxCell id="-iSg1mEzFKsi8Gn09YAG-39" value="Dados do hospital" style="text;html=1;strokeColor=none;fillColor=none;align=center;verticalAlign=middle;whiteSpace=wrap;rounded=0;" parent="1" vertex="1">
          <mxGeometry x="140" y="1550" width="60" height="30" as="geometry" />
        </mxCell>
        <mxCell id="-iSg1mEzFKsi8Gn09YAG-40" value="Dados do hospital" style="text;html=1;strokeColor=none;fillColor=none;align=center;verticalAlign=middle;whiteSpace=wrap;rounded=0;" parent="1" vertex="1">
          <mxGeometry x="139" y="1750" width="60" height="30" as="geometry" />
        </mxCell>
        <mxCell id="-iSg1mEzFKsi8Gn09YAG-41" value="Dados do hospital" style="text;html=1;strokeColor=none;fillColor=none;align=center;verticalAlign=middle;whiteSpace=wrap;rounded=0;" parent="1" vertex="1">
          <mxGeometry x="290" y="1650" width="60" height="30" as="geometry" />
        </mxCell>
        <mxCell id="-iSg1mEzFKsi8Gn09YAG-42" value="Status" style="text;html=1;strokeColor=none;fillColor=none;align=center;verticalAlign=middle;whiteSpace=wrap;rounded=0;" parent="1" vertex="1">
          <mxGeometry x="140" y="1490" width="60" height="30" as="geometry" />
        </mxCell>
        <mxCell id="-iSg1mEzFKsi8Gn09YAG-43" value="Status" style="text;html=1;strokeColor=none;fillColor=none;align=center;verticalAlign=middle;whiteSpace=wrap;rounded=0;" parent="1" vertex="1">
          <mxGeometry x="350" y="1500" width="60" height="30" as="geometry" />
        </mxCell>
        <mxCell id="-iSg1mEzFKsi8Gn09YAG-44" value="Status" style="text;html=1;strokeColor=none;fillColor=none;align=center;verticalAlign=middle;whiteSpace=wrap;rounded=0;" parent="1" vertex="1">
          <mxGeometry x="350" y="1710" width="60" height="30" as="geometry" />
        </mxCell>
        <mxCell id="-iSg1mEzFKsi8Gn09YAG-45" value="Status" style="text;html=1;strokeColor=none;fillColor=none;align=center;verticalAlign=middle;whiteSpace=wrap;rounded=0;" parent="1" vertex="1">
          <mxGeometry x="140" y="1680" width="60" height="30" as="geometry" />
        </mxCell>
      </root>
    </mxGraphModel>
  </diagram>
  <diagram id="ajIotnRvuUW1MTUKk15n" name="Mer">
    <mxGraphModel dx="2227" dy="806" grid="1" gridSize="10" guides="1" tooltips="1" connect="1" arrows="1" fold="1" page="1" pageScale="1" pageWidth="850" pageHeight="1100" math="0" shadow="0">
      <root>
        <mxCell id="0" />
        <mxCell id="1" parent="0" />
        <mxCell id="y5Ed2lpBT8OlyU-rIpee-1" style="edgeStyle=orthogonalEdgeStyle;rounded=0;orthogonalLoop=1;jettySize=auto;html=1;exitX=1;exitY=0.5;exitDx=0;exitDy=0;entryX=0;entryY=0.5;entryDx=0;entryDy=0;endArrow=none;endFill=0;" edge="1" parent="1" source="6f8swuai8tcjfhOtw3OV-1" target="Bw5PorRErxa5mvSi2blK-1">
          <mxGeometry relative="1" as="geometry" />
        </mxCell>
        <mxCell id="y5Ed2lpBT8OlyU-rIpee-7" style="edgeStyle=orthogonalEdgeStyle;rounded=0;orthogonalLoop=1;jettySize=auto;html=1;exitX=0.5;exitY=1;exitDx=0;exitDy=0;entryX=0.5;entryY=0;entryDx=0;entryDy=0;endArrow=none;endFill=0;" edge="1" parent="1" source="6f8swuai8tcjfhOtw3OV-1" target="y5Ed2lpBT8OlyU-rIpee-6">
          <mxGeometry relative="1" as="geometry" />
        </mxCell>
        <mxCell id="6f8swuai8tcjfhOtw3OV-1" value="Paciente" style="rounded=0;whiteSpace=wrap;html=1;" vertex="1" parent="1">
          <mxGeometry x="205.5" y="172.5" width="59" height="60" as="geometry" />
        </mxCell>
        <mxCell id="6f8swuai8tcjfhOtw3OV-2" value="Doenças" style="rounded=0;whiteSpace=wrap;html=1;" vertex="1" parent="1">
          <mxGeometry x="540.5" y="172.5" width="59" height="60" as="geometry" />
        </mxCell>
        <mxCell id="6f8swuai8tcjfhOtw3OV-3" value="Médicos" style="rounded=0;whiteSpace=wrap;html=1;" vertex="1" parent="1">
          <mxGeometry x="205.5" y="482.5" width="59" height="60" as="geometry" />
        </mxCell>
        <mxCell id="y5Ed2lpBT8OlyU-rIpee-28" style="edgeStyle=orthogonalEdgeStyle;rounded=0;orthogonalLoop=1;jettySize=auto;html=1;exitX=1;exitY=0.5;exitDx=0;exitDy=0;entryX=0;entryY=0.5;entryDx=0;entryDy=0;endArrow=none;endFill=0;" edge="1" parent="1" source="6f8swuai8tcjfhOtw3OV-4" target="y5Ed2lpBT8OlyU-rIpee-27">
          <mxGeometry relative="1" as="geometry" />
        </mxCell>
        <mxCell id="6f8swuai8tcjfhOtw3OV-4" value="Funcionário" style="rounded=0;whiteSpace=wrap;html=1;" vertex="1" parent="1">
          <mxGeometry x="-200" y="40" width="59" height="60" as="geometry" />
        </mxCell>
        <mxCell id="y5Ed2lpBT8OlyU-rIpee-18" style="edgeStyle=orthogonalEdgeStyle;rounded=0;orthogonalLoop=1;jettySize=auto;html=1;exitX=1;exitY=0.5;exitDx=0;exitDy=0;entryX=0;entryY=0.5;entryDx=0;entryDy=0;endArrow=none;endFill=0;" edge="1" parent="1" source="6f8swuai8tcjfhOtw3OV-5" target="y5Ed2lpBT8OlyU-rIpee-16">
          <mxGeometry relative="1" as="geometry" />
        </mxCell>
        <mxCell id="y5Ed2lpBT8OlyU-rIpee-20" style="edgeStyle=orthogonalEdgeStyle;rounded=0;orthogonalLoop=1;jettySize=auto;html=1;exitX=0.5;exitY=0;exitDx=0;exitDy=0;entryX=0;entryY=0.5;entryDx=0;entryDy=0;endArrow=none;endFill=0;" edge="1" parent="1" source="6f8swuai8tcjfhOtw3OV-5" target="y5Ed2lpBT8OlyU-rIpee-17">
          <mxGeometry relative="1" as="geometry" />
        </mxCell>
        <mxCell id="y5Ed2lpBT8OlyU-rIpee-34" style="edgeStyle=orthogonalEdgeStyle;rounded=0;orthogonalLoop=1;jettySize=auto;html=1;exitX=0.25;exitY=0;exitDx=0;exitDy=0;entryX=1;entryY=0.5;entryDx=0;entryDy=0;endArrow=none;endFill=0;" edge="1" parent="1" source="6f8swuai8tcjfhOtw3OV-5" target="y5Ed2lpBT8OlyU-rIpee-30">
          <mxGeometry relative="1" as="geometry" />
        </mxCell>
        <mxCell id="6f8swuai8tcjfhOtw3OV-5" value="Clinica" style="rounded=0;whiteSpace=wrap;html=1;" vertex="1" parent="1">
          <mxGeometry x="-160" y="482.5" width="59" height="60" as="geometry" />
        </mxCell>
        <mxCell id="y5Ed2lpBT8OlyU-rIpee-12" style="edgeStyle=orthogonalEdgeStyle;rounded=0;orthogonalLoop=1;jettySize=auto;html=1;exitX=1;exitY=0.5;exitDx=0;exitDy=0;entryX=0;entryY=0.5;entryDx=0;entryDy=0;endArrow=none;endFill=0;" edge="1" parent="1" source="6f8swuai8tcjfhOtw3OV-6" target="y5Ed2lpBT8OlyU-rIpee-11">
          <mxGeometry relative="1" as="geometry" />
        </mxCell>
        <mxCell id="y5Ed2lpBT8OlyU-rIpee-35" style="edgeStyle=orthogonalEdgeStyle;rounded=0;orthogonalLoop=1;jettySize=auto;html=1;exitX=0.5;exitY=0;exitDx=0;exitDy=0;entryX=0;entryY=0.5;entryDx=0;entryDy=0;endArrow=none;endFill=0;" edge="1" parent="1" source="6f8swuai8tcjfhOtw3OV-6" target="y5Ed2lpBT8OlyU-rIpee-30">
          <mxGeometry relative="1" as="geometry" />
        </mxCell>
        <mxCell id="6f8swuai8tcjfhOtw3OV-6" value="Hospital" style="rounded=0;whiteSpace=wrap;html=1;" vertex="1" parent="1">
          <mxGeometry x="-510" y="482.5" width="59" height="60" as="geometry" />
        </mxCell>
        <mxCell id="y5Ed2lpBT8OlyU-rIpee-2" style="edgeStyle=orthogonalEdgeStyle;rounded=0;orthogonalLoop=1;jettySize=auto;html=1;exitX=1;exitY=0.5;exitDx=0;exitDy=0;entryX=0;entryY=0.5;entryDx=0;entryDy=0;endArrow=none;endFill=0;" edge="1" parent="1" source="Bw5PorRErxa5mvSi2blK-1" target="6f8swuai8tcjfhOtw3OV-2">
          <mxGeometry relative="1" as="geometry" />
        </mxCell>
        <mxCell id="Bw5PorRErxa5mvSi2blK-1" value="tem" style="rhombus;whiteSpace=wrap;html=1;" vertex="1" parent="1">
          <mxGeometry x="355.5" y="150" width="105" height="105" as="geometry" />
        </mxCell>
        <mxCell id="y5Ed2lpBT8OlyU-rIpee-3" value="1,N" style="text;html=1;strokeColor=none;fillColor=none;align=center;verticalAlign=middle;whiteSpace=wrap;rounded=0;" vertex="1" parent="1">
          <mxGeometry x="485.5" y="172.5" width="60" height="30" as="geometry" />
        </mxCell>
        <mxCell id="y5Ed2lpBT8OlyU-rIpee-4" value="1,N" style="text;html=1;strokeColor=none;fillColor=none;align=center;verticalAlign=middle;whiteSpace=wrap;rounded=0;" vertex="1" parent="1">
          <mxGeometry x="264.5" y="172.5" width="60" height="30" as="geometry" />
        </mxCell>
        <mxCell id="y5Ed2lpBT8OlyU-rIpee-8" style="edgeStyle=orthogonalEdgeStyle;rounded=0;orthogonalLoop=1;jettySize=auto;html=1;exitX=0.5;exitY=1;exitDx=0;exitDy=0;entryX=0.5;entryY=0;entryDx=0;entryDy=0;endArrow=none;endFill=0;" edge="1" parent="1" source="y5Ed2lpBT8OlyU-rIpee-6" target="6f8swuai8tcjfhOtw3OV-3">
          <mxGeometry relative="1" as="geometry" />
        </mxCell>
        <mxCell id="y5Ed2lpBT8OlyU-rIpee-6" value="Pode ser atendido" style="rhombus;whiteSpace=wrap;html=1;" vertex="1" parent="1">
          <mxGeometry x="190" y="312.5" width="90" height="90" as="geometry" />
        </mxCell>
        <mxCell id="y5Ed2lpBT8OlyU-rIpee-9" value="1,N" style="text;html=1;strokeColor=none;fillColor=none;align=center;verticalAlign=middle;whiteSpace=wrap;rounded=0;" vertex="1" parent="1">
          <mxGeometry x="220" y="452.5" width="60" height="30" as="geometry" />
        </mxCell>
        <mxCell id="y5Ed2lpBT8OlyU-rIpee-10" value="1" style="text;html=1;strokeColor=none;fillColor=none;align=center;verticalAlign=middle;whiteSpace=wrap;rounded=0;" vertex="1" parent="1">
          <mxGeometry x="220" y="232.5" width="60" height="30" as="geometry" />
        </mxCell>
        <mxCell id="y5Ed2lpBT8OlyU-rIpee-13" style="edgeStyle=orthogonalEdgeStyle;rounded=0;orthogonalLoop=1;jettySize=auto;html=1;exitX=1;exitY=0.5;exitDx=0;exitDy=0;entryX=0;entryY=0.5;entryDx=0;entryDy=0;endArrow=none;endFill=0;" edge="1" parent="1" source="y5Ed2lpBT8OlyU-rIpee-11" target="6f8swuai8tcjfhOtw3OV-5">
          <mxGeometry relative="1" as="geometry" />
        </mxCell>
        <mxCell id="y5Ed2lpBT8OlyU-rIpee-11" value="tem" style="rhombus;whiteSpace=wrap;html=1;" vertex="1" parent="1">
          <mxGeometry x="-360" y="460" width="105" height="105" as="geometry" />
        </mxCell>
        <mxCell id="y5Ed2lpBT8OlyU-rIpee-14" value="1,N" style="text;html=1;strokeColor=none;fillColor=none;align=center;verticalAlign=middle;whiteSpace=wrap;rounded=0;" vertex="1" parent="1">
          <mxGeometry x="-210" y="485" width="60" height="30" as="geometry" />
        </mxCell>
        <mxCell id="y5Ed2lpBT8OlyU-rIpee-15" value="1" style="text;html=1;strokeColor=none;fillColor=none;align=center;verticalAlign=middle;whiteSpace=wrap;rounded=0;" vertex="1" parent="1">
          <mxGeometry x="-460" y="485" width="60" height="30" as="geometry" />
        </mxCell>
        <mxCell id="y5Ed2lpBT8OlyU-rIpee-19" style="edgeStyle=orthogonalEdgeStyle;rounded=0;orthogonalLoop=1;jettySize=auto;html=1;exitX=1;exitY=0.5;exitDx=0;exitDy=0;entryX=0;entryY=0.5;entryDx=0;entryDy=0;endArrow=none;endFill=0;" edge="1" parent="1" source="y5Ed2lpBT8OlyU-rIpee-16" target="6f8swuai8tcjfhOtw3OV-3">
          <mxGeometry relative="1" as="geometry" />
        </mxCell>
        <mxCell id="y5Ed2lpBT8OlyU-rIpee-16" value="tem" style="rhombus;whiteSpace=wrap;html=1;" vertex="1" parent="1">
          <mxGeometry y="460" width="105" height="105" as="geometry" />
        </mxCell>
        <mxCell id="y5Ed2lpBT8OlyU-rIpee-21" style="edgeStyle=orthogonalEdgeStyle;rounded=0;orthogonalLoop=1;jettySize=auto;html=1;exitX=1;exitY=0.5;exitDx=0;exitDy=0;entryX=0;entryY=0.5;entryDx=0;entryDy=0;endArrow=none;endFill=0;" edge="1" parent="1" source="y5Ed2lpBT8OlyU-rIpee-17" target="6f8swuai8tcjfhOtw3OV-1">
          <mxGeometry relative="1" as="geometry" />
        </mxCell>
        <mxCell id="y5Ed2lpBT8OlyU-rIpee-17" value="atende" style="rhombus;whiteSpace=wrap;html=1;" vertex="1" parent="1">
          <mxGeometry x="-10" y="150" width="105" height="105" as="geometry" />
        </mxCell>
        <mxCell id="y5Ed2lpBT8OlyU-rIpee-22" value="1,N" style="text;html=1;strokeColor=none;fillColor=none;align=center;verticalAlign=middle;whiteSpace=wrap;rounded=0;" vertex="1" parent="1">
          <mxGeometry x="150" y="485" width="60" height="30" as="geometry" />
        </mxCell>
        <mxCell id="y5Ed2lpBT8OlyU-rIpee-23" value="1,N" style="text;html=1;strokeColor=none;fillColor=none;align=center;verticalAlign=middle;whiteSpace=wrap;rounded=0;" vertex="1" parent="1">
          <mxGeometry x="-101" y="485" width="60" height="30" as="geometry" />
        </mxCell>
        <mxCell id="y5Ed2lpBT8OlyU-rIpee-24" value="1,N" style="text;html=1;strokeColor=none;fillColor=none;align=center;verticalAlign=middle;whiteSpace=wrap;rounded=0;" vertex="1" parent="1">
          <mxGeometry x="145.5" y="172.5" width="60" height="30" as="geometry" />
        </mxCell>
        <mxCell id="y5Ed2lpBT8OlyU-rIpee-26" value="1,N" style="text;html=1;strokeColor=none;fillColor=none;align=center;verticalAlign=middle;whiteSpace=wrap;rounded=0;" vertex="1" parent="1">
          <mxGeometry x="-141" y="417.5" width="60" height="100" as="geometry" />
        </mxCell>
        <mxCell id="y5Ed2lpBT8OlyU-rIpee-29" style="edgeStyle=orthogonalEdgeStyle;rounded=0;orthogonalLoop=1;jettySize=auto;html=1;exitX=1;exitY=0.5;exitDx=0;exitDy=0;entryX=0.5;entryY=0;entryDx=0;entryDy=0;endArrow=none;endFill=0;" edge="1" parent="1" source="y5Ed2lpBT8OlyU-rIpee-27" target="6f8swuai8tcjfhOtw3OV-1">
          <mxGeometry relative="1" as="geometry" />
        </mxCell>
        <mxCell id="y5Ed2lpBT8OlyU-rIpee-27" value="atende" style="rhombus;whiteSpace=wrap;html=1;" vertex="1" parent="1">
          <mxGeometry x="-10" y="17.5" width="105" height="105" as="geometry" />
        </mxCell>
        <mxCell id="y5Ed2lpBT8OlyU-rIpee-33" style="edgeStyle=orthogonalEdgeStyle;rounded=0;orthogonalLoop=1;jettySize=auto;html=1;exitX=0.5;exitY=0;exitDx=0;exitDy=0;entryX=0;entryY=0.5;entryDx=0;entryDy=0;endArrow=none;endFill=0;" edge="1" parent="1" source="y5Ed2lpBT8OlyU-rIpee-30" target="6f8swuai8tcjfhOtw3OV-4">
          <mxGeometry relative="1" as="geometry" />
        </mxCell>
        <mxCell id="y5Ed2lpBT8OlyU-rIpee-30" value="tem" style="rhombus;whiteSpace=wrap;html=1;" vertex="1" parent="1">
          <mxGeometry x="-360" y="202.5" width="105" height="105" as="geometry" />
        </mxCell>
        <mxCell id="y5Ed2lpBT8OlyU-rIpee-37" value="1,N" style="text;html=1;strokeColor=none;fillColor=none;align=center;verticalAlign=middle;whiteSpace=wrap;rounded=0;" vertex="1" parent="1">
          <mxGeometry x="-250" y="40" width="60" height="30" as="geometry" />
        </mxCell>
        <mxCell id="y5Ed2lpBT8OlyU-rIpee-38" value="1" style="text;html=1;strokeColor=none;fillColor=none;align=center;verticalAlign=middle;whiteSpace=wrap;rounded=0;" vertex="1" parent="1">
          <mxGeometry x="-520" y="452.5" width="60" height="30" as="geometry" />
        </mxCell>
        <mxCell id="y5Ed2lpBT8OlyU-rIpee-39" value="1" style="text;html=1;strokeColor=none;fillColor=none;align=center;verticalAlign=middle;whiteSpace=wrap;rounded=0;" vertex="1" parent="1">
          <mxGeometry x="190" y="142.5" width="60" height="30" as="geometry" />
        </mxCell>
        <mxCell id="y5Ed2lpBT8OlyU-rIpee-40" value="1" style="text;html=1;strokeColor=none;fillColor=none;align=center;verticalAlign=middle;whiteSpace=wrap;rounded=0;" vertex="1" parent="1">
          <mxGeometry x="-160" y="40" width="60" height="30" as="geometry" />
        </mxCell>
        <mxCell id="y5Ed2lpBT8OlyU-rIpee-41" value="1" style="text;html=1;strokeColor=none;fillColor=none;align=center;verticalAlign=middle;whiteSpace=wrap;rounded=0;" vertex="1" parent="1">
          <mxGeometry x="-190" y="452.5" width="60" height="30" as="geometry" />
        </mxCell>
      </root>
    </mxGraphModel>
  </diagram>
</mxfile>
